<ttFont>
    <TTGlyph name="A" xMin="-40" yMin="-216" xMax="978" yMax="762">
      <contour>
        <pt x="978" y="-171" on="1"/>
        <pt x="901" y="-216" on="0"/>
        <pt x="741" y="-216" on="0"/>
        <pt x="598" y="-156" on="0"/>
        <pt x="461" y="-7" on="0"/>
        <pt x="417" y="100" on="1"/>
        <pt x="390" y="166" on="1"/>
        <pt x="176" y="166" on="1"/>
        <pt x="136" y="73" on="1"/>
        <pt x="131" y="60" on="0"/>
        <pt x="131" y="44" on="0"/>
        <pt x="138" y="25" on="0"/>
        <pt x="161" y="10" on="0"/>
        <pt x="174" y="10" on="1"/>
        <pt x="183" y="10" on="1"/>
        <pt x="183" y="0" on="1"/>
        <pt x="-40" y="0" on="1"/>
        <pt x="-40" y="10" on="1"/>
        <pt x="-31" y="10" on="1"/>
        <pt x="-8" y="10" on="0"/>
        <pt x="37" y="37" on="0"/>
        <pt x="52" y="64" on="1"/>
        <pt x="256" y="512" on="1"/>
        <pt x="226" y="595" on="0"/>
        <pt x="187" y="652" on="0"/>
        <pt x="174" y="667" on="1"/>
        <pt x="150" y="695" on="0"/>
        <pt x="114" y="708" on="1"/>
        <pt x="100" y="713" on="0"/>
        <pt x="62" y="713" on="0"/>
        <pt x="38" y="704" on="1"/>
        <pt x="36" y="714" on="1"/>
        <pt x="116" y="761" on="0"/>
        <pt x="189" y="761" on="1"/>
        <pt x="297" y="761" on="0"/>
        <pt x="384" y="655" on="1"/>
        <pt x="428" y="600" on="0"/>
        <pt x="463" y="522" on="1"/>
        <pt x="623" y="155" on="1"/>
        <pt x="667" y="54" on="0"/>
        <pt x="709" y="-15" on="0"/>
        <pt x="742" y="-64" on="0"/>
        <pt x="774" y="-100" on="0"/>
        <pt x="793" y="-117" on="1"/>
        <pt x="826" y="-147" on="0"/>
        <pt x="876" y="-162" on="1"/>
        <pt x="897" y="-169" on="0"/>
        <pt x="948" y="-169" on="0"/>
        <pt x="976" y="-161" on="1"/>
      </contour>
      <contour>
        <pt x="198" y="216" on="1"/>
        <pt x="370" y="216" on="1"/>
        <pt x="307" y="371" on="1"/>
        <pt x="299" y="389" on="0"/>
        <pt x="288" y="422" on="1"/>
      </contour>
    </TTGlyph>
    <TTGlyph name="AE" xMin="-340" yMin="-116" xMax="942" yMax="719">
      <contour>
        <pt x="0" y="-12" on="0"/>
        <pt x="-97" y="-93" on="0"/>
        <pt x="-184" y="-116" on="0"/>
        <pt x="-279" y="-116" on="0"/>
        <pt x="-340" y="-91" on="1"/>
        <pt x="-339" y="-81" on="1"/>
        <pt x="-321" y="-82" on="0"/>
        <pt x="-285" y="-82" on="0"/>
        <pt x="-238" y="-77" on="0"/>
        <pt x="-201" y="-62" on="1"/>
        <pt x="-129" y="-34" on="0"/>
        <pt x="-53" y="79" on="1"/>
        <pt x="335" y="648" on="1"/>
        <pt x="342" y="663" on="0"/>
        <pt x="326" y="688" on="0"/>
        <pt x="310" y="688" on="1"/>
        <pt x="305" y="688" on="1"/>
        <pt x="305" y="700" on="1"/>
        <pt x="591" y="700" on="1"/>
        <pt x="623" y="700" on="0"/>
        <pt x="698" y="712" on="0"/>
        <pt x="713" y="718" on="1"/>
        <pt x="713" y="512" on="1"/>
        <pt x="703" y="512" on="1"/>
        <pt x="703" y="520" on="1"/>
        <pt x="703" y="579" on="0"/>
        <pt x="636" y="648" on="0"/>
        <pt x="576" y="649" on="1"/>
        <pt x="541" y="649" on="1"/>
        <pt x="541" y="367" on="1"/>
        <pt x="683" y="367" on="1"/>
        <pt x="729" y="369" on="0"/>
        <pt x="788" y="430" on="0"/>
        <pt x="788" y="476" on="1"/>
        <pt x="788" y="481" on="1"/>
        <pt x="798" y="481" on="1"/>
        <pt x="798" y="203" on="1"/>
        <pt x="788" y="203" on="1"/>
        <pt x="788" y="208" on="1"/>
        <pt x="788" y="254" on="0"/>
        <pt x="730" y="315" on="0"/>
        <pt x="685" y="317" on="1"/>
        <pt x="541" y="317" on="1"/>
        <pt x="541" y="51" on="1"/>
        <pt x="724" y="51" on="1"/>
        <pt x="797" y="51" on="0"/>
        <pt x="908" y="147" on="0"/>
        <pt x="931" y="232" on="1"/>
        <pt x="941" y="232" on="1"/>
        <pt x="903" y="0" on="1"/>
        <pt x="276" y="0" on="1"/>
        <pt x="277" y="10" on="1"/>
        <pt x="286" y="10" on="1"/>
        <pt x="306" y="10" on="0"/>
        <pt x="335" y="38" on="0"/>
        <pt x="336" y="58" on="1"/>
        <pt x="337" y="58" on="1"/>
        <pt x="337" y="317" on="1"/>
        <pt x="200" y="317" on="1"/>
        <pt x="40" y="55" on="1"/>
      </contour>
      <contour>
        <pt x="337" y="367" on="1"/>
        <pt x="337" y="542" on="1"/>
        <pt x="231" y="367" on="1"/>
      </contour>
    </TTGlyph>
    <TTGlyph name="Aacute" xMin="-40" yMin="-216" xMax="978" yMax="974">
      <contour>
        <pt x="312" y="781" on="1"/>
        <pt x="305" y="788" on="1"/>
        <pt x="324" y="832" on="0"/>
        <pt x="416" y="937" on="0"/>
        <pt x="460" y="974" on="1"/>
        <pt x="524" y="947" on="0"/>
        <pt x="545" y="874" on="1"/>
        <pt x="495" y="841" on="0"/>
        <pt x="365" y="787" on="0"/>
      </contour>
      <contour>
        <pt x="978" y="-171" on="1"/>
        <pt x="901" y="-216" on="0"/>
        <pt x="741" y="-216" on="0"/>
        <pt x="598" y="-156" on="0"/>
        <pt x="461" y="-7" on="0"/>
        <pt x="417" y="100" on="1"/>
        <pt x="390" y="166" on="1"/>
        <pt x="176" y="166" on="1"/>
        <pt x="136" y="73" on="1"/>
        <pt x="131" y="60" on="0"/>
        <pt x="131" y="44" on="0"/>
        <pt x="138" y="25" on="0"/>
        <pt x="161" y="10" on="0"/>
        <pt x="174" y="10" on="1"/>
        <pt x="183" y="10" on="1"/>
        <pt x="183" y="0" on="1"/>
        <pt x="-40" y="0" on="1"/>
        <pt x="-40" y="10" on="1"/>
        <pt x="-31" y="10" on="1"/>
        <pt x="-8" y="10" on="0"/>
        <pt x="37" y="37" on="0"/>
        <pt x="52" y="64" on="1"/>
        <pt x="256" y="512" on="1"/>
        <pt x="226" y="595" on="0"/>
        <pt x="187" y="652" on="0"/>
        <pt x="174" y="667" on="1"/>
        <pt x="150" y="695" on="0"/>
        <pt x="114" y="708" on="1"/>
        <pt x="100" y="713" on="0"/>
        <pt x="62" y="713" on="0"/>
        <pt x="38" y="704" on="1"/>
        <pt x="36" y="714" on="1"/>
        <pt x="115" y="761" on="0"/>
        <pt x="190" y="761" on="1"/>
        <pt x="263" y="761" on="0"/>
        <pt x="328" y="711" on="1"/>
        <pt x="407" y="650" on="0"/>
        <pt x="463" y="522" on="1"/>
        <pt x="623" y="155" on="1"/>
        <pt x="667" y="54" on="0"/>
        <pt x="709" y="-15" on="0"/>
        <pt x="742" y="-64" on="0"/>
        <pt x="774" y="-100" on="0"/>
        <pt x="793" y="-117" on="1"/>
        <pt x="826" y="-147" on="0"/>
        <pt x="876" y="-162" on="1"/>
        <pt x="897" y="-169" on="0"/>
        <pt x="948" y="-169" on="0"/>
        <pt x="976" y="-161" on="1"/>
      </contour>
      <contour>
        <pt x="198" y="216" on="1"/>
        <pt x="370" y="216" on="1"/>
        <pt x="307" y="371" on="1"/>
        <pt x="299" y="389" on="0"/>
        <pt x="288" y="422" on="1"/>
      </contour>
    </TTGlyph>
    <TTGlyph name="Abreve" xMin="-40" yMin="-216" xMax="978" yMax="948">
      <contour>
        <pt x="472" y="917" on="1"/>
        <pt x="472" y="871" on="0"/>
        <pt x="439" y="834" on="1"/>
        <pt x="396" y="784" on="0"/>
        <pt x="329" y="784" on="1"/>
        <pt x="285" y="784" on="0"/>
        <pt x="213" y="830" on="0"/>
        <pt x="186" y="893" on="0"/>
        <pt x="186" y="933" on="0"/>
        <pt x="189" y="948" on="1"/>
        <pt x="202" y="948" on="1"/>
        <pt x="214" y="920" on="0"/>
        <pt x="285" y="884" on="0"/>
        <pt x="372" y="884" on="0"/>
        <pt x="444" y="920" on="0"/>
        <pt x="456" y="948" on="1"/>
        <pt x="468" y="948" on="1"/>
        <pt x="472" y="932" on="0"/>
      </contour>
      <contour>
        <pt x="978" y="-171" on="1"/>
        <pt x="901" y="-215" on="0"/>
        <pt x="741" y="-215" on="0"/>
        <pt x="598" y="-156" on="0"/>
        <pt x="461" y="-7" on="0"/>
        <pt x="417" y="100" on="1"/>
        <pt x="390" y="166" on="1"/>
        <pt x="176" y="166" on="1"/>
        <pt x="136" y="73" on="1"/>
        <pt x="131" y="60" on="0"/>
        <pt x="131" y="44" on="0"/>
        <pt x="138" y="25" on="0"/>
        <pt x="161" y="10" on="0"/>
        <pt x="175" y="10" on="1"/>
        <pt x="183" y="10" on="1"/>
        <pt x="183" y="0" on="1"/>
        <pt x="-40" y="0" on="1"/>
        <pt x="-40" y="10" on="1"/>
        <pt x="-31" y="10" on="1"/>
        <pt x="-8" y="10" on="0"/>
        <pt x="37" y="37" on="0"/>
        <pt x="52" y="64" on="1"/>
        <pt x="256" y="512" on="1"/>
        <pt x="226" y="595" on="0"/>
        <pt x="187" y="652" on="0"/>
        <pt x="174" y="667" on="1"/>
        <pt x="150" y="695" on="0"/>
        <pt x="114" y="708" on="1"/>
        <pt x="100" y="713" on="0"/>
        <pt x="62" y="713" on="0"/>
        <pt x="38" y="704" on="1"/>
        <pt x="36" y="714" on="1"/>
        <pt x="116" y="761" on="0"/>
        <pt x="189" y="761" on="1"/>
        <pt x="297" y="761" on="0"/>
        <pt x="384" y="655" on="1"/>
        <pt x="428" y="601" on="0"/>
        <pt x="463" y="522" on="1"/>
        <pt x="623" y="155" on="1"/>
        <pt x="667" y="54" on="0"/>
        <pt x="709" y="-15" on="0"/>
        <pt x="742" y="-64" on="0"/>
        <pt x="774" y="-100" on="0"/>
        <pt x="793" y="-117" on="1"/>
        <pt x="826" y="-147" on="0"/>
        <pt x="876" y="-162" on="1"/>
        <pt x="897" y="-169" on="0"/>
        <pt x="948" y="-169" on="0"/>
        <pt x="976" y="-161" on="1"/>
      </contour>
      <contour>
        <pt x="198" y="216" on="1"/>
        <pt x="370" y="216" on="1"/>
        <pt x="307" y="371" on="1"/>
        <pt x="299" y="389" on="0"/>
        <pt x="288" y="422" on="1"/>
      </contour>
    </TTGlyph>
    <TTGlyph name="Acircumflex" xMin="-40" yMin="-216" xMax="978" yMax="952">
      <contour>
        <pt x="322" y="952" on="1"/>
        <pt x="333" y="952" on="1"/>
        <pt x="512" y="776" on="1"/>
        <pt x="505" y="768" on="1"/>
        <pt x="327" y="833" on="1"/>
        <pt x="160" y="768" on="1"/>
        <pt x="153" y="776" on="1"/>
      </contour>
      <contour>
        <pt x="978" y="-171" on="1"/>
        <pt x="901" y="-216" on="0"/>
        <pt x="741" y="-216" on="0"/>
        <pt x="598" y="-156" on="0"/>
        <pt x="461" y="-7" on="0"/>
        <pt x="417" y="100" on="1"/>
        <pt x="390" y="166" on="1"/>
        <pt x="176" y="166" on="1"/>
        <pt x="136" y="73" on="1"/>
        <pt x="131" y="60" on="0"/>
        <pt x="131" y="44" on="0"/>
        <pt x="138" y="25" on="0"/>
        <pt x="161" y="10" on="0"/>
        <pt x="175" y="10" on="1"/>
        <pt x="183" y="10" on="1"/>
        <pt x="183" y="0" on="1"/>
        <pt x="-40" y="0" on="1"/>
        <pt x="-40" y="10" on="1"/>
        <pt x="-31" y="10" on="1"/>
        <pt x="-8" y="10" on="0"/>
        <pt x="37" y="37" on="0"/>
        <pt x="52" y="64" on="1"/>
        <pt x="256" y="512" on="1"/>
        <pt x="226" y="595" on="0"/>
        <pt x="187" y="652" on="0"/>
        <pt x="174" y="667" on="1"/>
        <pt x="150" y="695" on="0"/>
        <pt x="114" y="708" on="1"/>
        <pt x="100" y="713" on="0"/>
        <pt x="62" y="713" on="0"/>
        <pt x="38" y="704" on="1"/>
        <pt x="36" y="714" on="1"/>
        <pt x="116" y="761" on="0"/>
        <pt x="189" y="761" on="1"/>
        <pt x="297" y="761" on="0"/>
        <pt x="384" y="655" on="1"/>
        <pt x="428" y="600" on="0"/>
        <pt x="463" y="522" on="1"/>
        <pt x="623" y="155" on="1"/>
        <pt x="667" y="54" on="0"/>
        <pt x="709" y="-15" on="0"/>
        <pt x="742" y="-64" on="0"/>
        <pt x="774" y="-100" on="0"/>
        <pt x="793" y="-117" on="1"/>
        <pt x="826" y="-147" on="0"/>
        <pt x="876" y="-162" on="1"/>
        <pt x="897" y="-169" on="0"/>
        <pt x="948" y="-169" on="0"/>
        <pt x="976" y="-161" on="1"/>
      </contour>
      <contour>
        <pt x="198" y="216" on="1"/>
        <pt x="370" y="216" on="1"/>
        <pt x="307" y="371" on="1"/>
        <pt x="299" y="389" on="0"/>
        <pt x="288" y="422" on="1"/>
      </contour>
    </TTGlyph>
    <TTGlyph name="Adieresis" xMin="-40" yMin="-216" xMax="978" yMax="923">
      <contour>
        <pt x="224" y="775" on="0"/>
        <pt x="163" y="775" on="0"/>
        <pt x="120" y="819" on="0"/>
        <pt x="120" y="880" on="0"/>
        <pt x="163" y="923" on="0"/>
        <pt x="224" y="923" on="0"/>
        <pt x="268" y="880" on="0"/>
        <pt x="268" y="819" on="0"/>
      </contour>
      <contour>
        <pt x="487" y="775" on="0"/>
        <pt x="426" y="775" on="0"/>
        <pt x="383" y="819" on="0"/>
        <pt x="383" y="880" on="0"/>
        <pt x="426" y="923" on="0"/>
        <pt x="487" y="923" on="0"/>
        <pt x="530" y="880" on="0"/>
        <pt x="530" y="819" on="0"/>
      </contour>
      <contour>
        <pt x="978" y="-171" on="1"/>
        <pt x="901" y="-216" on="0"/>
        <pt x="741" y="-216" on="0"/>
        <pt x="598" y="-156" on="0"/>
        <pt x="461" y="-7" on="0"/>
        <pt x="417" y="100" on="1"/>
        <pt x="390" y="166" on="1"/>
        <pt x="176" y="166" on="1"/>
        <pt x="136" y="73" on="1"/>
        <pt x="131" y="60" on="0"/>
        <pt x="131" y="44" on="0"/>
        <pt x="138" y="25" on="0"/>
        <pt x="161" y="10" on="0"/>
        <pt x="174" y="10" on="1"/>
        <pt x="183" y="10" on="1"/>
        <pt x="183" y="0" on="1"/>
        <pt x="-40" y="0" on="1"/>
        <pt x="-40" y="10" on="1"/>
        <pt x="-31" y="10" on="1"/>
        <pt x="-8" y="10" on="0"/>
        <pt x="37" y="37" on="0"/>
        <pt x="52" y="64" on="1"/>
        <pt x="256" y="512" on="1"/>
        <pt x="226" y="595" on="0"/>
        <pt x="187" y="652" on="0"/>
        <pt x="174" y="667" on="1"/>
        <pt x="150" y="695" on="0"/>
        <pt x="114" y="708" on="1"/>
        <pt x="100" y="713" on="0"/>
        <pt x="62" y="713" on="0"/>
        <pt x="38" y="704" on="1"/>
        <pt x="36" y="714" on="1"/>
        <pt x="116" y="761" on="0"/>
        <pt x="189" y="761" on="1"/>
        <pt x="297" y="761" on="0"/>
        <pt x="384" y="655" on="1"/>
        <pt x="428" y="600" on="0"/>
        <pt x="463" y="522" on="1"/>
        <pt x="623" y="155" on="1"/>
        <pt x="667" y="54" on="0"/>
        <pt x="709" y="-15" on="0"/>
        <pt x="742" y="-64" on="0"/>
        <pt x="774" y="-100" on="0"/>
        <pt x="793" y="-117" on="1"/>
        <pt x="826" y="-147" on="0"/>
        <pt x="876" y="-162" on="1"/>
        <pt x="897" y="-169" on="0"/>
        <pt x="948" y="-169" on="0"/>
        <pt x="976" y="-161" on="1"/>
      </contour>
      <contour>
        <pt x="198" y="216" on="1"/>
        <pt x="370" y="216" on="1"/>
        <pt x="307" y="371" on="1"/>
        <pt x="299" y="389" on="0"/>
        <pt x="288" y="422" on="1"/>
      </contour>
    </TTGlyph>
    <TTGlyph name="Agrave" xMin="-40" yMin="-216" xMax="978" yMax="977">
      <contour>
        <pt x="356" y="791" on="1"/>
        <pt x="349" y="784" on="1"/>
        <pt x="296" y="790" on="0"/>
        <pt x="166" y="844" on="0"/>
        <pt x="116" y="877" on="1"/>
        <pt x="137" y="950" on="0"/>
        <pt x="201" y="977" on="1"/>
        <pt x="244" y="940" on="0"/>
        <pt x="337" y="835" on="0"/>
      </contour>
      <contour>
        <pt x="978" y="-171" on="1"/>
        <pt x="901" y="-216" on="0"/>
        <pt x="741" y="-216" on="0"/>
        <pt x="598" y="-156" on="0"/>
        <pt x="461" y="-8" on="0"/>
        <pt x="417" y="100" on="1"/>
        <pt x="390" y="166" on="1"/>
        <pt x="176" y="166" on="1"/>
        <pt x="136" y="73" on="1"/>
        <pt x="131" y="60" on="0"/>
        <pt x="131" y="44" on="0"/>
        <pt x="138" y="25" on="0"/>
        <pt x="161" y="10" on="0"/>
        <pt x="174" y="10" on="1"/>
        <pt x="183" y="10" on="1"/>
        <pt x="183" y="0" on="1"/>
        <pt x="-40" y="0" on="1"/>
        <pt x="-40" y="10" on="1"/>
        <pt x="-31" y="10" on="1"/>
        <pt x="-8" y="10" on="0"/>
        <pt x="37" y="37" on="0"/>
        <pt x="52" y="64" on="1"/>
        <pt x="256" y="512" on="1"/>
        <pt x="226" y="595" on="0"/>
        <pt x="187" y="652" on="0"/>
        <pt x="174" y="667" on="1"/>
        <pt x="150" y="695" on="0"/>
        <pt x="114" y="708" on="1"/>
        <pt x="100" y="713" on="0"/>
        <pt x="62" y="713" on="0"/>
        <pt x="38" y="704" on="1"/>
        <pt x="36" y="714" on="1"/>
        <pt x="115" y="761" on="0"/>
        <pt x="190" y="761" on="1"/>
        <pt x="263" y="761" on="0"/>
        <pt x="328" y="711" on="1"/>
        <pt x="407" y="650" on="0"/>
        <pt x="463" y="522" on="1"/>
        <pt x="623" y="155" on="1"/>
        <pt x="667" y="54" on="0"/>
        <pt x="709" y="-15" on="0"/>
        <pt x="742" y="-64" on="0"/>
        <pt x="774" y="-100" on="0"/>
        <pt x="793" y="-117" on="1"/>
        <pt x="826" y="-147" on="0"/>
        <pt x="876" y="-162" on="1"/>
        <pt x="897" y="-169" on="0"/>
        <pt x="948" y="-169" on="0"/>
        <pt x="976" y="-161" on="1"/>
      </contour>
      <contour>
        <pt x="198" y="216" on="1"/>
        <pt x="370" y="216" on="1"/>
        <pt x="307" y="371" on="1"/>
        <pt x="299" y="389" on="0"/>
        <pt x="288" y="422" on="1"/>
      </contour>
    </TTGlyph>
    <TTGlyph name="Amacron" xMin="-40" yMin="-216" xMax="978" yMax="901">
      <contour>
        <pt x="187" y="815" on="1"/>
        <pt x="187" y="900" on="1"/>
        <pt x="477" y="900" on="1"/>
        <pt x="477" y="815" on="1"/>
      </contour>
      <contour>
        <pt x="978" y="-171" on="1"/>
        <pt x="901" y="-216" on="0"/>
        <pt x="741" y="-216" on="0"/>
        <pt x="598" y="-156" on="0"/>
        <pt x="461" y="-7" on="0"/>
        <pt x="417" y="100" on="1"/>
        <pt x="390" y="166" on="1"/>
        <pt x="176" y="166" on="1"/>
        <pt x="136" y="73" on="1"/>
        <pt x="131" y="60" on="0"/>
        <pt x="131" y="44" on="0"/>
        <pt x="138" y="25" on="0"/>
        <pt x="161" y="10" on="0"/>
        <pt x="174" y="10" on="1"/>
        <pt x="183" y="10" on="1"/>
        <pt x="183" y="0" on="1"/>
        <pt x="-40" y="0" on="1"/>
        <pt x="-40" y="10" on="1"/>
        <pt x="-31" y="10" on="1"/>
        <pt x="-8" y="10" on="0"/>
        <pt x="37" y="37" on="0"/>
        <pt x="52" y="64" on="1"/>
        <pt x="256" y="512" on="1"/>
        <pt x="226" y="595" on="0"/>
        <pt x="187" y="652" on="0"/>
        <pt x="174" y="667" on="1"/>
        <pt x="150" y="695" on="0"/>
        <pt x="114" y="708" on="1"/>
        <pt x="100" y="713" on="0"/>
        <pt x="62" y="713" on="0"/>
        <pt x="38" y="704" on="1"/>
        <pt x="36" y="714" on="1"/>
        <pt x="116" y="761" on="0"/>
        <pt x="189" y="761" on="1"/>
        <pt x="297" y="761" on="0"/>
        <pt x="384" y="655" on="1"/>
        <pt x="428" y="600" on="0"/>
        <pt x="463" y="522" on="1"/>
        <pt x="623" y="155" on="1"/>
        <pt x="667" y="54" on="0"/>
        <pt x="709" y="-15" on="0"/>
        <pt x="742" y="-64" on="0"/>
        <pt x="774" y="-100" on="0"/>
        <pt x="793" y="-117" on="1"/>
        <pt x="826" y="-147" on="0"/>
        <pt x="876" y="-162" on="1"/>
        <pt x="897" y="-169" on="0"/>
        <pt x="948" y="-169" on="0"/>
        <pt x="976" y="-161" on="1"/>
      </contour>
      <contour>
        <pt x="198" y="216" on="1"/>
        <pt x="370" y="216" on="1"/>
        <pt x="307" y="371" on="1"/>
        <pt x="299" y="389" on="0"/>
        <pt x="288" y="422" on="1"/>
      </contour>
    </TTGlyph>
    <TTGlyph name="Aogonek" xMin="-41" yMin="-216" xMax="978" yMax="750">
      <contour>
        <pt x="978" y="-171" on="1"/>
        <pt x="901" y="-216" on="0"/>
        <pt x="811" y="-216" on="1"/>
        <pt x="686" y="-216" on="0"/>
        <pt x="579" y="-129" on="1"/>
        <pt x="515" y="-77" on="0"/>
        <pt x="467" y="1" on="1"/>
        <pt x="417" y="-16" on="0"/>
        <pt x="417" y="-64" on="1"/>
        <pt x="417" y="-117" on="0"/>
        <pt x="457" y="-132" on="1"/>
        <pt x="467" y="-136" on="0"/>
        <pt x="503" y="-136" on="0"/>
        <pt x="529" y="-115" on="1"/>
        <pt x="535" y="-121" on="1"/>
        <pt x="531" y="-185" on="0"/>
        <pt x="474" y="-203" on="1"/>
        <pt x="456" y="-208" on="0"/>
        <pt x="406" y="-208" on="0"/>
        <pt x="374" y="-186" on="1"/>
        <pt x="330" y="-155" on="0"/>
        <pt x="330" y="-103" on="1"/>
        <pt x="330" y="-39" on="0"/>
        <pt x="377" y="-12" on="1"/>
        <pt x="412" y="9" on="0"/>
        <pt x="455" y="9" on="1"/>
        <pt x="458" y="9" on="0"/>
        <pt x="462" y="9" on="1"/>
        <pt x="437" y="51" on="0"/>
        <pt x="417" y="100" on="1"/>
        <pt x="390" y="166" on="1"/>
        <pt x="176" y="166" on="1"/>
        <pt x="136" y="73" on="1"/>
        <pt x="131" y="60" on="0"/>
        <pt x="131" y="44" on="0"/>
        <pt x="138" y="25" on="0"/>
        <pt x="161" y="10" on="0"/>
        <pt x="174" y="10" on="1"/>
        <pt x="183" y="10" on="1"/>
        <pt x="183" y="0" on="1"/>
        <pt x="-40" y="0" on="1"/>
        <pt x="-40" y="10" on="1"/>
        <pt x="-31" y="10" on="1"/>
        <pt x="-8" y="10" on="0"/>
        <pt x="37" y="37" on="0"/>
        <pt x="52" y="64" on="1"/>
        <pt x="253" y="504" on="1"/>
        <pt x="185" y="657" on="0"/>
        <pt x="106" y="686" on="1"/>
        <pt x="87" y="693" on="0"/>
        <pt x="42" y="693" on="0"/>
        <pt x="18" y="684" on="1"/>
        <pt x="16" y="694" on="1"/>
        <pt x="107" y="750" on="0"/>
        <pt x="187" y="750" on="1"/>
        <pt x="360" y="750" on="0"/>
        <pt x="470" y="502" on="1"/>
        <pt x="623" y="155" on="1"/>
        <pt x="668" y="53" on="0"/>
        <pt x="709" y="-15" on="0"/>
        <pt x="742" y="-64" on="0"/>
        <pt x="775" y="-99" on="0"/>
        <pt x="794" y="-117" on="1"/>
        <pt x="826" y="-147" on="0"/>
        <pt x="876" y="-162" on="1"/>
        <pt x="897" y="-169" on="0"/>
        <pt x="948" y="-169" on="0"/>
        <pt x="976" y="-161" on="1"/>
      </contour>
      <contour>
        <pt x="198" y="216" on="1"/>
        <pt x="370" y="216" on="1"/>
        <pt x="287" y="421" on="1"/>
      </contour>
    </TTGlyph>
    <TTGlyph name="Aring" xMin="-41" yMin="-216" xMax="978" yMax="962">
      <contour>
        <pt x="210" y="911" on="0"/>
        <pt x="278" y="962" on="0"/>
        <pt x="379" y="962" on="0"/>
        <pt x="446" y="912" on="0"/>
        <pt x="446" y="835" on="0"/>
        <pt x="378" y="783" on="0"/>
        <pt x="277" y="783" on="0"/>
        <pt x="210" y="834" on="0"/>
      </contour>
      <contour>
        <pt x="379" y="898" on="0"/>
        <pt x="350" y="932" on="0"/>
        <pt x="306" y="932" on="0"/>
        <pt x="277" y="898" on="0"/>
        <pt x="277" y="847" on="0"/>
        <pt x="306" y="814" on="0"/>
        <pt x="350" y="814" on="0"/>
        <pt x="379" y="847" on="0"/>
      </contour>
      <contour>
        <pt x="978" y="-171" on="1"/>
        <pt x="901" y="-216" on="0"/>
        <pt x="741" y="-216" on="0"/>
        <pt x="598" y="-156" on="0"/>
        <pt x="461" y="-7" on="0"/>
        <pt x="417" y="100" on="1"/>
        <pt x="390" y="166" on="1"/>
        <pt x="176" y="166" on="1"/>
        <pt x="136" y="73" on="1"/>
        <pt x="131" y="60" on="0"/>
        <pt x="131" y="44" on="0"/>
        <pt x="138" y="25" on="0"/>
        <pt x="161" y="10" on="0"/>
        <pt x="174" y="10" on="1"/>
        <pt x="183" y="10" on="1"/>
        <pt x="183" y="0" on="1"/>
        <pt x="-40" y="0" on="1"/>
        <pt x="-40" y="10" on="1"/>
        <pt x="-31" y="10" on="1"/>
        <pt x="-8" y="10" on="0"/>
        <pt x="37" y="37" on="0"/>
        <pt x="52" y="64" on="1"/>
        <pt x="256" y="512" on="1"/>
        <pt x="226" y="595" on="0"/>
        <pt x="187" y="652" on="0"/>
        <pt x="174" y="667" on="1"/>
        <pt x="150" y="695" on="0"/>
        <pt x="114" y="708" on="1"/>
        <pt x="100" y="713" on="0"/>
        <pt x="62" y="713" on="0"/>
        <pt x="38" y="704" on="1"/>
        <pt x="36" y="714" on="1"/>
        <pt x="115" y="761" on="0"/>
        <pt x="190" y="761" on="1"/>
        <pt x="263" y="761" on="0"/>
        <pt x="328" y="711" on="1"/>
        <pt x="407" y="650" on="0"/>
        <pt x="463" y="522" on="1"/>
        <pt x="623" y="155" on="1"/>
        <pt x="667" y="54" on="0"/>
        <pt x="709" y="-15" on="0"/>
        <pt x="742" y="-64" on="0"/>
        <pt x="774" y="-100" on="0"/>
        <pt x="793" y="-117" on="1"/>
        <pt x="826" y="-147" on="0"/>
        <pt x="876" y="-162" on="1"/>
        <pt x="897" y="-169" on="0"/>
        <pt x="948" y="-169" on="0"/>
        <pt x="976" y="-161" on="1"/>
      </contour>
      <contour>
        <pt x="198" y="216" on="1"/>
        <pt x="370" y="216" on="1"/>
        <pt x="307" y="371" on="1"/>
        <pt x="299" y="389" on="0"/>
        <pt x="288" y="422" on="1"/>
      </contour>
    </TTGlyph>
    <TTGlyph name="Atilde" xMin="-41" yMin="-216" xMax="978" yMax="949">
      <contour>
        <pt x="524" y="939" on="1"/>
        <pt x="536" y="939" on="1"/>
        <pt x="542" y="922" on="0"/>
        <pt x="542" y="883" on="0"/>
        <pt x="534" y="864" on="1"/>
        <pt x="512" y="814" on="0"/>
        <pt x="473" y="796" on="1"/>
        <pt x="449" y="784" on="0"/>
        <pt x="386" y="784" on="0"/>
        <pt x="337" y="809" on="1"/>
        <pt x="287" y="834" on="0"/>
        <pt x="252" y="839" on="0"/>
        <pt x="222" y="839" on="0"/>
        <pt x="174" y="807" on="0"/>
        <pt x="166" y="787" on="1"/>
        <pt x="154" y="787" on="1"/>
        <pt x="150" y="801" on="0"/>
        <pt x="150" y="816" on="1"/>
        <pt x="150" y="876" on="0"/>
        <pt x="195" y="919" on="1"/>
        <pt x="226" y="949" on="0"/>
        <pt x="301" y="949" on="0"/>
        <pt x="409" y="895" on="0"/>
        <pt x="454" y="895" on="1"/>
        <pt x="469" y="895" on="0"/>
        <pt x="518" y="924" on="0"/>
      </contour>
      <contour>
        <pt x="978" y="-171" on="1"/>
        <pt x="901" y="-216" on="0"/>
        <pt x="741" y="-216" on="0"/>
        <pt x="598" y="-156" on="0"/>
        <pt x="461" y="-8" on="0"/>
        <pt x="417" y="100" on="1"/>
        <pt x="390" y="166" on="1"/>
        <pt x="176" y="166" on="1"/>
        <pt x="136" y="73" on="1"/>
        <pt x="130" y="60" on="0"/>
        <pt x="130" y="37" on="0"/>
        <pt x="152" y="10" on="0"/>
        <pt x="174" y="10" on="1"/>
        <pt x="183" y="10" on="1"/>
        <pt x="183" y="0" on="1"/>
        <pt x="-40" y="0" on="1"/>
        <pt x="-40" y="10" on="1"/>
        <pt x="-31" y="10" on="1"/>
        <pt x="-8" y="10" on="0"/>
        <pt x="37" y="37" on="0"/>
        <pt x="52" y="64" on="1"/>
        <pt x="256" y="512" on="1"/>
        <pt x="226" y="595" on="0"/>
        <pt x="187" y="652" on="0"/>
        <pt x="174" y="667" on="1"/>
        <pt x="150" y="695" on="0"/>
        <pt x="114" y="708" on="1"/>
        <pt x="100" y="713" on="0"/>
        <pt x="62" y="713" on="0"/>
        <pt x="38" y="704" on="1"/>
        <pt x="36" y="714" on="1"/>
        <pt x="115" y="761" on="0"/>
        <pt x="190" y="761" on="1"/>
        <pt x="263" y="761" on="0"/>
        <pt x="328" y="711" on="1"/>
        <pt x="407" y="650" on="0"/>
        <pt x="463" y="522" on="1"/>
        <pt x="623" y="155" on="1"/>
        <pt x="667" y="54" on="0"/>
        <pt x="709" y="-15" on="0"/>
        <pt x="742" y="-64" on="0"/>
        <pt x="774" y="-100" on="0"/>
        <pt x="793" y="-117" on="1"/>
        <pt x="826" y="-147" on="0"/>
        <pt x="876" y="-162" on="1"/>
        <pt x="897" y="-169" on="0"/>
        <pt x="948" y="-169" on="0"/>
        <pt x="976" y="-161" on="1"/>
      </contour>
      <contour>
        <pt x="198" y="216" on="1"/>
        <pt x="370" y="216" on="1"/>
        <pt x="307" y="371" on="1"/>
        <pt x="299" y="389" on="0"/>
        <pt x="288" y="422" on="1"/>
      </contour>
    </TTGlyph>
    <TTGlyph name="B" xMin="-10" yMin="-16" xMax="756" yMax="701">
      <contour>
        <pt x="401" y="-16" on="1"/>
        <pt x="-10" y="-16" on="0"/>
        <pt x="-10" y="321" on="1"/>
        <pt x="-10" y="350" on="0"/>
        <pt x="-7" y="380" on="1"/>
        <pt x="3" y="381" on="1"/>
        <pt x="3" y="195" on="0"/>
        <pt x="126" y="103" on="1"/>
        <pt x="126" y="628" on="1"/>
        <pt x="125" y="655" on="0"/>
        <pt x="87" y="690" on="0"/>
        <pt x="62" y="690" on="1"/>
        <pt x="49" y="690" on="1"/>
        <pt x="49" y="700" on="1"/>
        <pt x="357" y="700" on="1"/>
        <pt x="527" y="700" on="0"/>
        <pt x="607" y="623" on="1"/>
        <pt x="650" y="581" on="0"/>
        <pt x="650" y="522" on="1"/>
        <pt x="650" y="457" on="0"/>
        <pt x="607" y="413" on="1"/>
        <pt x="588" y="392" on="0"/>
        <pt x="564" y="383" on="1"/>
        <pt x="569" y="383" on="0"/>
        <pt x="574" y="383" on="1"/>
        <pt x="642" y="383" on="0"/>
        <pt x="756" y="289" on="0"/>
        <pt x="756" y="129" on="0"/>
        <pt x="699" y="76" on="1"/>
        <pt x="602" y="-16" on="0"/>
      </contour>
      <contour>
        <pt x="435" y="486" on="1"/>
        <pt x="435" y="516" on="1"/>
        <pt x="432" y="581" on="0"/>
        <pt x="386" y="645" on="0"/>
        <pt x="331" y="649" on="1"/>
        <pt x="331" y="38" on="1"/>
        <pt x="421" y="39" on="0"/>
        <pt x="521" y="134" on="0"/>
        <pt x="521" y="211" on="1"/>
        <pt x="521" y="296" on="0"/>
        <pt x="427" y="372" on="0"/>
        <pt x="365" y="372" on="1"/>
        <pt x="365" y="381" on="1"/>
        <pt x="386" y="381" on="0"/>
        <pt x="415" y="404" on="0"/>
        <pt x="422" y="421" on="1"/>
        <pt x="435" y="458" on="0"/>
      </contour>
    </TTGlyph>
    <TTGlyph name="C" xMin="9" yMin="-14" xMax="821" yMax="715">
      <contour>
        <pt x="815" y="402" on="1"/>
        <pt x="821" y="362" on="0"/>
        <pt x="821" y="272" on="0"/>
        <pt x="809" y="224" on="1"/>
        <pt x="771" y="73" on="0"/>
        <pt x="628" y="14" on="1"/>
        <pt x="560" y="-14" on="0"/>
        <pt x="478" y="-14" on="1"/>
        <pt x="253" y="-14" on="0"/>
        <pt x="10" y="182" on="0"/>
        <pt x="10" y="515" on="0"/>
        <pt x="262" y="714" on="0"/>
        <pt x="478" y="714" on="1"/>
        <pt x="628" y="714" on="0"/>
        <pt x="736" y="668" on="1"/>
        <pt x="726" y="477" on="1"/>
        <pt x="717" y="477" on="1"/>
        <pt x="665" y="664" on="0"/>
        <pt x="483" y="664" on="1"/>
        <pt x="362" y="664" on="0"/>
        <pt x="230" y="501" on="0"/>
        <pt x="230" y="213" on="0"/>
        <pt x="368" y="40" on="0"/>
        <pt x="498" y="36" on="1"/>
        <pt x="641" y="36" on="0"/>
        <pt x="807" y="221" on="0"/>
        <pt x="807" y="378" on="1"/>
        <pt x="807" y="390" on="0"/>
        <pt x="807" y="402" on="1"/>
      </contour>
    </TTGlyph>
    <TTGlyph name="Cacute" xMin="10" yMin="-14" xMax="821" yMax="954">
      <contour>
        <pt x="435" y="761" on="1"/>
        <pt x="428" y="768" on="1"/>
        <pt x="447" y="812" on="0"/>
        <pt x="540" y="917" on="0"/>
        <pt x="583" y="954" on="1"/>
        <pt x="647" y="927" on="0"/>
        <pt x="668" y="854" on="1"/>
        <pt x="618" y="821" on="0"/>
        <pt x="488" y="767" on="0"/>
      </contour>
      <contour>
        <pt x="815" y="402" on="1"/>
        <pt x="821" y="362" on="0"/>
        <pt x="821" y="272" on="0"/>
        <pt x="809" y="224" on="1"/>
        <pt x="771" y="73" on="0"/>
        <pt x="628" y="14" on="1"/>
        <pt x="560" y="-14" on="0"/>
        <pt x="478" y="-14" on="1"/>
        <pt x="253" y="-14" on="0"/>
        <pt x="10" y="182" on="0"/>
        <pt x="10" y="515" on="0"/>
        <pt x="262" y="714" on="0"/>
        <pt x="478" y="714" on="1"/>
        <pt x="628" y="714" on="0"/>
        <pt x="736" y="669" on="1"/>
        <pt x="726" y="477" on="1"/>
        <pt x="717" y="477" on="1"/>
        <pt x="665" y="664" on="0"/>
        <pt x="483" y="664" on="1"/>
        <pt x="362" y="664" on="0"/>
        <pt x="230" y="501" on="0"/>
        <pt x="230" y="213" on="0"/>
        <pt x="368" y="40" on="0"/>
        <pt x="498" y="36" on="1"/>
        <pt x="641" y="36" on="0"/>
        <pt x="807" y="221" on="0"/>
        <pt x="807" y="378" on="1"/>
        <pt x="807" y="390" on="0"/>
        <pt x="807" y="402" on="1"/>
      </contour>
    </TTGlyph>
    <TTGlyph name="Ccaron" xMin="9" yMin="-14" xMax="821" yMax="948">
      <contour>
        <pt x="459" y="764" on="1"/>
        <pt x="447" y="764" on="1"/>
        <pt x="278" y="939" on="1"/>
        <pt x="285" y="947" on="1"/>
        <pt x="453" y="883" on="1"/>
        <pt x="611" y="947" on="1"/>
        <pt x="618" y="939" on="1"/>
      </contour>
      <contour>
        <pt x="815" y="402" on="1"/>
        <pt x="821" y="362" on="0"/>
        <pt x="821" y="272" on="0"/>
        <pt x="809" y="224" on="1"/>
        <pt x="771" y="72" on="0"/>
        <pt x="628" y="14" on="1"/>
        <pt x="560" y="-14" on="0"/>
        <pt x="478" y="-14" on="1"/>
        <pt x="253" y="-14" on="0"/>
        <pt x="10" y="182" on="0"/>
        <pt x="10" y="515" on="0"/>
        <pt x="262" y="714" on="0"/>
        <pt x="478" y="714" on="1"/>
        <pt x="628" y="714" on="0"/>
        <pt x="736" y="668" on="1"/>
        <pt x="726" y="477" on="1"/>
        <pt x="717" y="477" on="1"/>
        <pt x="665" y="664" on="0"/>
        <pt x="483" y="664" on="1"/>
        <pt x="362" y="664" on="0"/>
        <pt x="230" y="501" on="0"/>
        <pt x="230" y="213" on="0"/>
        <pt x="368" y="40" on="0"/>
        <pt x="498" y="36" on="1"/>
        <pt x="641" y="36" on="0"/>
        <pt x="807" y="221" on="0"/>
        <pt x="807" y="378" on="1"/>
        <pt x="807" y="390" on="0"/>
        <pt x="807" y="402" on="1"/>
      </contour>
    </TTGlyph>
    <TTGlyph name="Ccedilla" xMin="9" yMin="-214" xMax="821" yMax="715">
      <contour>
        <pt x="815" y="402" on="1"/>
        <pt x="821" y="362" on="0"/>
        <pt x="821" y="301" on="0"/>
        <pt x="813" y="222" on="0"/>
        <pt x="774" y="130" on="0"/>
        <pt x="713" y="60" on="0"/>
        <pt x="673" y="36" on="1"/>
        <pt x="592" y="-13" on="0"/>
        <pt x="482" y="-14" on="1"/>
        <pt x="445" y="-57" on="1"/>
        <pt x="459" y="-52" on="0"/>
        <pt x="479" y="-52" on="0"/>
        <pt x="499" y="-52" on="0"/>
        <pt x="540" y="-63" on="0"/>
        <pt x="564" y="-93" on="0"/>
        <pt x="564" y="-105" on="1"/>
        <pt x="564" y="-151" on="0"/>
        <pt x="532" y="-178" on="1"/>
        <pt x="490" y="-213" on="0"/>
        <pt x="432" y="-213" on="1"/>
        <pt x="404" y="-213" on="0"/>
        <pt x="375" y="-205" on="1"/>
        <pt x="376" y="-195" on="1"/>
        <pt x="412" y="-195" on="0"/>
        <pt x="480" y="-154" on="0"/>
        <pt x="480" y="-114" on="1"/>
        <pt x="480" y="-98" on="0"/>
        <pt x="463" y="-86" on="1"/>
        <pt x="433" y="-65" on="0"/>
        <pt x="382" y="-81" on="1"/>
        <pt x="377" y="-71" on="1"/>
        <pt x="423" y="-12" on="1"/>
        <pt x="224" y="0" on="0"/>
        <pt x="10" y="193" on="0"/>
        <pt x="10" y="346" on="1"/>
        <pt x="10" y="515" on="0"/>
        <pt x="262" y="714" on="0"/>
        <pt x="478" y="714" on="1"/>
        <pt x="628" y="714" on="0"/>
        <pt x="736" y="668" on="1"/>
        <pt x="726" y="477" on="1"/>
        <pt x="717" y="477" on="1"/>
        <pt x="665" y="664" on="0"/>
        <pt x="483" y="664" on="1"/>
        <pt x="362" y="664" on="0"/>
        <pt x="230" y="501" on="0"/>
        <pt x="230" y="213" on="0"/>
        <pt x="368" y="40" on="0"/>
        <pt x="498" y="36" on="1"/>
        <pt x="641" y="36" on="0"/>
        <pt x="807" y="221" on="0"/>
        <pt x="807" y="378" on="1"/>
        <pt x="807" y="390" on="0"/>
        <pt x="807" y="402" on="1"/>
      </contour>
    </TTGlyph>
    <TTGlyph name="Cdotaccent" xMin="9" yMin="-14" xMax="821" yMax="912">
      <contour>
        <pt x="483" y="764" on="0"/>
        <pt x="421" y="764" on="0"/>
        <pt x="378" y="807" on="0"/>
        <pt x="378" y="868" on="0"/>
        <pt x="421" y="911" on="0"/>
        <pt x="483" y="911" on="0"/>
        <pt x="526" y="868" on="0"/>
        <pt x="526" y="807" on="0"/>
      </contour>
      <contour>
        <pt x="815" y="402" on="1"/>
        <pt x="821" y="362" on="0"/>
        <pt x="821" y="272" on="0"/>
        <pt x="809" y="224" on="1"/>
        <pt x="771" y="73" on="0"/>
        <pt x="628" y="14" on="1"/>
        <pt x="560" y="-14" on="0"/>
        <pt x="478" y="-14" on="1"/>
        <pt x="253" y="-14" on="0"/>
        <pt x="10" y="182" on="0"/>
        <pt x="10" y="515" on="0"/>
        <pt x="262" y="714" on="0"/>
        <pt x="478" y="714" on="1"/>
        <pt x="628" y="714" on="0"/>
        <pt x="736" y="668" on="1"/>
        <pt x="726" y="477" on="1"/>
        <pt x="717" y="477" on="1"/>
        <pt x="665" y="664" on="0"/>
        <pt x="483" y="664" on="1"/>
        <pt x="362" y="664" on="0"/>
        <pt x="230" y="501" on="0"/>
        <pt x="230" y="213" on="0"/>
        <pt x="368" y="40" on="0"/>
        <pt x="498" y="36" on="1"/>
        <pt x="641" y="36" on="0"/>
        <pt x="807" y="221" on="0"/>
        <pt x="807" y="378" on="1"/>
        <pt x="807" y="390" on="0"/>
        <pt x="807" y="402" on="1"/>
      </contour>
    </TTGlyph>
    <TTGlyph name="D" xMin="-101" yMin="-1" xMax="844" yMax="700">
      <contour>
        <pt x="445" y="0" on="1"/>
        <pt x="66" y="0" on="1"/>
        <pt x="66" y="10" on="1"/>
        <pt x="79" y="10" on="1"/>
        <pt x="105" y="10" on="0"/>
        <pt x="142" y="47" on="0"/>
        <pt x="143" y="73" on="1"/>
        <pt x="143" y="644" on="1"/>
        <pt x="38" y="633" on="0"/>
        <pt x="-16" y="585" on="1"/>
        <pt x="-62" y="544" on="0"/>
        <pt x="-90" y="480" on="1"/>
        <pt x="-100" y="484" on="1"/>
        <pt x="-80" y="592" on="0"/>
        <pt x="87" y="700" on="0"/>
        <pt x="213" y="700" on="1"/>
        <pt x="445" y="700" on="1"/>
        <pt x="633" y="700" on="0"/>
        <pt x="844" y="515" on="0"/>
        <pt x="844" y="185" on="0"/>
        <pt x="632" y="0" on="0"/>
      </contour>
      <contour>
        <pt x="348" y="50" on="1"/>
        <pt x="425" y="50" on="1"/>
        <pt x="425" y="50" on="0"/>
        <pt x="425" y="50" on="1"/>
        <pt x="518" y="50" on="0"/>
        <pt x="624" y="209" on="0"/>
        <pt x="624" y="491" on="0"/>
        <pt x="518" y="650" on="0"/>
        <pt x="425" y="650" on="1"/>
        <pt x="348" y="648" on="1"/>
      </contour>
    </TTGlyph>
    <TTGlyph name="Dcaron" xMin="-101" yMin="-1" xMax="844" yMax="948">
      <contour>
        <pt x="464" y="764" on="1"/>
        <pt x="452" y="764" on="1"/>
        <pt x="283" y="939" on="1"/>
        <pt x="290" y="947" on="1"/>
        <pt x="459" y="883" on="1"/>
        <pt x="616" y="947" on="1"/>
        <pt x="623" y="939" on="1"/>
      </contour>
      <contour>
        <pt x="445" y="0" on="1"/>
        <pt x="66" y="0" on="1"/>
        <pt x="66" y="10" on="1"/>
        <pt x="79" y="10" on="1"/>
        <pt x="105" y="10" on="0"/>
        <pt x="142" y="47" on="0"/>
        <pt x="143" y="73" on="1"/>
        <pt x="143" y="644" on="1"/>
        <pt x="38" y="633" on="0"/>
        <pt x="-16" y="585" on="1"/>
        <pt x="-62" y="544" on="0"/>
        <pt x="-90" y="480" on="1"/>
        <pt x="-100" y="484" on="1"/>
        <pt x="-80" y="592" on="0"/>
        <pt x="87" y="700" on="0"/>
        <pt x="213" y="700" on="1"/>
        <pt x="445" y="700" on="1"/>
        <pt x="633" y="700" on="0"/>
        <pt x="844" y="515" on="0"/>
        <pt x="844" y="185" on="0"/>
        <pt x="632" y="0" on="0"/>
      </contour>
      <contour>
        <pt x="348" y="50" on="1"/>
        <pt x="425" y="50" on="1"/>
        <pt x="425" y="50" on="0"/>
        <pt x="425" y="50" on="1"/>
        <pt x="518" y="50" on="0"/>
        <pt x="624" y="209" on="0"/>
        <pt x="624" y="491" on="0"/>
        <pt x="518" y="650" on="0"/>
        <pt x="425" y="650" on="1"/>
        <pt x="348" y="648" on="1"/>
      </contour>
    </TTGlyph>
    <TTGlyph name="Dcroat" xMin="-101" yMin="-1" xMax="844" yMax="881">
      <contour>
        <pt x="315" y="795" on="1"/>
        <pt x="315" y="880" on="1"/>
        <pt x="605" y="880" on="1"/>
        <pt x="605" y="795" on="1"/>
      </contour>
      <contour>
        <pt x="445" y="0" on="1"/>
        <pt x="66" y="0" on="1"/>
        <pt x="66" y="10" on="1"/>
        <pt x="79" y="10" on="1"/>
        <pt x="105" y="10" on="0"/>
        <pt x="142" y="47" on="0"/>
        <pt x="143" y="73" on="1"/>
        <pt x="143" y="644" on="1"/>
        <pt x="38" y="633" on="0"/>
        <pt x="-16" y="585" on="1"/>
        <pt x="-62" y="544" on="0"/>
        <pt x="-90" y="480" on="1"/>
        <pt x="-100" y="484" on="1"/>
        <pt x="-86" y="556" on="0"/>
        <pt x="-42" y="605" on="1"/>
        <pt x="42" y="700" on="0"/>
        <pt x="213" y="700" on="1"/>
        <pt x="445" y="700" on="1"/>
        <pt x="633" y="700" on="0"/>
        <pt x="844" y="515" on="0"/>
        <pt x="844" y="185" on="0"/>
        <pt x="632" y="0" on="0"/>
      </contour>
      <contour>
        <pt x="348" y="50" on="1"/>
        <pt x="425" y="50" on="1"/>
        <pt x="425" y="50" on="0"/>
        <pt x="425" y="50" on="1"/>
        <pt x="518" y="50" on="0"/>
        <pt x="624" y="209" on="0"/>
        <pt x="624" y="491" on="0"/>
        <pt x="518" y="650" on="0"/>
        <pt x="425" y="650" on="1"/>
        <pt x="348" y="648" on="1"/>
      </contour>
    </TTGlyph>
    <TTGlyph name="Delta" xMin="5" yMin="0" xMax="647" yMax="714">
      <contour>
        <pt x="647" y="0" on="1"/>
        <pt x="5" y="0" on="1"/>
        <pt x="5" y="10" on="1"/>
        <pt x="321" y="714" on="1"/>
        <pt x="331" y="714" on="1"/>
        <pt x="647" y="10" on="1"/>
      </contour>
      <contour>
        <pt x="498" y="50" on="1"/>
        <pt x="290" y="532" on="1"/>
        <pt x="79" y="50" on="1"/>
      </contour>
    </TTGlyph>
    <TTGlyph name="E" xMin="30" yMin="-1" xMax="713" yMax="719">
      <contour>
        <pt x="43" y="10" on="1"/>
        <pt x="69" y="10" on="0"/>
        <pt x="106" y="47" on="0"/>
        <pt x="107" y="73" on="1"/>
        <pt x="107" y="627" on="1"/>
        <pt x="106" y="659" on="0"/>
        <pt x="80" y="678" on="1"/>
        <pt x="64" y="690" on="0"/>
        <pt x="43" y="690" on="1"/>
        <pt x="30" y="690" on="1"/>
        <pt x="30" y="700" on="1"/>
        <pt x="363" y="700" on="1"/>
        <pt x="406" y="700" on="0"/>
        <pt x="473" y="714" on="0"/>
        <pt x="482" y="718" on="1"/>
        <pt x="482" y="512" on="1"/>
        <pt x="472" y="512" on="1"/>
        <pt x="472" y="520" on="1"/>
        <pt x="472" y="579" on="0"/>
        <pt x="406" y="647" on="0"/>
        <pt x="347" y="649" on="1"/>
        <pt x="312" y="649" on="1"/>
        <pt x="312" y="370" on="1"/>
        <pt x="451" y="370" on="1"/>
        <pt x="499" y="371" on="0"/>
        <pt x="559" y="432" on="0"/>
        <pt x="559" y="480" on="1"/>
        <pt x="559" y="484" on="1"/>
        <pt x="569" y="484" on="1"/>
        <pt x="569" y="206" on="1"/>
        <pt x="559" y="206" on="1"/>
        <pt x="559" y="211" on="1"/>
        <pt x="559" y="258" on="0"/>
        <pt x="499" y="319" on="0"/>
        <pt x="452" y="320" on="1"/>
        <pt x="312" y="320" on="1"/>
        <pt x="312" y="51" on="1"/>
        <pt x="495" y="51" on="1"/>
        <pt x="568" y="51" on="0"/>
        <pt x="680" y="147" on="0"/>
        <pt x="703" y="232" on="1"/>
        <pt x="713" y="232" on="1"/>
        <pt x="675" y="0" on="1"/>
        <pt x="30" y="0" on="1"/>
        <pt x="30" y="10" on="1"/>
      </contour>
    </TTGlyph>
    <TTGlyph name="Eacute" xMin="30" yMin="-1" xMax="713" yMax="954">
      <contour>
        <pt x="262" y="761" on="1"/>
        <pt x="255" y="768" on="1"/>
        <pt x="274" y="812" on="0"/>
        <pt x="367" y="917" on="0"/>
        <pt x="410" y="954" on="1"/>
        <pt x="474" y="927" on="0"/>
        <pt x="495" y="854" on="1"/>
        <pt x="445" y="821" on="0"/>
        <pt x="315" y="767" on="0"/>
      </contour>
      <contour>
        <pt x="43" y="10" on="1"/>
        <pt x="69" y="10" on="0"/>
        <pt x="106" y="47" on="0"/>
        <pt x="107" y="73" on="1"/>
        <pt x="107" y="627" on="1"/>
        <pt x="106" y="653" on="0"/>
        <pt x="69" y="690" on="0"/>
        <pt x="43" y="690" on="1"/>
        <pt x="30" y="690" on="1"/>
        <pt x="30" y="700" on="1"/>
        <pt x="363" y="700" on="1"/>
        <pt x="406" y="700" on="0"/>
        <pt x="473" y="714" on="0"/>
        <pt x="482" y="718" on="1"/>
        <pt x="482" y="512" on="1"/>
        <pt x="472" y="512" on="1"/>
        <pt x="472" y="520" on="1"/>
        <pt x="472" y="600" on="0"/>
        <pt x="414" y="632" on="1"/>
        <pt x="386" y="648" on="0"/>
        <pt x="347" y="649" on="1"/>
        <pt x="312" y="649" on="1"/>
        <pt x="312" y="370" on="1"/>
        <pt x="451" y="370" on="1"/>
        <pt x="499" y="371" on="0"/>
        <pt x="559" y="432" on="0"/>
        <pt x="559" y="480" on="1"/>
        <pt x="559" y="484" on="1"/>
        <pt x="569" y="484" on="1"/>
        <pt x="569" y="206" on="1"/>
        <pt x="559" y="206" on="1"/>
        <pt x="559" y="211" on="1"/>
        <pt x="559" y="258" on="0"/>
        <pt x="499" y="319" on="0"/>
        <pt x="452" y="320" on="1"/>
        <pt x="312" y="320" on="1"/>
        <pt x="312" y="51" on="1"/>
        <pt x="495" y="51" on="1"/>
        <pt x="568" y="51" on="0"/>
        <pt x="680" y="147" on="0"/>
        <pt x="703" y="232" on="1"/>
        <pt x="713" y="232" on="1"/>
        <pt x="675" y="0" on="1"/>
        <pt x="30" y="0" on="1"/>
        <pt x="30" y="10" on="1"/>
      </contour>
    </TTGlyph>
    <TTGlyph name="Ecaron" xMin="30" yMin="-1" xMax="713" yMax="948">
      <contour>
        <pt x="286" y="764" on="1"/>
        <pt x="274" y="764" on="1"/>
        <pt x="105" y="939" on="1"/>
        <pt x="112" y="947" on="1"/>
        <pt x="280" y="883" on="1"/>
        <pt x="438" y="947" on="1"/>
        <pt x="445" y="939" on="1"/>
      </contour>
      <contour>
        <pt x="43" y="10" on="1"/>
        <pt x="69" y="10" on="0"/>
        <pt x="106" y="47" on="0"/>
        <pt x="107" y="73" on="1"/>
        <pt x="107" y="627" on="1"/>
        <pt x="106" y="659" on="0"/>
        <pt x="80" y="678" on="1"/>
        <pt x="64" y="690" on="0"/>
        <pt x="43" y="690" on="1"/>
        <pt x="30" y="690" on="1"/>
        <pt x="30" y="700" on="1"/>
        <pt x="363" y="700" on="1"/>
        <pt x="406" y="700" on="0"/>
        <pt x="473" y="714" on="0"/>
        <pt x="482" y="718" on="1"/>
        <pt x="482" y="512" on="1"/>
        <pt x="472" y="512" on="1"/>
        <pt x="472" y="520" on="1"/>
        <pt x="472" y="579" on="0"/>
        <pt x="406" y="647" on="0"/>
        <pt x="347" y="649" on="1"/>
        <pt x="312" y="649" on="1"/>
        <pt x="312" y="370" on="1"/>
        <pt x="451" y="370" on="1"/>
        <pt x="499" y="371" on="0"/>
        <pt x="559" y="432" on="0"/>
        <pt x="559" y="480" on="1"/>
        <pt x="559" y="484" on="1"/>
        <pt x="569" y="484" on="1"/>
        <pt x="569" y="206" on="1"/>
        <pt x="559" y="206" on="1"/>
        <pt x="559" y="211" on="1"/>
        <pt x="559" y="258" on="0"/>
        <pt x="499" y="319" on="0"/>
        <pt x="452" y="320" on="1"/>
        <pt x="312" y="320" on="1"/>
        <pt x="312" y="51" on="1"/>
        <pt x="495" y="51" on="1"/>
        <pt x="568" y="51" on="0"/>
        <pt x="680" y="147" on="0"/>
        <pt x="703" y="232" on="1"/>
        <pt x="713" y="232" on="1"/>
        <pt x="675" y="0" on="1"/>
        <pt x="30" y="0" on="1"/>
        <pt x="30" y="10" on="1"/>
      </contour>
    </TTGlyph>
    <TTGlyph name="Ecircumflex" xMin="30" yMin="-1" xMax="713" yMax="932">
      <contour>
        <pt x="272" y="932" on="1"/>
        <pt x="284" y="932" on="1"/>
        <pt x="462" y="756" on="1"/>
        <pt x="455" y="748" on="1"/>
        <pt x="277" y="813" on="1"/>
        <pt x="110" y="748" on="1"/>
        <pt x="103" y="756" on="1"/>
      </contour>
      <contour>
        <pt x="43" y="10" on="1"/>
        <pt x="69" y="10" on="0"/>
        <pt x="106" y="47" on="0"/>
        <pt x="107" y="73" on="1"/>
        <pt x="107" y="627" on="1"/>
        <pt x="106" y="653" on="0"/>
        <pt x="69" y="690" on="0"/>
        <pt x="43" y="690" on="1"/>
        <pt x="30" y="690" on="1"/>
        <pt x="30" y="700" on="1"/>
        <pt x="363" y="700" on="1"/>
        <pt x="406" y="700" on="0"/>
        <pt x="473" y="714" on="0"/>
        <pt x="482" y="718" on="1"/>
        <pt x="482" y="512" on="1"/>
        <pt x="472" y="512" on="1"/>
        <pt x="472" y="520" on="1"/>
        <pt x="472" y="600" on="0"/>
        <pt x="414" y="632" on="1"/>
        <pt x="386" y="648" on="0"/>
        <pt x="347" y="649" on="1"/>
        <pt x="312" y="649" on="1"/>
        <pt x="312" y="370" on="1"/>
        <pt x="451" y="370" on="1"/>
        <pt x="499" y="371" on="0"/>
        <pt x="559" y="432" on="0"/>
        <pt x="559" y="480" on="1"/>
        <pt x="559" y="484" on="1"/>
        <pt x="569" y="484" on="1"/>
        <pt x="569" y="206" on="1"/>
        <pt x="559" y="206" on="1"/>
        <pt x="559" y="211" on="1"/>
        <pt x="559" y="258" on="0"/>
        <pt x="499" y="319" on="0"/>
        <pt x="452" y="320" on="1"/>
        <pt x="312" y="320" on="1"/>
        <pt x="312" y="51" on="1"/>
        <pt x="495" y="51" on="1"/>
        <pt x="568" y="51" on="0"/>
        <pt x="680" y="147" on="0"/>
        <pt x="703" y="232" on="1"/>
        <pt x="713" y="232" on="1"/>
        <pt x="675" y="0" on="1"/>
        <pt x="30" y="0" on="1"/>
        <pt x="30" y="10" on="1"/>
      </contour>
    </TTGlyph>
    <TTGlyph name="Edieresis" xMin="30" yMin="-1" xMax="713" yMax="903">
      <contour>
        <pt x="175" y="755" on="0"/>
        <pt x="114" y="755" on="0"/>
        <pt x="71" y="799" on="0"/>
        <pt x="71" y="860" on="0"/>
        <pt x="114" y="903" on="0"/>
        <pt x="175" y="903" on="0"/>
        <pt x="218" y="860" on="0"/>
        <pt x="218" y="799" on="0"/>
      </contour>
      <contour>
        <pt x="437" y="755" on="0"/>
        <pt x="376" y="755" on="0"/>
        <pt x="333" y="799" on="0"/>
        <pt x="333" y="860" on="0"/>
        <pt x="376" y="903" on="0"/>
        <pt x="437" y="903" on="0"/>
        <pt x="480" y="860" on="0"/>
        <pt x="480" y="799" on="0"/>
      </contour>
      <contour>
        <pt x="43" y="10" on="1"/>
        <pt x="69" y="10" on="0"/>
        <pt x="106" y="47" on="0"/>
        <pt x="107" y="73" on="1"/>
        <pt x="107" y="627" on="1"/>
        <pt x="106" y="653" on="0"/>
        <pt x="69" y="690" on="0"/>
        <pt x="43" y="690" on="1"/>
        <pt x="30" y="690" on="1"/>
        <pt x="30" y="700" on="1"/>
        <pt x="363" y="700" on="1"/>
        <pt x="394" y="700" on="0"/>
        <pt x="467" y="712" on="0"/>
        <pt x="482" y="718" on="1"/>
        <pt x="482" y="512" on="1"/>
        <pt x="472" y="512" on="1"/>
        <pt x="472" y="520" on="1"/>
        <pt x="472" y="600" on="0"/>
        <pt x="414" y="632" on="1"/>
        <pt x="386" y="648" on="0"/>
        <pt x="347" y="649" on="1"/>
        <pt x="312" y="649" on="1"/>
        <pt x="312" y="370" on="1"/>
        <pt x="451" y="370" on="1"/>
        <pt x="499" y="371" on="0"/>
        <pt x="559" y="432" on="0"/>
        <pt x="559" y="480" on="1"/>
        <pt x="559" y="484" on="1"/>
        <pt x="569" y="484" on="1"/>
        <pt x="569" y="206" on="1"/>
        <pt x="559" y="206" on="1"/>
        <pt x="559" y="211" on="1"/>
        <pt x="559" y="258" on="0"/>
        <pt x="499" y="319" on="0"/>
        <pt x="452" y="320" on="1"/>
        <pt x="312" y="320" on="1"/>
        <pt x="312" y="51" on="1"/>
        <pt x="495" y="51" on="1"/>
        <pt x="568" y="51" on="0"/>
        <pt x="680" y="147" on="0"/>
        <pt x="703" y="232" on="1"/>
        <pt x="713" y="232" on="1"/>
        <pt x="675" y="0" on="1"/>
        <pt x="30" y="0" on="1"/>
        <pt x="30" y="10" on="1"/>
      </contour>
    </TTGlyph>
    <TTGlyph name="Edotaccent" xMin="30" yMin="-1" xMax="713" yMax="912">
      <contour>
        <pt x="310" y="764" on="0"/>
        <pt x="249" y="764" on="0"/>
        <pt x="205" y="807" on="0"/>
        <pt x="205" y="868" on="0"/>
        <pt x="249" y="911" on="0"/>
        <pt x="310" y="911" on="0"/>
        <pt x="353" y="868" on="0"/>
        <pt x="353" y="807" on="0"/>
      </contour>
      <contour>
        <pt x="43" y="10" on="1"/>
        <pt x="69" y="10" on="0"/>
        <pt x="106" y="47" on="0"/>
        <pt x="107" y="73" on="1"/>
        <pt x="107" y="627" on="1"/>
        <pt x="106" y="659" on="0"/>
        <pt x="80" y="678" on="1"/>
        <pt x="64" y="690" on="0"/>
        <pt x="43" y="690" on="1"/>
        <pt x="30" y="690" on="1"/>
        <pt x="30" y="700" on="1"/>
        <pt x="363" y="700" on="1"/>
        <pt x="394" y="700" on="0"/>
        <pt x="467" y="712" on="0"/>
        <pt x="482" y="718" on="1"/>
        <pt x="482" y="512" on="1"/>
        <pt x="472" y="512" on="1"/>
        <pt x="472" y="520" on="1"/>
        <pt x="472" y="579" on="0"/>
        <pt x="406" y="647" on="0"/>
        <pt x="347" y="649" on="1"/>
        <pt x="312" y="649" on="1"/>
        <pt x="312" y="370" on="1"/>
        <pt x="451" y="370" on="1"/>
        <pt x="499" y="371" on="0"/>
        <pt x="559" y="432" on="0"/>
        <pt x="559" y="480" on="1"/>
        <pt x="559" y="484" on="1"/>
        <pt x="569" y="484" on="1"/>
        <pt x="569" y="206" on="1"/>
        <pt x="559" y="206" on="1"/>
        <pt x="559" y="211" on="1"/>
        <pt x="559" y="258" on="0"/>
        <pt x="499" y="319" on="0"/>
        <pt x="452" y="320" on="1"/>
        <pt x="312" y="320" on="1"/>
        <pt x="312" y="51" on="1"/>
        <pt x="495" y="51" on="1"/>
        <pt x="568" y="51" on="0"/>
        <pt x="680" y="147" on="0"/>
        <pt x="703" y="232" on="1"/>
        <pt x="713" y="232" on="1"/>
        <pt x="675" y="0" on="1"/>
        <pt x="30" y="0" on="1"/>
        <pt x="30" y="10" on="1"/>
      </contour>
    </TTGlyph>
    <TTGlyph name="Egrave" xMin="30" yMin="-1" xMax="713" yMax="957">
      <contour>
        <pt x="306" y="771" on="1"/>
        <pt x="299" y="764" on="1"/>
        <pt x="246" y="770" on="0"/>
        <pt x="116" y="824" on="0"/>
        <pt x="66" y="857" on="1"/>
        <pt x="87" y="930" on="0"/>
        <pt x="151" y="957" on="1"/>
        <pt x="213" y="904" on="0"/>
        <pt x="293" y="801" on="0"/>
      </contour>
      <contour>
        <pt x="43" y="10" on="1"/>
        <pt x="69" y="10" on="0"/>
        <pt x="106" y="47" on="0"/>
        <pt x="107" y="73" on="1"/>
        <pt x="107" y="627" on="1"/>
        <pt x="106" y="664" on="0"/>
        <pt x="75" y="682" on="1"/>
        <pt x="60" y="690" on="0"/>
        <pt x="43" y="690" on="1"/>
        <pt x="30" y="690" on="1"/>
        <pt x="30" y="700" on="1"/>
        <pt x="363" y="700" on="1"/>
        <pt x="394" y="700" on="0"/>
        <pt x="467" y="712" on="0"/>
        <pt x="482" y="718" on="1"/>
        <pt x="482" y="512" on="1"/>
        <pt x="472" y="512" on="1"/>
        <pt x="472" y="520" on="1"/>
        <pt x="472" y="600" on="0"/>
        <pt x="414" y="632" on="1"/>
        <pt x="386" y="648" on="0"/>
        <pt x="347" y="649" on="1"/>
        <pt x="312" y="649" on="1"/>
        <pt x="312" y="370" on="1"/>
        <pt x="451" y="370" on="1"/>
        <pt x="499" y="371" on="0"/>
        <pt x="559" y="432" on="0"/>
        <pt x="559" y="480" on="1"/>
        <pt x="559" y="484" on="1"/>
        <pt x="569" y="484" on="1"/>
        <pt x="569" y="206" on="1"/>
        <pt x="559" y="206" on="1"/>
        <pt x="559" y="211" on="1"/>
        <pt x="559" y="258" on="0"/>
        <pt x="499" y="319" on="0"/>
        <pt x="452" y="320" on="1"/>
        <pt x="312" y="320" on="1"/>
        <pt x="312" y="51" on="1"/>
        <pt x="495" y="51" on="1"/>
        <pt x="568" y="51" on="0"/>
        <pt x="680" y="147" on="0"/>
        <pt x="703" y="232" on="1"/>
        <pt x="713" y="232" on="1"/>
        <pt x="675" y="0" on="1"/>
        <pt x="30" y="0" on="1"/>
        <pt x="30" y="10" on="1"/>
      </contour>
    </TTGlyph>
    <TTGlyph name="Emacron" xMin="30" yMin="-1" xMax="713" yMax="881">
      <contour>
        <pt x="137" y="795" on="1"/>
        <pt x="137" y="880" on="1"/>
        <pt x="427" y="880" on="1"/>
        <pt x="427" y="795" on="1"/>
      </contour>
      <contour>
        <pt x="43" y="10" on="1"/>
        <pt x="69" y="10" on="0"/>
        <pt x="106" y="47" on="0"/>
        <pt x="107" y="73" on="1"/>
        <pt x="107" y="627" on="1"/>
        <pt x="106" y="659" on="0"/>
        <pt x="80" y="678" on="1"/>
        <pt x="64" y="690" on="0"/>
        <pt x="43" y="690" on="1"/>
        <pt x="30" y="690" on="1"/>
        <pt x="30" y="700" on="1"/>
        <pt x="363" y="700" on="1"/>
        <pt x="406" y="700" on="0"/>
        <pt x="473" y="714" on="0"/>
        <pt x="482" y="718" on="1"/>
        <pt x="482" y="512" on="1"/>
        <pt x="472" y="512" on="1"/>
        <pt x="472" y="520" on="1"/>
        <pt x="472" y="579" on="0"/>
        <pt x="406" y="647" on="0"/>
        <pt x="347" y="649" on="1"/>
        <pt x="312" y="649" on="1"/>
        <pt x="312" y="370" on="1"/>
        <pt x="451" y="370" on="1"/>
        <pt x="499" y="371" on="0"/>
        <pt x="559" y="432" on="0"/>
        <pt x="559" y="480" on="1"/>
        <pt x="559" y="484" on="1"/>
        <pt x="569" y="484" on="1"/>
        <pt x="569" y="206" on="1"/>
        <pt x="559" y="206" on="1"/>
        <pt x="559" y="211" on="1"/>
        <pt x="559" y="258" on="0"/>
        <pt x="499" y="319" on="0"/>
        <pt x="452" y="320" on="1"/>
        <pt x="312" y="320" on="1"/>
        <pt x="312" y="51" on="1"/>
        <pt x="495" y="51" on="1"/>
        <pt x="568" y="51" on="0"/>
        <pt x="680" y="147" on="0"/>
        <pt x="703" y="232" on="1"/>
        <pt x="713" y="232" on="1"/>
        <pt x="675" y="0" on="1"/>
        <pt x="30" y="0" on="1"/>
        <pt x="30" y="10" on="1"/>
      </contour>
    </TTGlyph>
    <TTGlyph name="Eng" xMin="-300" yMin="-208" xMax="862" yMax="869">
      <contour>
        <pt x="-299" y="829" on="1"/>
        <pt x="-243" y="869" on="0"/>
        <pt x="-178" y="869" on="1"/>
        <pt x="-135" y="869" on="0"/>
        <pt x="-46" y="836" on="0"/>
        <pt x="-13" y="815" on="1"/>
        <pt x="50" y="774" on="0"/>
        <pt x="97" y="725" on="1"/>
        <pt x="586" y="283" on="1"/>
        <pt x="586" y="629" on="1"/>
        <pt x="585" y="655" on="0"/>
        <pt x="549" y="690" on="0"/>
        <pt x="524" y="690" on="1"/>
        <pt x="505" y="690" on="1"/>
        <pt x="505" y="700" on="1"/>
        <pt x="781" y="700" on="1"/>
        <pt x="861" y="700" on="1"/>
        <pt x="861" y="690" on="1"/>
        <pt x="843" y="690" on="1"/>
        <pt x="819" y="690" on="0"/>
        <pt x="785" y="658" on="0"/>
        <pt x="785" y="635" on="1"/>
        <pt x="785" y="-4" on="1"/>
        <pt x="785" y="-76" on="0"/>
        <pt x="746" y="-128" on="1"/>
        <pt x="684" y="-208" on="0"/>
        <pt x="573" y="-208" on="1"/>
        <pt x="539" y="-208" on="0"/>
        <pt x="503" y="-199" on="1"/>
        <pt x="498" y="-191" on="1"/>
        <pt x="527" y="-168" on="0"/>
        <pt x="553" y="-139" on="0"/>
        <pt x="578" y="-88" on="0"/>
        <pt x="586" y="-16" on="0"/>
        <pt x="586" y="42" on="1"/>
        <pt x="586" y="166" on="1"/>
        <pt x="296" y="428" on="1"/>
        <pt x="296" y="71" on="1"/>
        <pt x="296" y="36" on="0"/>
        <pt x="327" y="18" on="1"/>
        <pt x="341" y="10" on="0"/>
        <pt x="357" y="10" on="1"/>
        <pt x="376" y="10" on="1"/>
        <pt x="376" y="0" on="1"/>
        <pt x="20" y="0" on="1"/>
        <pt x="20" y="10" on="1"/>
        <pt x="39" y="10" on="1"/>
        <pt x="63" y="10" on="0"/>
        <pt x="97" y="42" on="0"/>
        <pt x="97" y="65" on="1"/>
        <pt x="97" y="609" on="1"/>
        <pt x="35" y="676" on="0"/>
        <pt x="-3" y="708" on="0"/>
        <pt x="-51" y="751" on="0"/>
        <pt x="-88" y="774" on="0"/>
        <pt x="-112" y="790" on="1"/>
        <pt x="-146" y="812" on="0"/>
        <pt x="-221" y="830" on="0"/>
        <pt x="-267" y="830" on="0"/>
        <pt x="-294" y="820" on="1"/>
      </contour>
    </TTGlyph>
    <TTGlyph name="Eogonek" xMin="30" yMin="-214" xMax="728" yMax="719">
      <contour>
        <pt x="727" y="-126" on="1"/>
        <pt x="721" y="-213" on="0"/>
        <pt x="623" y="-213" on="1"/>
        <pt x="598" y="-213" on="0"/>
        <pt x="566" y="-191" on="1"/>
        <pt x="522" y="-160" on="0"/>
        <pt x="522" y="-108" on="1"/>
        <pt x="522" y="-58" on="0"/>
        <pt x="577" y="-7" on="0"/>
        <pt x="611" y="0" on="1"/>
        <pt x="30" y="0" on="1"/>
        <pt x="30" y="10" on="1"/>
        <pt x="43" y="10" on="1"/>
        <pt x="69" y="10" on="0"/>
        <pt x="106" y="47" on="0"/>
        <pt x="107" y="73" on="1"/>
        <pt x="107" y="627" on="1"/>
        <pt x="106" y="659" on="0"/>
        <pt x="80" y="678" on="1"/>
        <pt x="64" y="690" on="0"/>
        <pt x="43" y="690" on="1"/>
        <pt x="30" y="690" on="1"/>
        <pt x="30" y="700" on="1"/>
        <pt x="363" y="700" on="1"/>
        <pt x="406" y="700" on="0"/>
        <pt x="473" y="714" on="0"/>
        <pt x="482" y="718" on="1"/>
        <pt x="482" y="512" on="1"/>
        <pt x="472" y="512" on="1"/>
        <pt x="472" y="520" on="1"/>
        <pt x="472" y="579" on="0"/>
        <pt x="406" y="647" on="0"/>
        <pt x="347" y="649" on="1"/>
        <pt x="312" y="649" on="1"/>
        <pt x="312" y="370" on="1"/>
        <pt x="451" y="370" on="1"/>
        <pt x="499" y="371" on="0"/>
        <pt x="559" y="432" on="0"/>
        <pt x="559" y="480" on="1"/>
        <pt x="559" y="484" on="1"/>
        <pt x="569" y="484" on="1"/>
        <pt x="569" y="206" on="1"/>
        <pt x="559" y="206" on="1"/>
        <pt x="559" y="211" on="1"/>
        <pt x="559" y="258" on="0"/>
        <pt x="499" y="319" on="0"/>
        <pt x="452" y="320" on="1"/>
        <pt x="312" y="320" on="1"/>
        <pt x="312" y="51" on="1"/>
        <pt x="495" y="51" on="1"/>
        <pt x="568" y="51" on="0"/>
        <pt x="680" y="147" on="0"/>
        <pt x="703" y="232" on="1"/>
        <pt x="713" y="232" on="1"/>
        <pt x="675" y="0" on="1"/>
        <pt x="673" y="0" on="1"/>
        <pt x="609" y="-15" on="0"/>
        <pt x="609" y="-69" on="1"/>
        <pt x="609" y="-122" on="0"/>
        <pt x="648" y="-137" on="1"/>
        <pt x="659" y="-141" on="0"/>
        <pt x="695" y="-141" on="0"/>
        <pt x="721" y="-120" on="1"/>
      </contour>
    </TTGlyph>
    <TTGlyph name="Eth" xMin="-101" yMin="-1" xMax="844" yMax="700">
      <contour>
        <pt x="445" y="0" on="1"/>
        <pt x="66" y="0" on="1"/>
        <pt x="66" y="10" on="1"/>
        <pt x="79" y="10" on="1"/>
        <pt x="105" y="10" on="0"/>
        <pt x="142" y="47" on="0"/>
        <pt x="143" y="73" on="1"/>
        <pt x="143" y="325" on="1"/>
        <pt x="66" y="325" on="1"/>
        <pt x="66" y="375" on="1"/>
        <pt x="143" y="375" on="1"/>
        <pt x="143" y="644" on="1"/>
        <pt x="38" y="633" on="0"/>
        <pt x="-16" y="585" on="1"/>
        <pt x="-62" y="544" on="0"/>
        <pt x="-90" y="480" on="1"/>
        <pt x="-100" y="484" on="1"/>
        <pt x="-80" y="592" on="0"/>
        <pt x="87" y="700" on="0"/>
        <pt x="213" y="700" on="1"/>
        <pt x="445" y="700" on="1"/>
        <pt x="633" y="700" on="0"/>
        <pt x="844" y="515" on="0"/>
        <pt x="844" y="185" on="0"/>
        <pt x="632" y="0" on="0"/>
      </contour>
      <contour>
        <pt x="348" y="325" on="1"/>
        <pt x="348" y="50" on="1"/>
        <pt x="425" y="50" on="1"/>
        <pt x="425" y="50" on="0"/>
        <pt x="425" y="50" on="1"/>
        <pt x="518" y="50" on="0"/>
        <pt x="624" y="209" on="0"/>
        <pt x="624" y="491" on="0"/>
        <pt x="518" y="650" on="0"/>
        <pt x="425" y="650" on="1"/>
        <pt x="348" y="648" on="1"/>
        <pt x="348" y="375" on="1"/>
        <pt x="456" y="375" on="1"/>
        <pt x="456" y="325" on="1"/>
      </contour>
    </TTGlyph>
    <TTGlyph name="Euro" xMin="-40" yMin="-14" xMax="677" yMax="714">
      <contour>
        <pt x="447" y="-13" on="1"/>
        <pt x="305" y="-13" on="0"/>
        <pt x="107" y="139" on="0"/>
        <pt x="79" y="264" on="1"/>
        <pt x="-40" y="264" on="1"/>
        <pt x="-21" y="314" on="1"/>
        <pt x="71" y="314" on="1"/>
        <pt x="68" y="349" on="0"/>
        <pt x="71" y="384" on="1"/>
        <pt x="-40" y="384" on="1"/>
        <pt x="-22" y="434" on="1"/>
        <pt x="78" y="434" on="1"/>
        <pt x="96" y="516" on="0"/>
        <pt x="195" y="642" on="0"/>
        <pt x="353" y="714" on="0"/>
        <pt x="517" y="714" on="0"/>
        <pt x="653" y="684" on="0"/>
        <pt x="676" y="655" on="1"/>
        <pt x="623" y="500" on="1"/>
        <pt x="613" y="500" on="1"/>
        <pt x="614" y="505" on="0"/>
        <pt x="614" y="549" on="0"/>
        <pt x="590" y="612" on="0"/>
        <pt x="568" y="630" on="1"/>
        <pt x="525" y="664" on="0"/>
        <pt x="467" y="664" on="1"/>
        <pt x="313" y="664" on="0"/>
        <pt x="289" y="434" on="1"/>
        <pt x="601" y="434" on="1"/>
        <pt x="583" y="384" on="1"/>
        <pt x="285" y="384" on="1"/>
        <pt x="285" y="314" on="1"/>
        <pt x="560" y="314" on="1"/>
        <pt x="544" y="264" on="1"/>
        <pt x="289" y="264" on="1"/>
        <pt x="314" y="37" on="0"/>
        <pt x="481" y="37" on="1"/>
        <pt x="554" y="37" on="0"/>
        <pt x="642" y="124" on="0"/>
        <pt x="667" y="214" on="1"/>
        <pt x="676" y="214" on="1"/>
        <pt x="676" y="49" on="1"/>
        <pt x="647" y="19" on="0"/>
        <pt x="513" y="-13" on="0"/>
      </contour>
    </TTGlyph>
    <TTGlyph name="F" xMin="29" yMin="-1" xMax="700" yMax="719">
      <contour>
        <pt x="312" y="320" on="1"/>
        <pt x="312" y="73" on="1"/>
        <pt x="312" y="47" on="0"/>
        <pt x="350" y="10" on="0"/>
        <pt x="376" y="10" on="1"/>
        <pt x="389" y="10" on="1"/>
        <pt x="389" y="0" on="1"/>
        <pt x="30" y="0" on="1"/>
        <pt x="30" y="10" on="1"/>
        <pt x="43" y="10" on="1"/>
        <pt x="69" y="10" on="0"/>
        <pt x="106" y="47" on="0"/>
        <pt x="107" y="73" on="1"/>
        <pt x="107" y="627" on="1"/>
        <pt x="106" y="654" on="0"/>
        <pt x="69" y="690" on="0"/>
        <pt x="43" y="690" on="1"/>
        <pt x="30" y="690" on="1"/>
        <pt x="30" y="700" on="1"/>
        <pt x="473" y="700" on="1"/>
        <pt x="504" y="700" on="0"/>
        <pt x="577" y="712" on="0"/>
        <pt x="592" y="718" on="1"/>
        <pt x="592" y="512" on="1"/>
        <pt x="582" y="512" on="1"/>
        <pt x="582" y="520" on="1"/>
        <pt x="582" y="579" on="0"/>
        <pt x="516" y="647" on="0"/>
        <pt x="457" y="649" on="1"/>
        <pt x="312" y="649" on="1"/>
        <pt x="312" y="370" on="1"/>
        <pt x="581" y="370" on="1"/>
        <pt x="629" y="371" on="0"/>
        <pt x="689" y="432" on="0"/>
        <pt x="689" y="480" on="1"/>
        <pt x="689" y="484" on="1"/>
        <pt x="699" y="484" on="1"/>
        <pt x="699" y="206" on="1"/>
        <pt x="689" y="206" on="1"/>
        <pt x="689" y="211" on="1"/>
        <pt x="689" y="258" on="0"/>
        <pt x="629" y="319" on="0"/>
        <pt x="582" y="320" on="1"/>
      </contour>
    </TTGlyph>
    <TTGlyph name="G" xMin="10" yMin="-213" xMax="1118" yMax="715">
      <contour>
        <pt x="947" y="-212" on="1"/>
        <pt x="923" y="-212" on="0"/>
        <pt x="899" y="-209" on="1"/>
        <pt x="799" y="-193" on="0"/>
        <pt x="653" y="-75" on="0"/>
        <pt x="617" y="13" on="1"/>
        <pt x="530" y="-14" on="0"/>
        <pt x="434" y="-14" on="1"/>
        <pt x="245" y="-14" on="0"/>
        <pt x="10" y="187" on="0"/>
        <pt x="10" y="515" on="0"/>
        <pt x="250" y="714" on="0"/>
        <pt x="446" y="714" on="1"/>
        <pt x="559" y="714" on="0"/>
        <pt x="666" y="691" on="1"/>
        <pt x="714" y="681" on="0"/>
        <pt x="744" y="669" on="1"/>
        <pt x="734" y="477" on="1"/>
        <pt x="725" y="477" on="1"/>
        <pt x="701" y="571" on="0"/>
        <pt x="560" y="664" on="0"/>
        <pt x="360" y="664" on="0"/>
        <pt x="230" y="488" on="0"/>
        <pt x="230" y="344" on="1"/>
        <pt x="230" y="253" on="0"/>
        <pt x="286" y="113" on="0"/>
        <pt x="390" y="36" on="0"/>
        <pt x="517" y="36" on="0"/>
        <pt x="590" y="95" on="0"/>
        <pt x="590" y="143" on="1"/>
        <pt x="590" y="279" on="1"/>
        <pt x="591" y="301" on="0"/>
        <pt x="564" y="325" on="0"/>
        <pt x="539" y="325" on="1"/>
        <pt x="524" y="325" on="1"/>
        <pt x="524" y="335" on="1"/>
        <pt x="860" y="335" on="1"/>
        <pt x="860" y="325" on="1"/>
        <pt x="844" y="325" on="1"/>
        <pt x="820" y="325" on="0"/>
        <pt x="794" y="301" on="0"/>
        <pt x="795" y="279" on="1"/>
        <pt x="795" y="117" on="1"/>
        <pt x="795" y="59" on="0"/>
        <pt x="818" y="2" on="1"/>
        <pt x="870" y="-124" on="0"/>
        <pt x="984" y="-160" on="1"/>
        <pt x="1017" y="-170" on="0"/>
        <pt x="1083" y="-170" on="0"/>
        <pt x="1115" y="-163" on="1"/>
        <pt x="1117" y="-173" on="1"/>
        <pt x="1027" y="-212" on="0"/>
      </contour>
    </TTGlyph>
    <TTGlyph name="Gbreve" xMin="9" yMin="-213" xMax="1118" yMax="928">
      <contour>
        <pt x="570" y="897" on="1"/>
        <pt x="570" y="851" on="0"/>
        <pt x="537" y="814" on="1"/>
        <pt x="494" y="764" on="0"/>
        <pt x="359" y="764" on="0"/>
        <pt x="316" y="814" on="1"/>
        <pt x="284" y="852" on="0"/>
        <pt x="284" y="897" on="1"/>
        <pt x="284" y="912" on="0"/>
        <pt x="287" y="928" on="1"/>
        <pt x="300" y="928" on="1"/>
        <pt x="319" y="884" on="0"/>
        <pt x="384" y="869" on="1"/>
        <pt x="405" y="864" on="0"/>
        <pt x="470" y="864" on="0"/>
        <pt x="542" y="900" on="0"/>
        <pt x="554" y="928" on="1"/>
        <pt x="566" y="928" on="1"/>
        <pt x="570" y="912" on="0"/>
      </contour>
      <contour>
        <pt x="947" y="-212" on="1"/>
        <pt x="923" y="-212" on="0"/>
        <pt x="899" y="-209" on="1"/>
        <pt x="799" y="-193" on="0"/>
        <pt x="653" y="-75" on="0"/>
        <pt x="617" y="13" on="1"/>
        <pt x="530" y="-14" on="0"/>
        <pt x="434" y="-14" on="1"/>
        <pt x="245" y="-14" on="0"/>
        <pt x="10" y="187" on="0"/>
        <pt x="10" y="515" on="0"/>
        <pt x="250" y="714" on="0"/>
        <pt x="446" y="714" on="1"/>
        <pt x="527" y="714" on="0"/>
        <pt x="699" y="687" on="0"/>
        <pt x="744" y="669" on="1"/>
        <pt x="734" y="477" on="1"/>
        <pt x="725" y="477" on="1"/>
        <pt x="701" y="571" on="0"/>
        <pt x="560" y="664" on="0"/>
        <pt x="360" y="664" on="0"/>
        <pt x="230" y="488" on="0"/>
        <pt x="230" y="344" on="1"/>
        <pt x="230" y="253" on="0"/>
        <pt x="286" y="113" on="0"/>
        <pt x="390" y="36" on="0"/>
        <pt x="517" y="36" on="0"/>
        <pt x="590" y="95" on="0"/>
        <pt x="590" y="143" on="1"/>
        <pt x="590" y="279" on="1"/>
        <pt x="590" y="301" on="0"/>
        <pt x="564" y="325" on="0"/>
        <pt x="539" y="325" on="1"/>
        <pt x="524" y="325" on="1"/>
        <pt x="524" y="335" on="1"/>
        <pt x="860" y="335" on="1"/>
        <pt x="860" y="325" on="1"/>
        <pt x="844" y="325" on="1"/>
        <pt x="820" y="325" on="0"/>
        <pt x="794" y="301" on="0"/>
        <pt x="795" y="279" on="1"/>
        <pt x="795" y="117" on="1"/>
        <pt x="795" y="59" on="0"/>
        <pt x="818" y="2" on="1"/>
        <pt x="870" y="-124" on="0"/>
        <pt x="984" y="-160" on="1"/>
        <pt x="1017" y="-170" on="0"/>
        <pt x="1083" y="-170" on="0"/>
        <pt x="1115" y="-163" on="1"/>
        <pt x="1117" y="-173" on="1"/>
        <pt x="1027" y="-212" on="0"/>
      </contour>
    </TTGlyph>
    <TTGlyph name="Gcommaaccent" xMin="10" yMin="-275" xMax="1118" yMax="715">
      <contour>
        <pt x="947" y="-212" on="1"/>
        <pt x="923" y="-212" on="0"/>
        <pt x="899" y="-209" on="1"/>
        <pt x="799" y="-193" on="0"/>
        <pt x="653" y="-75" on="0"/>
        <pt x="617" y="13" on="1"/>
        <pt x="530" y="-14" on="0"/>
        <pt x="434" y="-14" on="1"/>
        <pt x="245" y="-14" on="0"/>
        <pt x="10" y="187" on="0"/>
        <pt x="10" y="515" on="0"/>
        <pt x="250" y="714" on="0"/>
        <pt x="446" y="714" on="1"/>
        <pt x="559" y="714" on="0"/>
        <pt x="666" y="691" on="1"/>
        <pt x="714" y="681" on="0"/>
        <pt x="744" y="669" on="1"/>
        <pt x="734" y="477" on="1"/>
        <pt x="725" y="477" on="1"/>
        <pt x="701" y="571" on="0"/>
        <pt x="560" y="664" on="0"/>
        <pt x="360" y="664" on="0"/>
        <pt x="230" y="488" on="0"/>
        <pt x="230" y="344" on="1"/>
        <pt x="230" y="253" on="0"/>
        <pt x="286" y="113" on="0"/>
        <pt x="390" y="36" on="0"/>
        <pt x="517" y="36" on="0"/>
        <pt x="590" y="95" on="0"/>
        <pt x="590" y="143" on="1"/>
        <pt x="590" y="279" on="1"/>
        <pt x="591" y="301" on="0"/>
        <pt x="564" y="325" on="0"/>
        <pt x="539" y="325" on="1"/>
        <pt x="524" y="325" on="1"/>
        <pt x="524" y="335" on="1"/>
        <pt x="860" y="335" on="1"/>
        <pt x="860" y="325" on="1"/>
        <pt x="844" y="325" on="1"/>
        <pt x="820" y="325" on="0"/>
        <pt x="794" y="301" on="0"/>
        <pt x="795" y="279" on="1"/>
        <pt x="795" y="117" on="1"/>
        <pt x="795" y="59" on="0"/>
        <pt x="818" y="2" on="1"/>
        <pt x="870" y="-124" on="0"/>
        <pt x="984" y="-160" on="1"/>
        <pt x="1017" y="-170" on="0"/>
        <pt x="1083" y="-170" on="0"/>
        <pt x="1115" y="-163" on="1"/>
        <pt x="1117" y="-173" on="1"/>
        <pt x="1027" y="-212" on="0"/>
      </contour>
      <contour>
        <pt x="394" y="-264" on="1"/>
        <pt x="426" y="-250" on="0"/>
        <pt x="426" y="-195" on="0"/>
        <pt x="390" y="-154" on="0"/>
        <pt x="390" y="-128" on="1"/>
        <pt x="390" y="-93" on="0"/>
        <pt x="413" y="-76" on="1"/>
        <pt x="429" y="-64" on="0"/>
        <pt x="444" y="-64" on="1"/>
        <pt x="495" y="-64" on="0"/>
        <pt x="514" y="-105" on="1"/>
        <pt x="525" y="-128" on="0"/>
        <pt x="525" y="-160" on="0"/>
        <pt x="518" y="-201" on="0"/>
        <pt x="485" y="-252" on="0"/>
        <pt x="437" y="-275" on="0"/>
        <pt x="406" y="-275" on="0"/>
        <pt x="397" y="-273" on="1"/>
      </contour>
    </TTGlyph>
    <TTGlyph name="Gdotaccent" xMin="10" yMin="-213" xMax="1118" yMax="912">
      <contour>
        <pt x="458" y="764" on="0"/>
        <pt x="396" y="764" on="0"/>
        <pt x="353" y="807" on="0"/>
        <pt x="353" y="868" on="0"/>
        <pt x="396" y="911" on="0"/>
        <pt x="458" y="911" on="0"/>
        <pt x="501" y="868" on="0"/>
        <pt x="501" y="807" on="0"/>
      </contour>
      <contour>
        <pt x="947" y="-212" on="1"/>
        <pt x="923" y="-212" on="0"/>
        <pt x="899" y="-209" on="1"/>
        <pt x="799" y="-193" on="0"/>
        <pt x="653" y="-75" on="0"/>
        <pt x="617" y="13" on="1"/>
        <pt x="530" y="-14" on="0"/>
        <pt x="434" y="-14" on="1"/>
        <pt x="245" y="-14" on="0"/>
        <pt x="10" y="187" on="0"/>
        <pt x="10" y="515" on="0"/>
        <pt x="250" y="714" on="0"/>
        <pt x="446" y="714" on="1"/>
        <pt x="559" y="714" on="0"/>
        <pt x="666" y="691" on="1"/>
        <pt x="714" y="681" on="0"/>
        <pt x="744" y="669" on="1"/>
        <pt x="734" y="477" on="1"/>
        <pt x="725" y="477" on="1"/>
        <pt x="701" y="571" on="0"/>
        <pt x="560" y="664" on="0"/>
        <pt x="360" y="664" on="0"/>
        <pt x="230" y="488" on="0"/>
        <pt x="230" y="344" on="1"/>
        <pt x="230" y="253" on="0"/>
        <pt x="286" y="113" on="0"/>
        <pt x="390" y="36" on="0"/>
        <pt x="517" y="36" on="0"/>
        <pt x="590" y="95" on="0"/>
        <pt x="590" y="143" on="1"/>
        <pt x="590" y="279" on="1"/>
        <pt x="591" y="301" on="0"/>
        <pt x="564" y="325" on="0"/>
        <pt x="539" y="325" on="1"/>
        <pt x="524" y="325" on="1"/>
        <pt x="524" y="335" on="1"/>
        <pt x="860" y="335" on="1"/>
        <pt x="860" y="325" on="1"/>
        <pt x="844" y="325" on="1"/>
        <pt x="820" y="325" on="0"/>
        <pt x="794" y="301" on="0"/>
        <pt x="795" y="279" on="1"/>
        <pt x="795" y="117" on="1"/>
        <pt x="795" y="59" on="0"/>
        <pt x="818" y="2" on="1"/>
        <pt x="870" y="-124" on="0"/>
        <pt x="984" y="-160" on="1"/>
        <pt x="1017" y="-170" on="0"/>
        <pt x="1083" y="-170" on="0"/>
        <pt x="1115" y="-163" on="1"/>
        <pt x="1117" y="-173" on="1"/>
        <pt x="1027" y="-212" on="0"/>
      </contour>
    </TTGlyph>
    <TTGlyph name="H" xMin="-25" yMin="-201" xMax="914" yMax="872">
      <contour>
        <pt x="515" y="10" on="1"/>
        <pt x="542" y="10" on="0"/>
        <pt x="579" y="47" on="0"/>
        <pt x="580" y="73" on="1"/>
        <pt x="580" y="325" on="1"/>
        <pt x="312" y="325" on="1"/>
        <pt x="312" y="70" on="1"/>
        <pt x="312" y="-29" on="0"/>
        <pt x="264" y="-106" on="1"/>
        <pt x="214" y="-187" on="0"/>
        <pt x="105" y="-199" on="1"/>
        <pt x="94" y="-201" on="0"/>
        <pt x="81" y="-201" on="1"/>
        <pt x="34" y="-201" on="0"/>
        <pt x="-24" y="-182" on="1"/>
        <pt x="-24" y="-172" on="1"/>
        <pt x="56" y="-141" on="0"/>
        <pt x="82" y="-86" on="1"/>
        <pt x="100" y="-49" on="0"/>
        <pt x="103" y="-19" on="1"/>
        <pt x="107" y="20" on="0"/>
        <pt x="107" y="70" on="1"/>
        <pt x="107" y="628" on="1"/>
        <pt x="106" y="654" on="0"/>
        <pt x="69" y="690" on="0"/>
        <pt x="43" y="690" on="1"/>
        <pt x="30" y="690" on="1"/>
        <pt x="30" y="700" on="1"/>
        <pt x="389" y="700" on="1"/>
        <pt x="389" y="690" on="1"/>
        <pt x="376" y="690" on="1"/>
        <pt x="340" y="690" on="0"/>
        <pt x="322" y="660" on="1"/>
        <pt x="313" y="646" on="0"/>
        <pt x="312" y="629" on="1"/>
        <pt x="312" y="375" on="1"/>
        <pt x="580" y="375" on="1"/>
        <pt x="580" y="610" on="1"/>
        <pt x="580" y="667" on="0"/>
        <pt x="628" y="773" on="0"/>
        <pt x="672" y="811" on="1"/>
        <pt x="741" y="872" on="0"/>
        <pt x="836" y="872" on="1"/>
        <pt x="873" y="872" on="0"/>
        <pt x="914" y="862" on="1"/>
        <pt x="914" y="852" on="1"/>
        <pt x="866" y="837" on="0"/>
        <pt x="832" y="803" on="1"/>
        <pt x="811" y="783" on="0"/>
        <pt x="795" y="731" on="1"/>
        <pt x="787" y="705" on="0"/>
        <pt x="785" y="638" on="0"/>
        <pt x="785" y="610" on="1"/>
        <pt x="785" y="73" on="1"/>
        <pt x="785" y="38" on="0"/>
        <pt x="816" y="19" on="1"/>
        <pt x="831" y="10" on="0"/>
        <pt x="849" y="10" on="1"/>
        <pt x="861" y="10" on="1"/>
        <pt x="861" y="0" on="1"/>
        <pt x="503" y="0" on="1"/>
        <pt x="503" y="10" on="1"/>
      </contour>
    </TTGlyph>
    <TTGlyph name="Hbar" xMin="-25" yMin="-201" xMax="914" yMax="872">
      <contour>
        <pt x="785" y="538" on="1"/>
        <pt x="853" y="538" on="1"/>
        <pt x="853" y="488" on="1"/>
        <pt x="785" y="488" on="1"/>
        <pt x="785" y="73" on="1"/>
        <pt x="785" y="38" on="0"/>
        <pt x="816" y="19" on="1"/>
        <pt x="831" y="10" on="0"/>
        <pt x="849" y="10" on="1"/>
        <pt x="861" y="10" on="1"/>
        <pt x="861" y="0" on="1"/>
        <pt x="503" y="0" on="1"/>
        <pt x="503" y="10" on="1"/>
        <pt x="515" y="10" on="1"/>
        <pt x="542" y="10" on="0"/>
        <pt x="579" y="47" on="0"/>
        <pt x="580" y="73" on="1"/>
        <pt x="580" y="325" on="1"/>
        <pt x="312" y="325" on="1"/>
        <pt x="312" y="70" on="1"/>
        <pt x="312" y="-29" on="0"/>
        <pt x="264" y="-106" on="1"/>
        <pt x="214" y="-187" on="0"/>
        <pt x="105" y="-199" on="1"/>
        <pt x="94" y="-201" on="0"/>
        <pt x="81" y="-201" on="1"/>
        <pt x="34" y="-201" on="0"/>
        <pt x="-24" y="-182" on="1"/>
        <pt x="-24" y="-172" on="1"/>
        <pt x="56" y="-141" on="0"/>
        <pt x="82" y="-86" on="1"/>
        <pt x="100" y="-49" on="0"/>
        <pt x="103" y="-19" on="1"/>
        <pt x="107" y="20" on="0"/>
        <pt x="107" y="70" on="1"/>
        <pt x="107" y="488" on="1"/>
        <pt x="42" y="488" on="1"/>
        <pt x="42" y="538" on="1"/>
        <pt x="107" y="538" on="1"/>
        <pt x="107" y="628" on="1"/>
        <pt x="106" y="654" on="0"/>
        <pt x="69" y="690" on="0"/>
        <pt x="43" y="690" on="1"/>
        <pt x="30" y="690" on="1"/>
        <pt x="30" y="700" on="1"/>
        <pt x="389" y="700" on="1"/>
        <pt x="389" y="690" on="1"/>
        <pt x="376" y="690" on="1"/>
        <pt x="340" y="690" on="0"/>
        <pt x="322" y="660" on="1"/>
        <pt x="313" y="646" on="0"/>
        <pt x="312" y="629" on="1"/>
        <pt x="312" y="538" on="1"/>
        <pt x="580" y="538" on="1"/>
        <pt x="580" y="610" on="1"/>
        <pt x="580" y="667" on="0"/>
        <pt x="628" y="773" on="0"/>
        <pt x="672" y="811" on="1"/>
        <pt x="741" y="872" on="0"/>
        <pt x="836" y="872" on="1"/>
        <pt x="873" y="872" on="0"/>
        <pt x="914" y="862" on="1"/>
        <pt x="914" y="852" on="1"/>
        <pt x="850" y="832" on="0"/>
        <pt x="823" y="791" on="1"/>
        <pt x="802" y="759" on="0"/>
        <pt x="792" y="716" on="0"/>
        <pt x="788" y="693" on="0"/>
        <pt x="787" y="672" on="1"/>
        <pt x="785" y="647" on="0"/>
        <pt x="785" y="610" on="1"/>
      </contour>
      <contour>
        <pt x="580" y="375" on="1"/>
        <pt x="580" y="488" on="1"/>
        <pt x="312" y="488" on="1"/>
        <pt x="312" y="375" on="1"/>
      </contour>
    </TTGlyph>
    <TTGlyph name="I" xMin="-41" yMin="0" xMax="471" yMax="721">
      <contour>
        <pt x="456" y="10" on="1"/>
        <pt x="469" y="10" on="1"/>
        <pt x="469" y="0" on="1"/>
        <pt x="110" y="0" on="1"/>
        <pt x="110" y="10" on="1"/>
        <pt x="123" y="10" on="1"/>
        <pt x="149" y="10" on="0"/>
        <pt x="186" y="47" on="0"/>
        <pt x="187" y="73" on="1"/>
        <pt x="187" y="650" on="1"/>
        <pt x="100" y="647" on="1"/>
        <pt x="16" y="644" on="0"/>
        <pt x="10" y="585" on="1"/>
        <pt x="10" y="582" on="0"/>
        <pt x="10" y="579" on="1"/>
        <pt x="10" y="551" on="0"/>
        <pt x="48" y="517" on="0"/>
        <pt x="77" y="517" on="1"/>
        <pt x="83" y="517" on="0"/>
        <pt x="89" y="517" on="1"/>
        <pt x="89" y="511" on="1"/>
        <pt x="67" y="499" on="0"/>
        <pt x="24" y="499" on="0"/>
        <pt x="2" y="512" on="1"/>
        <pt x="-40" y="537" on="0"/>
        <pt x="-40" y="586" on="1"/>
        <pt x="-40" y="632" on="0"/>
        <pt x="32" y="693" on="0"/>
        <pt x="109" y="696" on="1"/>
        <pt x="120" y="697" on="0"/>
        <pt x="239" y="701" on="0"/>
        <pt x="282" y="702" on="1"/>
        <pt x="406" y="708" on="0"/>
        <pt x="469" y="720" on="1"/>
        <pt x="471" y="710" on="1"/>
        <pt x="415" y="701" on="0"/>
        <pt x="400" y="662" on="1"/>
        <pt x="393" y="643" on="0"/>
        <pt x="392" y="614" on="1"/>
        <pt x="392" y="73" on="1"/>
        <pt x="392" y="47" on="0"/>
        <pt x="430" y="10" on="0"/>
      </contour>
    </TTGlyph>
    <TTGlyph name="IJ" xMin="-41" yMin="-220" xMax="893" yMax="721">
      <contour>
        <pt x="456" y="10" on="1"/>
        <pt x="469" y="10" on="1"/>
        <pt x="469" y="0" on="1"/>
        <pt x="110" y="0" on="1"/>
        <pt x="110" y="10" on="1"/>
        <pt x="123" y="10" on="1"/>
        <pt x="149" y="10" on="0"/>
        <pt x="186" y="47" on="0"/>
        <pt x="187" y="73" on="1"/>
        <pt x="187" y="650" on="1"/>
        <pt x="100" y="647" on="1"/>
        <pt x="16" y="644" on="0"/>
        <pt x="10" y="585" on="1"/>
        <pt x="10" y="582" on="0"/>
        <pt x="10" y="579" on="1"/>
        <pt x="10" y="551" on="0"/>
        <pt x="48" y="517" on="0"/>
        <pt x="77" y="517" on="1"/>
        <pt x="83" y="517" on="0"/>
        <pt x="89" y="517" on="1"/>
        <pt x="89" y="511" on="1"/>
        <pt x="67" y="499" on="0"/>
        <pt x="24" y="499" on="0"/>
        <pt x="2" y="512" on="1"/>
        <pt x="-40" y="537" on="0"/>
        <pt x="-40" y="586" on="1"/>
        <pt x="-40" y="632" on="0"/>
        <pt x="32" y="693" on="0"/>
        <pt x="109" y="696" on="1"/>
        <pt x="120" y="697" on="0"/>
        <pt x="239" y="701" on="0"/>
        <pt x="282" y="702" on="1"/>
        <pt x="406" y="708" on="0"/>
        <pt x="469" y="720" on="1"/>
        <pt x="471" y="710" on="1"/>
        <pt x="415" y="701" on="0"/>
        <pt x="400" y="662" on="1"/>
        <pt x="393" y="643" on="0"/>
        <pt x="392" y="614" on="1"/>
        <pt x="392" y="73" on="1"/>
        <pt x="392" y="47" on="0"/>
        <pt x="430" y="10" on="0"/>
      </contour>
      <contour>
        <pt x="879" y="690" on="1"/>
        <pt x="843" y="690" on="0"/>
        <pt x="824" y="659" on="1"/>
        <pt x="816" y="645" on="0"/>
        <pt x="815" y="627" on="1"/>
        <pt x="815" y="80" on="1"/>
        <pt x="815" y="0" on="0"/>
        <pt x="764" y="-134" on="0"/>
        <pt x="714" y="-177" on="1"/>
        <pt x="663" y="-220" on="0"/>
        <pt x="516" y="-220" on="0"/>
        <pt x="423" y="-170" on="1"/>
        <pt x="425" y="-161" on="1"/>
        <pt x="441" y="-164" on="0"/>
        <pt x="473" y="-164" on="0"/>
        <pt x="516" y="-155" on="0"/>
        <pt x="554" y="-128" on="0"/>
        <pt x="582" y="-84" on="0"/>
        <pt x="598" y="-39" on="0"/>
        <pt x="603" y="-12" on="1"/>
        <pt x="610" y="32" on="0"/>
        <pt x="610" y="83" on="1"/>
        <pt x="610" y="627" on="1"/>
        <pt x="609" y="653" on="0"/>
        <pt x="572" y="690" on="0"/>
        <pt x="546" y="690" on="1"/>
        <pt x="533" y="690" on="1"/>
        <pt x="533" y="700" on="1"/>
        <pt x="892" y="700" on="1"/>
        <pt x="892" y="690" on="1"/>
      </contour>
    </TTGlyph>
    <TTGlyph name="Iacute" xMin="-41" yMin="0" xMax="505" yMax="954">
      <contour>
        <pt x="271" y="761" on="1"/>
        <pt x="264" y="768" on="1"/>
        <pt x="283" y="812" on="0"/>
        <pt x="376" y="917" on="0"/>
        <pt x="419" y="954" on="1"/>
        <pt x="483" y="927" on="0"/>
        <pt x="504" y="854" on="1"/>
        <pt x="454" y="821" on="0"/>
        <pt x="324" y="767" on="0"/>
      </contour>
      <contour>
        <pt x="456" y="10" on="1"/>
        <pt x="469" y="10" on="1"/>
        <pt x="469" y="0" on="1"/>
        <pt x="110" y="0" on="1"/>
        <pt x="110" y="10" on="1"/>
        <pt x="123" y="10" on="1"/>
        <pt x="149" y="10" on="0"/>
        <pt x="186" y="47" on="0"/>
        <pt x="187" y="73" on="1"/>
        <pt x="187" y="650" on="1"/>
        <pt x="100" y="647" on="1"/>
        <pt x="16" y="644" on="0"/>
        <pt x="10" y="585" on="1"/>
        <pt x="10" y="582" on="0"/>
        <pt x="10" y="579" on="1"/>
        <pt x="10" y="551" on="0"/>
        <pt x="48" y="517" on="0"/>
        <pt x="77" y="517" on="1"/>
        <pt x="83" y="517" on="0"/>
        <pt x="89" y="517" on="1"/>
        <pt x="89" y="511" on="1"/>
        <pt x="67" y="499" on="0"/>
        <pt x="24" y="499" on="0"/>
        <pt x="2" y="512" on="1"/>
        <pt x="-40" y="537" on="0"/>
        <pt x="-40" y="586" on="1"/>
        <pt x="-40" y="632" on="0"/>
        <pt x="32" y="693" on="0"/>
        <pt x="109" y="696" on="1"/>
        <pt x="120" y="697" on="0"/>
        <pt x="239" y="701" on="0"/>
        <pt x="282" y="702" on="1"/>
        <pt x="406" y="708" on="0"/>
        <pt x="469" y="720" on="1"/>
        <pt x="471" y="710" on="1"/>
        <pt x="428" y="703" on="0"/>
        <pt x="393" y="658" on="0"/>
        <pt x="392" y="614" on="1"/>
        <pt x="392" y="73" on="1"/>
        <pt x="393" y="47" on="0"/>
        <pt x="430" y="10" on="0"/>
      </contour>
    </TTGlyph>
    <TTGlyph name="Icircumflex" xMin="-41" yMin="0" xMax="472" yMax="932">
      <contour>
        <pt x="281" y="932" on="1"/>
        <pt x="293" y="932" on="1"/>
        <pt x="471" y="756" on="1"/>
        <pt x="464" y="748" on="1"/>
        <pt x="287" y="813" on="1"/>
        <pt x="119" y="748" on="1"/>
        <pt x="112" y="756" on="1"/>
      </contour>
      <contour>
        <pt x="456" y="10" on="1"/>
        <pt x="469" y="10" on="1"/>
        <pt x="469" y="0" on="1"/>
        <pt x="110" y="0" on="1"/>
        <pt x="110" y="10" on="1"/>
        <pt x="123" y="10" on="1"/>
        <pt x="149" y="10" on="0"/>
        <pt x="186" y="47" on="0"/>
        <pt x="187" y="73" on="1"/>
        <pt x="187" y="650" on="1"/>
        <pt x="100" y="647" on="1"/>
        <pt x="16" y="644" on="0"/>
        <pt x="10" y="585" on="1"/>
        <pt x="10" y="582" on="0"/>
        <pt x="10" y="579" on="1"/>
        <pt x="10" y="551" on="0"/>
        <pt x="48" y="517" on="0"/>
        <pt x="77" y="517" on="1"/>
        <pt x="83" y="517" on="0"/>
        <pt x="89" y="517" on="1"/>
        <pt x="89" y="511" on="1"/>
        <pt x="67" y="499" on="0"/>
        <pt x="24" y="499" on="0"/>
        <pt x="2" y="512" on="1"/>
        <pt x="-40" y="537" on="0"/>
        <pt x="-40" y="586" on="1"/>
        <pt x="-40" y="632" on="0"/>
        <pt x="32" y="693" on="0"/>
        <pt x="109" y="696" on="1"/>
        <pt x="123" y="697" on="0"/>
        <pt x="203" y="699" on="0"/>
        <pt x="277" y="702" on="0"/>
        <pt x="320" y="705" on="1"/>
        <pt x="415" y="710" on="0"/>
        <pt x="469" y="720" on="1"/>
        <pt x="471" y="710" on="1"/>
        <pt x="428" y="703" on="0"/>
        <pt x="393" y="658" on="0"/>
        <pt x="392" y="614" on="1"/>
        <pt x="392" y="73" on="1"/>
        <pt x="392" y="47" on="0"/>
        <pt x="430" y="10" on="0"/>
      </contour>
    </TTGlyph>
    <TTGlyph name="Idieresis" xMin="-41" yMin="0" xMax="490" yMax="903">
      <contour>
        <pt x="184" y="755" on="0"/>
        <pt x="123" y="755" on="0"/>
        <pt x="80" y="799" on="0"/>
        <pt x="80" y="860" on="0"/>
        <pt x="123" y="903" on="0"/>
        <pt x="184" y="903" on="0"/>
        <pt x="227" y="860" on="0"/>
        <pt x="227" y="799" on="0"/>
      </contour>
      <contour>
        <pt x="447" y="755" on="0"/>
        <pt x="386" y="755" on="0"/>
        <pt x="342" y="799" on="0"/>
        <pt x="342" y="860" on="0"/>
        <pt x="386" y="903" on="0"/>
        <pt x="447" y="903" on="0"/>
        <pt x="490" y="860" on="0"/>
        <pt x="490" y="799" on="0"/>
      </contour>
      <contour>
        <pt x="456" y="10" on="1"/>
        <pt x="469" y="10" on="1"/>
        <pt x="469" y="0" on="1"/>
        <pt x="110" y="0" on="1"/>
        <pt x="110" y="10" on="1"/>
        <pt x="123" y="10" on="1"/>
        <pt x="149" y="10" on="0"/>
        <pt x="186" y="47" on="0"/>
        <pt x="187" y="73" on="1"/>
        <pt x="187" y="650" on="1"/>
        <pt x="100" y="647" on="1"/>
        <pt x="16" y="644" on="0"/>
        <pt x="10" y="585" on="1"/>
        <pt x="10" y="582" on="0"/>
        <pt x="10" y="579" on="1"/>
        <pt x="10" y="551" on="0"/>
        <pt x="48" y="517" on="0"/>
        <pt x="77" y="517" on="1"/>
        <pt x="83" y="517" on="0"/>
        <pt x="89" y="517" on="1"/>
        <pt x="89" y="511" on="1"/>
        <pt x="67" y="499" on="0"/>
        <pt x="24" y="499" on="0"/>
        <pt x="2" y="512" on="1"/>
        <pt x="-40" y="537" on="0"/>
        <pt x="-40" y="586" on="1"/>
        <pt x="-40" y="632" on="0"/>
        <pt x="32" y="693" on="0"/>
        <pt x="109" y="696" on="1"/>
        <pt x="120" y="697" on="0"/>
        <pt x="239" y="701" on="0"/>
        <pt x="282" y="702" on="1"/>
        <pt x="406" y="708" on="0"/>
        <pt x="469" y="720" on="1"/>
        <pt x="471" y="710" on="1"/>
        <pt x="415" y="701" on="0"/>
        <pt x="400" y="662" on="1"/>
        <pt x="393" y="643" on="0"/>
        <pt x="392" y="614" on="1"/>
        <pt x="392" y="73" on="1"/>
        <pt x="392" y="47" on="0"/>
        <pt x="430" y="10" on="0"/>
      </contour>
    </TTGlyph>
    <TTGlyph name="Idotaccent" xMin="-41" yMin="0" xMax="471" yMax="912">
      <contour>
        <pt x="319" y="764" on="0"/>
        <pt x="258" y="764" on="0"/>
        <pt x="215" y="807" on="0"/>
        <pt x="215" y="868" on="0"/>
        <pt x="258" y="911" on="0"/>
        <pt x="319" y="911" on="0"/>
        <pt x="362" y="868" on="0"/>
        <pt x="362" y="807" on="0"/>
      </contour>
      <contour>
        <pt x="456" y="10" on="1"/>
        <pt x="469" y="10" on="1"/>
        <pt x="469" y="0" on="1"/>
        <pt x="110" y="0" on="1"/>
        <pt x="110" y="10" on="1"/>
        <pt x="123" y="10" on="1"/>
        <pt x="149" y="10" on="0"/>
        <pt x="186" y="47" on="0"/>
        <pt x="187" y="73" on="1"/>
        <pt x="187" y="650" on="1"/>
        <pt x="100" y="647" on="1"/>
        <pt x="16" y="644" on="0"/>
        <pt x="10" y="585" on="1"/>
        <pt x="10" y="582" on="0"/>
        <pt x="10" y="579" on="1"/>
        <pt x="10" y="551" on="0"/>
        <pt x="48" y="517" on="0"/>
        <pt x="77" y="517" on="1"/>
        <pt x="83" y="517" on="0"/>
        <pt x="89" y="517" on="1"/>
        <pt x="89" y="511" on="1"/>
        <pt x="67" y="499" on="0"/>
        <pt x="24" y="499" on="0"/>
        <pt x="2" y="512" on="1"/>
        <pt x="-40" y="537" on="0"/>
        <pt x="-40" y="586" on="1"/>
        <pt x="-40" y="632" on="0"/>
        <pt x="32" y="693" on="0"/>
        <pt x="109" y="696" on="1"/>
        <pt x="120" y="697" on="0"/>
        <pt x="239" y="701" on="0"/>
        <pt x="282" y="702" on="1"/>
        <pt x="406" y="708" on="0"/>
        <pt x="469" y="720" on="1"/>
        <pt x="471" y="710" on="1"/>
        <pt x="415" y="701" on="0"/>
        <pt x="400" y="662" on="1"/>
        <pt x="393" y="643" on="0"/>
        <pt x="392" y="614" on="1"/>
        <pt x="392" y="73" on="1"/>
        <pt x="392" y="47" on="0"/>
        <pt x="430" y="10" on="0"/>
      </contour>
    </TTGlyph>
    <TTGlyph name="Igrave" xMin="-41" yMin="-1" xMax="471" yMax="957">
      <contour>
        <pt x="315" y="771" on="1"/>
        <pt x="308" y="764" on="1"/>
        <pt x="256" y="770" on="0"/>
        <pt x="125" y="824" on="0"/>
        <pt x="75" y="857" on="1"/>
        <pt x="97" y="930" on="0"/>
        <pt x="161" y="957" on="1"/>
        <pt x="204" y="920" on="0"/>
        <pt x="296" y="815" on="0"/>
      </contour>
      <contour>
        <pt x="456" y="10" on="1"/>
        <pt x="469" y="10" on="1"/>
        <pt x="469" y="0" on="1"/>
        <pt x="110" y="0" on="1"/>
        <pt x="110" y="10" on="1"/>
        <pt x="123" y="10" on="1"/>
        <pt x="149" y="10" on="0"/>
        <pt x="186" y="47" on="0"/>
        <pt x="187" y="73" on="1"/>
        <pt x="187" y="650" on="1"/>
        <pt x="100" y="647" on="1"/>
        <pt x="16" y="644" on="0"/>
        <pt x="10" y="585" on="1"/>
        <pt x="10" y="582" on="0"/>
        <pt x="10" y="579" on="1"/>
        <pt x="10" y="551" on="0"/>
        <pt x="48" y="517" on="0"/>
        <pt x="77" y="517" on="1"/>
        <pt x="83" y="517" on="0"/>
        <pt x="89" y="517" on="1"/>
        <pt x="89" y="511" on="1"/>
        <pt x="67" y="499" on="0"/>
        <pt x="24" y="499" on="0"/>
        <pt x="2" y="512" on="1"/>
        <pt x="-40" y="537" on="0"/>
        <pt x="-40" y="586" on="1"/>
        <pt x="-40" y="632" on="0"/>
        <pt x="32" y="693" on="0"/>
        <pt x="109" y="696" on="1"/>
        <pt x="120" y="697" on="0"/>
        <pt x="239" y="701" on="0"/>
        <pt x="282" y="702" on="1"/>
        <pt x="406" y="708" on="0"/>
        <pt x="469" y="720" on="1"/>
        <pt x="471" y="710" on="1"/>
        <pt x="428" y="703" on="0"/>
        <pt x="393" y="658" on="0"/>
        <pt x="392" y="614" on="1"/>
        <pt x="392" y="73" on="1"/>
        <pt x="393" y="47" on="0"/>
        <pt x="430" y="10" on="0"/>
      </contour>
    </TTGlyph>
    <TTGlyph name="Imacron" xMin="-41" yMin="0" xMax="471" yMax="881">
      <contour>
        <pt x="146" y="795" on="1"/>
        <pt x="146" y="880" on="1"/>
        <pt x="436" y="880" on="1"/>
        <pt x="436" y="795" on="1"/>
      </contour>
      <contour>
        <pt x="456" y="10" on="1"/>
        <pt x="469" y="10" on="1"/>
        <pt x="469" y="0" on="1"/>
        <pt x="110" y="0" on="1"/>
        <pt x="110" y="10" on="1"/>
        <pt x="123" y="10" on="1"/>
        <pt x="149" y="10" on="0"/>
        <pt x="186" y="47" on="0"/>
        <pt x="187" y="73" on="1"/>
        <pt x="187" y="650" on="1"/>
        <pt x="100" y="647" on="1"/>
        <pt x="16" y="644" on="0"/>
        <pt x="10" y="585" on="1"/>
        <pt x="10" y="582" on="0"/>
        <pt x="10" y="579" on="1"/>
        <pt x="10" y="551" on="0"/>
        <pt x="48" y="517" on="0"/>
        <pt x="77" y="517" on="1"/>
        <pt x="83" y="517" on="0"/>
        <pt x="89" y="517" on="1"/>
        <pt x="89" y="511" on="1"/>
        <pt x="67" y="499" on="0"/>
        <pt x="24" y="499" on="0"/>
        <pt x="2" y="512" on="1"/>
        <pt x="-40" y="537" on="0"/>
        <pt x="-40" y="586" on="1"/>
        <pt x="-40" y="632" on="0"/>
        <pt x="32" y="693" on="0"/>
        <pt x="109" y="696" on="1"/>
        <pt x="120" y="697" on="0"/>
        <pt x="239" y="701" on="0"/>
        <pt x="282" y="702" on="1"/>
        <pt x="406" y="708" on="0"/>
        <pt x="469" y="720" on="1"/>
        <pt x="471" y="710" on="1"/>
        <pt x="415" y="701" on="0"/>
        <pt x="400" y="662" on="1"/>
        <pt x="393" y="643" on="0"/>
        <pt x="392" y="614" on="1"/>
        <pt x="392" y="73" on="1"/>
        <pt x="392" y="47" on="0"/>
        <pt x="430" y="10" on="0"/>
      </contour>
    </TTGlyph>
    <TTGlyph name="Iogonek" xMin="-41" yMin="-216" xMax="471" yMax="721">
      <contour>
        <pt x="339" y="-143" on="1"/>
        <pt x="357" y="-143" on="0"/>
        <pt x="383" y="-122" on="1"/>
        <pt x="389" y="-128" on="1"/>
        <pt x="385" y="-192" on="0"/>
        <pt x="328" y="-210" on="1"/>
        <pt x="311" y="-215" on="0"/>
        <pt x="260" y="-215" on="0"/>
        <pt x="228" y="-193" on="1"/>
        <pt x="184" y="-162" on="0"/>
        <pt x="184" y="-110" on="1"/>
        <pt x="184" y="-57" on="0"/>
        <pt x="245" y="-6" on="0"/>
        <pt x="282" y="0" on="1"/>
        <pt x="110" y="0" on="1"/>
        <pt x="110" y="10" on="1"/>
        <pt x="123" y="10" on="1"/>
        <pt x="149" y="10" on="0"/>
        <pt x="186" y="47" on="0"/>
        <pt x="187" y="73" on="1"/>
        <pt x="187" y="650" on="1"/>
        <pt x="100" y="647" on="1"/>
        <pt x="16" y="644" on="0"/>
        <pt x="10" y="585" on="1"/>
        <pt x="10" y="582" on="0"/>
        <pt x="10" y="579" on="1"/>
        <pt x="10" y="551" on="0"/>
        <pt x="48" y="517" on="0"/>
        <pt x="77" y="517" on="1"/>
        <pt x="83" y="517" on="0"/>
        <pt x="89" y="517" on="1"/>
        <pt x="89" y="511" on="1"/>
        <pt x="67" y="499" on="0"/>
        <pt x="24" y="499" on="0"/>
        <pt x="2" y="512" on="1"/>
        <pt x="-40" y="537" on="0"/>
        <pt x="-40" y="586" on="1"/>
        <pt x="-40" y="632" on="0"/>
        <pt x="32" y="693" on="0"/>
        <pt x="109" y="696" on="1"/>
        <pt x="123" y="697" on="0"/>
        <pt x="203" y="699" on="0"/>
        <pt x="277" y="702" on="0"/>
        <pt x="320" y="705" on="1"/>
        <pt x="415" y="710" on="0"/>
        <pt x="469" y="720" on="1"/>
        <pt x="471" y="710" on="1"/>
        <pt x="415" y="701" on="0"/>
        <pt x="400" y="662" on="1"/>
        <pt x="393" y="643" on="0"/>
        <pt x="392" y="614" on="1"/>
        <pt x="392" y="73" on="1"/>
        <pt x="392" y="47" on="0"/>
        <pt x="430" y="10" on="0"/>
        <pt x="456" y="10" on="1"/>
        <pt x="469" y="10" on="1"/>
        <pt x="469" y="0" on="1"/>
        <pt x="330" y="0" on="1"/>
        <pt x="336" y="-2" on="1"/>
        <pt x="271" y="-16" on="0"/>
        <pt x="271" y="-70" on="1"/>
        <pt x="271" y="-143" on="0"/>
      </contour>
    </TTGlyph>
    <TTGlyph name="J" xMin="-75" yMin="-220" xMax="395" yMax="701">
      <contour>
        <pt x="381" y="690" on="1"/>
        <pt x="345" y="690" on="0"/>
        <pt x="326" y="659" on="1"/>
        <pt x="318" y="645" on="0"/>
        <pt x="317" y="627" on="1"/>
        <pt x="317" y="80" on="1"/>
        <pt x="317" y="0" on="0"/>
        <pt x="266" y="-134" on="0"/>
        <pt x="216" y="-177" on="1"/>
        <pt x="165" y="-220" on="0"/>
        <pt x="18" y="-220" on="0"/>
        <pt x="-75" y="-170" on="1"/>
        <pt x="-73" y="-161" on="1"/>
        <pt x="-57" y="-164" on="0"/>
        <pt x="-25" y="-164" on="0"/>
        <pt x="18" y="-155" on="0"/>
        <pt x="56" y="-128" on="0"/>
        <pt x="84" y="-84" on="0"/>
        <pt x="100" y="-39" on="0"/>
        <pt x="104" y="-12" on="1"/>
        <pt x="112" y="32" on="0"/>
        <pt x="112" y="83" on="1"/>
        <pt x="112" y="627" on="1"/>
        <pt x="111" y="653" on="0"/>
        <pt x="74" y="690" on="0"/>
        <pt x="48" y="690" on="1"/>
        <pt x="35" y="690" on="1"/>
        <pt x="35" y="700" on="1"/>
        <pt x="394" y="700" on="1"/>
        <pt x="394" y="690" on="1"/>
      </contour>
    </TTGlyph>
    <TTGlyph name="K" xMin="29" yMin="-234" xMax="1106" yMax="701">
      <contour>
        <pt x="43" y="10" on="1"/>
        <pt x="69" y="10" on="0"/>
        <pt x="106" y="47" on="0"/>
        <pt x="107" y="73" on="1"/>
        <pt x="107" y="628" on="1"/>
        <pt x="106" y="654" on="0"/>
        <pt x="69" y="690" on="0"/>
        <pt x="43" y="690" on="1"/>
        <pt x="30" y="690" on="1"/>
        <pt x="30" y="700" on="1"/>
        <pt x="389" y="700" on="1"/>
        <pt x="389" y="690" on="1"/>
        <pt x="376" y="690" on="1"/>
        <pt x="350" y="690" on="0"/>
        <pt x="313" y="654" on="0"/>
        <pt x="312" y="628" on="1"/>
        <pt x="312" y="73" on="1"/>
        <pt x="312" y="47" on="0"/>
        <pt x="350" y="10" on="0"/>
        <pt x="376" y="10" on="1"/>
        <pt x="389" y="10" on="1"/>
        <pt x="389" y="0" on="1"/>
        <pt x="30" y="0" on="1"/>
        <pt x="30" y="10" on="1"/>
      </contour>
      <contour>
        <pt x="1105" y="-177" on="1"/>
        <pt x="1006" y="-233" on="0"/>
        <pt x="914" y="-233" on="1"/>
        <pt x="784" y="-233" on="0"/>
        <pt x="659" y="-103" on="1"/>
        <pt x="613" y="-55" on="0"/>
        <pt x="564" y="13" on="1"/>
        <pt x="344" y="318" on="1"/>
        <pt x="583" y="644" on="1"/>
        <pt x="590" y="654" on="0"/>
        <pt x="590" y="670" on="0"/>
        <pt x="587" y="676" on="1"/>
        <pt x="580" y="691" on="0"/>
        <pt x="559" y="691" on="1"/>
        <pt x="549" y="691" on="1"/>
        <pt x="549" y="700" on="1"/>
        <pt x="790" y="700" on="1"/>
        <pt x="790" y="691" on="1"/>
        <pt x="786" y="691" on="1"/>
        <pt x="719" y="691" on="0"/>
        <pt x="676" y="642" on="1"/>
        <pt x="505" y="435" on="1"/>
        <pt x="734" y="113" on="1"/>
        <pt x="843" y="-40" on="0"/>
        <pt x="1000" y="-158" on="0"/>
        <pt x="1103" y="-166" on="1"/>
      </contour>
    </TTGlyph>
    <TTGlyph name="Kcommaaccent" xMin="29" yMin="-234" xMax="1106" yMax="701">
      <contour>
        <pt x="43" y="10" on="1"/>
        <pt x="69" y="10" on="0"/>
        <pt x="106" y="47" on="0"/>
        <pt x="107" y="73" on="1"/>
        <pt x="107" y="628" on="1"/>
        <pt x="106" y="654" on="0"/>
        <pt x="69" y="690" on="0"/>
        <pt x="43" y="690" on="1"/>
        <pt x="30" y="690" on="1"/>
        <pt x="30" y="700" on="1"/>
        <pt x="389" y="700" on="1"/>
        <pt x="389" y="690" on="1"/>
        <pt x="376" y="690" on="1"/>
        <pt x="350" y="690" on="0"/>
        <pt x="313" y="654" on="0"/>
        <pt x="312" y="628" on="1"/>
        <pt x="312" y="73" on="1"/>
        <pt x="312" y="47" on="0"/>
        <pt x="350" y="10" on="0"/>
        <pt x="376" y="10" on="1"/>
        <pt x="389" y="10" on="1"/>
        <pt x="389" y="0" on="1"/>
        <pt x="30" y="0" on="1"/>
        <pt x="30" y="10" on="1"/>
      </contour>
      <contour>
        <pt x="1105" y="-177" on="1"/>
        <pt x="1006" y="-233" on="0"/>
        <pt x="914" y="-233" on="1"/>
        <pt x="784" y="-233" on="0"/>
        <pt x="659" y="-103" on="1"/>
        <pt x="613" y="-55" on="0"/>
        <pt x="564" y="13" on="1"/>
        <pt x="344" y="318" on="1"/>
        <pt x="583" y="644" on="1"/>
        <pt x="590" y="654" on="0"/>
        <pt x="590" y="670" on="0"/>
        <pt x="587" y="676" on="1"/>
        <pt x="580" y="691" on="0"/>
        <pt x="559" y="691" on="1"/>
        <pt x="549" y="691" on="1"/>
        <pt x="549" y="700" on="1"/>
        <pt x="790" y="700" on="1"/>
        <pt x="790" y="691" on="1"/>
        <pt x="786" y="691" on="1"/>
        <pt x="719" y="691" on="0"/>
        <pt x="676" y="642" on="1"/>
        <pt x="505" y="435" on="1"/>
        <pt x="734" y="113" on="1"/>
        <pt x="843" y="-40" on="0"/>
        <pt x="1000" y="-158" on="0"/>
        <pt x="1103" y="-166" on="1"/>
      </contour>
      <contour>
        <pt x="409" y="-200" on="1"/>
        <pt x="440" y="-186" on="0"/>
        <pt x="440" y="-131" on="0"/>
        <pt x="404" y="-90" on="0"/>
        <pt x="404" y="-64" on="1"/>
        <pt x="404" y="-29" on="0"/>
        <pt x="428" y="-12" on="1"/>
        <pt x="444" y="0" on="0"/>
        <pt x="458" y="0" on="1"/>
        <pt x="510" y="0" on="0"/>
        <pt x="529" y="-41" on="1"/>
        <pt x="540" y="-64" on="0"/>
        <pt x="540" y="-96" on="0"/>
        <pt x="533" y="-137" on="0"/>
        <pt x="500" y="-188" on="0"/>
        <pt x="451" y="-211" on="0"/>
        <pt x="421" y="-211" on="0"/>
        <pt x="411" y="-209" on="1"/>
      </contour>
    </TTGlyph>
    <TTGlyph name="L" xMin="29" yMin="-266" xMax="1096" yMax="700">
      <contour>
        <pt x="914" y="-133" on="1"/>
        <pt x="1039" y="-133" on="0"/>
        <pt x="1087" y="-90" on="1"/>
        <pt x="1095" y="-97" on="1"/>
        <pt x="1051" y="-192" on="0"/>
        <pt x="969" y="-238" on="1"/>
        <pt x="918" y="-266" on="0"/>
        <pt x="819" y="-266" on="1"/>
        <pt x="809" y="-266" on="0"/>
        <pt x="760" y="-264" on="0"/>
        <pt x="651" y="-233" on="0"/>
        <pt x="577" y="-208" on="0"/>
        <pt x="521" y="-182" on="1"/>
        <pt x="451" y="-149" on="0"/>
        <pt x="323" y="-82" on="0"/>
        <pt x="264" y="-52" on="0"/>
        <pt x="200" y="-25" on="0"/>
        <pt x="88" y="0" on="0"/>
        <pt x="30" y="0" on="1"/>
        <pt x="30" y="10" on="1"/>
        <pt x="43" y="10" on="1"/>
        <pt x="79" y="10" on="0"/>
        <pt x="98" y="41" on="1"/>
        <pt x="106" y="55" on="0"/>
        <pt x="107" y="73" on="1"/>
        <pt x="107" y="627" on="1"/>
        <pt x="106" y="664" on="0"/>
        <pt x="74" y="682" on="1"/>
        <pt x="60" y="690" on="0"/>
        <pt x="43" y="690" on="1"/>
        <pt x="30" y="690" on="1"/>
        <pt x="30" y="700" on="1"/>
        <pt x="389" y="700" on="1"/>
        <pt x="389" y="690" on="1"/>
        <pt x="380" y="690" on="1"/>
        <pt x="351" y="690" on="0"/>
        <pt x="313" y="654" on="0"/>
        <pt x="312" y="627" on="1"/>
        <pt x="312" y="45" on="1"/>
        <pt x="312" y="-2" on="0"/>
        <pt x="350" y="-14" on="1"/>
        <pt x="737" y="-133" on="0"/>
      </contour>
    </TTGlyph>
    <TTGlyph name="Lacute" xMin="30" yMin="-266" xMax="1096" yMax="954">
      <contour>
        <pt x="193" y="761" on="1"/>
        <pt x="186" y="768" on="1"/>
        <pt x="215" y="836" on="0"/>
        <pt x="310" y="926" on="1"/>
        <pt x="326" y="941" on="0"/>
        <pt x="341" y="954" on="1"/>
        <pt x="405" y="927" on="0"/>
        <pt x="426" y="854" on="1"/>
        <pt x="376" y="821" on="0"/>
        <pt x="246" y="767" on="0"/>
      </contour>
      <contour>
        <pt x="914" y="-133" on="1"/>
        <pt x="1039" y="-133" on="0"/>
        <pt x="1087" y="-90" on="1"/>
        <pt x="1095" y="-97" on="1"/>
        <pt x="1051" y="-192" on="0"/>
        <pt x="969" y="-238" on="1"/>
        <pt x="918" y="-266" on="0"/>
        <pt x="819" y="-266" on="1"/>
        <pt x="809" y="-266" on="0"/>
        <pt x="760" y="-264" on="0"/>
        <pt x="651" y="-233" on="0"/>
        <pt x="577" y="-208" on="0"/>
        <pt x="521" y="-182" on="1"/>
        <pt x="451" y="-149" on="0"/>
        <pt x="323" y="-82" on="0"/>
        <pt x="264" y="-52" on="0"/>
        <pt x="200" y="-25" on="0"/>
        <pt x="88" y="0" on="0"/>
        <pt x="30" y="0" on="1"/>
        <pt x="30" y="10" on="1"/>
        <pt x="43" y="10" on="1"/>
        <pt x="79" y="10" on="0"/>
        <pt x="98" y="41" on="1"/>
        <pt x="106" y="55" on="0"/>
        <pt x="107" y="73" on="1"/>
        <pt x="107" y="627" on="1"/>
        <pt x="106" y="654" on="0"/>
        <pt x="69" y="690" on="0"/>
        <pt x="43" y="690" on="1"/>
        <pt x="30" y="690" on="1"/>
        <pt x="30" y="700" on="1"/>
        <pt x="389" y="700" on="1"/>
        <pt x="389" y="690" on="1"/>
        <pt x="380" y="690" on="1"/>
        <pt x="351" y="690" on="0"/>
        <pt x="313" y="654" on="0"/>
        <pt x="312" y="627" on="1"/>
        <pt x="312" y="45" on="1"/>
        <pt x="312" y="-2" on="0"/>
        <pt x="350" y="-14" on="1"/>
        <pt x="737" y="-133" on="0"/>
      </contour>
    </TTGlyph>
    <TTGlyph name="Lcaron" xMin="30" yMin="-249" xMax="1096" yMax="710">
      <contour>
        <pt x="432" y="509" on="1"/>
        <pt x="463" y="523" on="0"/>
        <pt x="463" y="578" on="0"/>
        <pt x="427" y="619" on="0"/>
        <pt x="427" y="645" on="1"/>
        <pt x="427" y="680" on="0"/>
        <pt x="451" y="697" on="1"/>
        <pt x="467" y="709" on="0"/>
        <pt x="481" y="709" on="1"/>
        <pt x="533" y="709" on="0"/>
        <pt x="552" y="668" on="1"/>
        <pt x="563" y="645" on="0"/>
        <pt x="563" y="613" on="0"/>
        <pt x="556" y="572" on="0"/>
        <pt x="523" y="521" on="0"/>
        <pt x="474" y="498" on="0"/>
        <pt x="444" y="498" on="0"/>
        <pt x="434" y="500" on="1"/>
      </contour>
      <contour>
        <pt x="871" y="-143" on="1"/>
        <pt x="949" y="-143" on="0"/>
        <pt x="1087" y="-90" on="1"/>
        <pt x="1095" y="-97" on="1"/>
        <pt x="1022" y="-226" on="0"/>
        <pt x="899" y="-244" on="1"/>
        <pt x="869" y="-249" on="0"/>
        <pt x="831" y="-249" on="0"/>
        <pt x="784" y="-246" on="0"/>
        <pt x="692" y="-223" on="0"/>
        <pt x="617" y="-196" on="0"/>
        <pt x="520" y="-154" on="0"/>
        <pt x="484" y="-137" on="1"/>
        <pt x="369" y="-80" on="0"/>
        <pt x="324" y="-60" on="1"/>
        <pt x="194" y="0" on="0"/>
        <pt x="30" y="0" on="1"/>
        <pt x="30" y="10" on="1"/>
        <pt x="43" y="10" on="1"/>
        <pt x="69" y="10" on="0"/>
        <pt x="106" y="47" on="0"/>
        <pt x="107" y="73" on="1"/>
        <pt x="107" y="627" on="1"/>
        <pt x="106" y="664" on="0"/>
        <pt x="74" y="682" on="1"/>
        <pt x="60" y="690" on="0"/>
        <pt x="43" y="690" on="1"/>
        <pt x="30" y="690" on="1"/>
        <pt x="30" y="700" on="1"/>
        <pt x="389" y="700" on="1"/>
        <pt x="389" y="690" on="1"/>
        <pt x="376" y="690" on="1"/>
        <pt x="340" y="690" on="0"/>
        <pt x="321" y="659" on="1"/>
        <pt x="312" y="645" on="0"/>
        <pt x="312" y="627" on="1"/>
        <pt x="312" y="55" on="1"/>
        <pt x="312" y="23" on="0"/>
        <pt x="328" y="-7" on="0"/>
        <pt x="350" y="-14" on="1"/>
        <pt x="672" y="-121" on="0"/>
        <pt x="764" y="-133" on="1"/>
        <pt x="836" y="-143" on="0"/>
      </contour>
    </TTGlyph>
    <TTGlyph name="Lcommaaccent" xMin="29" yMin="-325" xMax="1096" yMax="700">
      <contour>
        <pt x="914" y="-133" on="1"/>
        <pt x="1039" y="-133" on="0"/>
        <pt x="1087" y="-90" on="1"/>
        <pt x="1095" y="-97" on="1"/>
        <pt x="1051" y="-192" on="0"/>
        <pt x="969" y="-238" on="1"/>
        <pt x="918" y="-266" on="0"/>
        <pt x="819" y="-266" on="1"/>
        <pt x="809" y="-266" on="0"/>
        <pt x="760" y="-264" on="0"/>
        <pt x="651" y="-233" on="0"/>
        <pt x="577" y="-208" on="0"/>
        <pt x="521" y="-182" on="1"/>
        <pt x="451" y="-149" on="0"/>
        <pt x="323" y="-82" on="0"/>
        <pt x="264" y="-52" on="0"/>
        <pt x="200" y="-25" on="0"/>
        <pt x="88" y="0" on="0"/>
        <pt x="30" y="0" on="1"/>
        <pt x="30" y="10" on="1"/>
        <pt x="43" y="10" on="1"/>
        <pt x="79" y="10" on="0"/>
        <pt x="98" y="41" on="1"/>
        <pt x="106" y="55" on="0"/>
        <pt x="107" y="73" on="1"/>
        <pt x="107" y="627" on="1"/>
        <pt x="106" y="664" on="0"/>
        <pt x="74" y="682" on="1"/>
        <pt x="60" y="690" on="0"/>
        <pt x="43" y="690" on="1"/>
        <pt x="30" y="690" on="1"/>
        <pt x="30" y="700" on="1"/>
        <pt x="389" y="700" on="1"/>
        <pt x="389" y="690" on="1"/>
        <pt x="380" y="690" on="1"/>
        <pt x="351" y="690" on="0"/>
        <pt x="313" y="654" on="0"/>
        <pt x="312" y="627" on="1"/>
        <pt x="312" y="45" on="1"/>
        <pt x="312" y="-2" on="0"/>
        <pt x="350" y="-14" on="1"/>
        <pt x="737" y="-133" on="0"/>
      </contour>
      <contour>
        <pt x="212" y="-314" on="1"/>
        <pt x="244" y="-300" on="0"/>
        <pt x="244" y="-245" on="0"/>
        <pt x="208" y="-204" on="0"/>
        <pt x="208" y="-178" on="1"/>
        <pt x="208" y="-143" on="0"/>
        <pt x="232" y="-126" on="1"/>
        <pt x="248" y="-114" on="0"/>
        <pt x="262" y="-114" on="1"/>
        <pt x="314" y="-114" on="0"/>
        <pt x="333" y="-155" on="1"/>
        <pt x="344" y="-178" on="0"/>
        <pt x="344" y="-210" on="0"/>
        <pt x="337" y="-251" on="0"/>
        <pt x="304" y="-302" on="0"/>
        <pt x="255" y="-325" on="0"/>
        <pt x="225" y="-325" on="0"/>
        <pt x="215" y="-323" on="1"/>
      </contour>
    </TTGlyph>
    <TTGlyph name="Ldot" xMin="30" yMin="-249" xMax="1096" yMax="701">
      <contour>
        <pt x="871" y="-143" on="1"/>
        <pt x="949" y="-143" on="0"/>
        <pt x="1087" y="-90" on="1"/>
        <pt x="1095" y="-97" on="1"/>
        <pt x="1022" y="-226" on="0"/>
        <pt x="899" y="-244" on="1"/>
        <pt x="869" y="-249" on="0"/>
        <pt x="831" y="-249" on="0"/>
        <pt x="784" y="-246" on="0"/>
        <pt x="692" y="-223" on="0"/>
        <pt x="617" y="-196" on="0"/>
        <pt x="520" y="-154" on="0"/>
        <pt x="484" y="-137" on="1"/>
        <pt x="369" y="-80" on="0"/>
        <pt x="324" y="-60" on="1"/>
        <pt x="194" y="0" on="0"/>
        <pt x="30" y="0" on="1"/>
        <pt x="30" y="10" on="1"/>
        <pt x="43" y="10" on="1"/>
        <pt x="69" y="10" on="0"/>
        <pt x="106" y="47" on="0"/>
        <pt x="107" y="73" on="1"/>
        <pt x="107" y="627" on="1"/>
        <pt x="106" y="664" on="0"/>
        <pt x="74" y="682" on="1"/>
        <pt x="60" y="690" on="0"/>
        <pt x="43" y="690" on="1"/>
        <pt x="30" y="690" on="1"/>
        <pt x="30" y="700" on="1"/>
        <pt x="389" y="700" on="1"/>
        <pt x="389" y="690" on="1"/>
        <pt x="376" y="690" on="1"/>
        <pt x="340" y="690" on="0"/>
        <pt x="321" y="659" on="1"/>
        <pt x="312" y="645" on="0"/>
        <pt x="312" y="627" on="1"/>
        <pt x="312" y="55" on="1"/>
        <pt x="312" y="23" on="0"/>
        <pt x="328" y="-7" on="0"/>
        <pt x="350" y="-14" on="1"/>
        <pt x="672" y="-121" on="0"/>
        <pt x="764" y="-133" on="1"/>
        <pt x="836" y="-143" on="0"/>
      </contour>
      <contour>
        <pt x="499" y="327" on="0"/>
        <pt x="438" y="327" on="0"/>
        <pt x="395" y="371" on="0"/>
        <pt x="395" y="432" on="0"/>
        <pt x="438" y="475" on="0"/>
        <pt x="499" y="475" on="0"/>
        <pt x="542" y="432" on="0"/>
        <pt x="542" y="371" on="0"/>
      </contour>
    </TTGlyph>
    <TTGlyph name="Lslash" xMin="30" yMin="-249" xMax="1108" yMax="701">
      <contour>
        <pt x="985" y="-221" on="1"/>
        <pt x="952" y="-238" on="0"/>
        <pt x="881" y="-249" on="0"/>
        <pt x="843" y="-249" on="0"/>
        <pt x="797" y="-246" on="0"/>
        <pt x="704" y="-223" on="0"/>
        <pt x="629" y="-196" on="0"/>
        <pt x="532" y="-154" on="0"/>
        <pt x="497" y="-137" on="1"/>
        <pt x="381" y="-80" on="0"/>
        <pt x="337" y="-60" on="1"/>
        <pt x="206" y="0" on="0"/>
        <pt x="42" y="0" on="1"/>
        <pt x="42" y="10" on="1"/>
        <pt x="55" y="10" on="1"/>
        <pt x="81" y="10" on="0"/>
        <pt x="119" y="47" on="0"/>
        <pt x="119" y="73" on="1"/>
        <pt x="119" y="264" on="1"/>
        <pt x="56" y="228" on="1"/>
        <pt x="30" y="274" on="1"/>
        <pt x="119" y="325" on="1"/>
        <pt x="119" y="627" on="1"/>
        <pt x="118" y="664" on="0"/>
        <pt x="87" y="682" on="1"/>
        <pt x="72" y="690" on="0"/>
        <pt x="55" y="690" on="1"/>
        <pt x="42" y="690" on="1"/>
        <pt x="42" y="700" on="1"/>
        <pt x="401" y="700" on="1"/>
        <pt x="401" y="690" on="1"/>
        <pt x="388" y="690" on="1"/>
        <pt x="352" y="690" on="0"/>
        <pt x="333" y="659" on="1"/>
        <pt x="325" y="645" on="0"/>
        <pt x="324" y="627" on="1"/>
        <pt x="324" y="444" on="1"/>
        <pt x="402" y="489" on="1"/>
        <pt x="428" y="443" on="1"/>
        <pt x="324" y="383" on="1"/>
        <pt x="324" y="55" on="1"/>
        <pt x="324" y="23" on="0"/>
        <pt x="340" y="-7" on="0"/>
        <pt x="362" y="-14" on="1"/>
        <pt x="603" y="-94" on="0"/>
        <pt x="779" y="-136" on="0"/>
        <pt x="842" y="-142" on="0"/>
        <pt x="888" y="-142" on="0"/>
        <pt x="925" y="-139" on="1"/>
        <pt x="985" y="-133" on="0"/>
        <pt x="1100" y="-90" on="1"/>
        <pt x="1108" y="-97" on="1"/>
        <pt x="1059" y="-183" on="0"/>
      </contour>
    </TTGlyph>
    <TTGlyph name="M" xMin="-115" yMin="-213" xMax="1194" yMax="785">
      <contour>
        <pt x="-115" y="746" on="1"/>
        <pt x="-44" y="784" on="0"/>
        <pt x="93" y="784" on="0"/>
        <pt x="150" y="755" on="1"/>
        <pt x="264" y="696" on="0"/>
        <pt x="345" y="562" on="1"/>
        <pt x="524" y="271" on="1"/>
        <pt x="821" y="714" on="1"/>
        <pt x="830" y="714" on="1"/>
        <pt x="943" y="129" on="1"/>
        <pt x="977" y="-51" on="0"/>
        <pt x="1044" y="-121" on="1"/>
        <pt x="1097" y="-176" on="0"/>
        <pt x="1179" y="-176" on="1"/>
        <pt x="1186" y="-176" on="0"/>
        <pt x="1194" y="-176" on="1"/>
        <pt x="1194" y="-186" on="1"/>
        <pt x="1132" y="-212" on="0"/>
        <pt x="1065" y="-212" on="1"/>
        <pt x="932" y="-212" on="0"/>
        <pt x="834" y="-108" on="1"/>
        <pt x="752" y="-22" on="0"/>
        <pt x="719" y="135" on="1"/>
        <pt x="673" y="346" on="1"/>
        <pt x="502" y="92" on="1"/>
        <pt x="485" y="68" on="0"/>
        <pt x="459" y="0" on="0"/>
        <pt x="460" y="-24" on="1"/>
        <pt x="451" y="-24" on="1"/>
        <pt x="208" y="392" on="1"/>
        <pt x="158" y="56" on="1"/>
        <pt x="158" y="52" on="1"/>
        <pt x="158" y="36" on="0"/>
        <pt x="181" y="9" on="0"/>
        <pt x="197" y="9" on="1"/>
        <pt x="212" y="9" on="1"/>
        <pt x="212" y="0" on="1"/>
        <pt x="-7" y="0" on="1"/>
        <pt x="-7" y="10" on="1"/>
        <pt x="9" y="10" on="1"/>
        <pt x="36" y="10" on="0"/>
        <pt x="77" y="43" on="0"/>
        <pt x="82" y="71" on="1"/>
        <pt x="151" y="500" on="1"/>
        <pt x="100" y="589" on="0"/>
        <pt x="38" y="658" on="1"/>
        <pt x="-33" y="736" on="0"/>
        <pt x="-104" y="736" on="1"/>
        <pt x="-108" y="736" on="0"/>
        <pt x="-112" y="736" on="1"/>
      </contour>
    </TTGlyph>
    <TTGlyph name="N" xMin="-231" yMin="-173" xMax="1142" yMax="841">
      <contour>
        <pt x="1141" y="-135" on="1"/>
        <pt x="1080" y="-173" on="0"/>
        <pt x="1009" y="-173" on="1"/>
        <pt x="947" y="-173" on="0"/>
        <pt x="880" y="-136" on="1"/>
        <pt x="811" y="-99" on="0"/>
        <pt x="745" y="-31" on="1"/>
        <pt x="306" y="423" on="1"/>
        <pt x="306" y="71" on="1"/>
        <pt x="306" y="45" on="0"/>
        <pt x="342" y="10" on="0"/>
        <pt x="367" y="10" on="1"/>
        <pt x="386" y="10" on="1"/>
        <pt x="386" y="0" on="1"/>
        <pt x="20" y="0" on="1"/>
        <pt x="20" y="10" on="1"/>
        <pt x="39" y="10" on="1"/>
        <pt x="64" y="10" on="0"/>
        <pt x="100" y="45" on="0"/>
        <pt x="100" y="71" on="1"/>
        <pt x="100" y="637" on="1"/>
        <pt x="-54" y="801" on="0"/>
        <pt x="-170" y="801" on="1"/>
        <pt x="-199" y="801" on="0"/>
        <pt x="-226" y="791" on="1"/>
        <pt x="-231" y="800" on="1"/>
        <pt x="-175" y="840" on="0"/>
        <pt x="-110" y="840" on="1"/>
        <pt x="-67" y="840" on="0"/>
        <pt x="22" y="807" on="0"/>
        <pt x="55" y="786" on="1"/>
        <pt x="117" y="745" on="0"/>
        <pt x="165" y="696" on="1"/>
        <pt x="576" y="271" on="1"/>
        <pt x="576" y="629" on="1"/>
        <pt x="575" y="655" on="0"/>
        <pt x="539" y="690" on="0"/>
        <pt x="514" y="690" on="1"/>
        <pt x="495" y="690" on="1"/>
        <pt x="495" y="700" on="1"/>
        <pt x="861" y="700" on="1"/>
        <pt x="861" y="690" on="1"/>
        <pt x="843" y="690" on="1"/>
        <pt x="818" y="690" on="0"/>
        <pt x="782" y="655" on="0"/>
        <pt x="781" y="630" on="1"/>
        <pt x="781" y="59" on="1"/>
        <pt x="799" y="40" on="1"/>
        <pt x="799" y="40" on="0"/>
        <pt x="846" y="-10" on="0"/>
        <pt x="863" y="-26" on="0"/>
        <pt x="915" y="-73" on="0"/>
        <pt x="947" y="-92" on="0"/>
        <pt x="1003" y="-123" on="0"/>
        <pt x="1026" y="-127" on="1"/>
        <pt x="1052" y="-133" on="0"/>
        <pt x="1110" y="-133" on="0"/>
        <pt x="1137" y="-125" on="1"/>
      </contour>
    </TTGlyph>
    <TTGlyph name="Nacute" xMin="-231" yMin="-173" xMax="1142" yMax="954">
      <contour>
        <pt x="385" y="761" on="1"/>
        <pt x="378" y="768" on="1"/>
        <pt x="397" y="812" on="0"/>
        <pt x="489" y="917" on="0"/>
        <pt x="533" y="954" on="1"/>
        <pt x="597" y="927" on="0"/>
        <pt x="618" y="854" on="1"/>
        <pt x="568" y="821" on="0"/>
        <pt x="438" y="767" on="0"/>
      </contour>
      <contour>
        <pt x="1141" y="-135" on="1"/>
        <pt x="1080" y="-173" on="0"/>
        <pt x="1009" y="-173" on="1"/>
        <pt x="947" y="-173" on="0"/>
        <pt x="880" y="-136" on="1"/>
        <pt x="811" y="-98" on="0"/>
        <pt x="745" y="-31" on="1"/>
        <pt x="306" y="423" on="1"/>
        <pt x="306" y="71" on="1"/>
        <pt x="306" y="36" on="0"/>
        <pt x="337" y="18" on="1"/>
        <pt x="351" y="10" on="0"/>
        <pt x="367" y="10" on="1"/>
        <pt x="386" y="10" on="1"/>
        <pt x="386" y="0" on="1"/>
        <pt x="20" y="0" on="1"/>
        <pt x="20" y="10" on="1"/>
        <pt x="39" y="10" on="1"/>
        <pt x="64" y="10" on="0"/>
        <pt x="100" y="45" on="0"/>
        <pt x="100" y="71" on="1"/>
        <pt x="100" y="637" on="1"/>
        <pt x="-54" y="801" on="0"/>
        <pt x="-170" y="801" on="1"/>
        <pt x="-199" y="801" on="0"/>
        <pt x="-226" y="791" on="1"/>
        <pt x="-231" y="800" on="1"/>
        <pt x="-175" y="840" on="0"/>
        <pt x="-105" y="840" on="1"/>
        <pt x="-44" y="840" on="0"/>
        <pt x="29" y="801" on="1"/>
        <pt x="101" y="761" on="0"/>
        <pt x="165" y="696" on="1"/>
        <pt x="576" y="271" on="1"/>
        <pt x="576" y="629" on="1"/>
        <pt x="575" y="655" on="0"/>
        <pt x="539" y="690" on="0"/>
        <pt x="514" y="690" on="1"/>
        <pt x="495" y="690" on="1"/>
        <pt x="495" y="700" on="1"/>
        <pt x="861" y="700" on="1"/>
        <pt x="861" y="690" on="1"/>
        <pt x="843" y="690" on="1"/>
        <pt x="818" y="690" on="0"/>
        <pt x="782" y="655" on="0"/>
        <pt x="781" y="630" on="1"/>
        <pt x="781" y="59" on="1"/>
        <pt x="799" y="40" on="1"/>
        <pt x="799" y="40" on="0"/>
        <pt x="846" y="-10" on="0"/>
        <pt x="863" y="-26" on="0"/>
        <pt x="915" y="-73" on="0"/>
        <pt x="947" y="-92" on="0"/>
        <pt x="1003" y="-123" on="0"/>
        <pt x="1026" y="-127" on="1"/>
        <pt x="1052" y="-133" on="0"/>
        <pt x="1110" y="-133" on="0"/>
        <pt x="1137" y="-125" on="1"/>
      </contour>
    </TTGlyph>
    <TTGlyph name="Ncaron" xMin="-231" yMin="-173" xMax="1142" yMax="948">
      <contour>
        <pt x="409" y="764" on="1"/>
        <pt x="397" y="764" on="1"/>
        <pt x="228" y="940" on="1"/>
        <pt x="235" y="948" on="1"/>
        <pt x="403" y="883" on="1"/>
        <pt x="561" y="947" on="1"/>
        <pt x="568" y="939" on="1"/>
      </contour>
      <contour>
        <pt x="1141" y="-135" on="1"/>
        <pt x="1080" y="-173" on="0"/>
        <pt x="1009" y="-173" on="1"/>
        <pt x="947" y="-173" on="0"/>
        <pt x="880" y="-136" on="1"/>
        <pt x="811" y="-99" on="0"/>
        <pt x="745" y="-31" on="1"/>
        <pt x="306" y="423" on="1"/>
        <pt x="306" y="71" on="1"/>
        <pt x="306" y="45" on="0"/>
        <pt x="342" y="10" on="0"/>
        <pt x="367" y="10" on="1"/>
        <pt x="386" y="10" on="1"/>
        <pt x="386" y="0" on="1"/>
        <pt x="20" y="0" on="1"/>
        <pt x="20" y="10" on="1"/>
        <pt x="39" y="10" on="1"/>
        <pt x="64" y="10" on="0"/>
        <pt x="100" y="45" on="0"/>
        <pt x="100" y="71" on="1"/>
        <pt x="100" y="637" on="1"/>
        <pt x="-54" y="801" on="0"/>
        <pt x="-170" y="801" on="1"/>
        <pt x="-199" y="801" on="0"/>
        <pt x="-226" y="791" on="1"/>
        <pt x="-231" y="800" on="1"/>
        <pt x="-175" y="840" on="0"/>
        <pt x="-110" y="840" on="1"/>
        <pt x="-67" y="840" on="0"/>
        <pt x="22" y="807" on="0"/>
        <pt x="55" y="786" on="1"/>
        <pt x="117" y="745" on="0"/>
        <pt x="165" y="696" on="1"/>
        <pt x="576" y="271" on="1"/>
        <pt x="576" y="629" on="1"/>
        <pt x="575" y="655" on="0"/>
        <pt x="539" y="690" on="0"/>
        <pt x="514" y="690" on="1"/>
        <pt x="495" y="690" on="1"/>
        <pt x="495" y="700" on="1"/>
        <pt x="861" y="700" on="1"/>
        <pt x="861" y="690" on="1"/>
        <pt x="843" y="690" on="1"/>
        <pt x="818" y="690" on="0"/>
        <pt x="782" y="655" on="0"/>
        <pt x="781" y="630" on="1"/>
        <pt x="781" y="59" on="1"/>
        <pt x="799" y="40" on="1"/>
        <pt x="799" y="40" on="0"/>
        <pt x="846" y="-10" on="0"/>
        <pt x="863" y="-26" on="0"/>
        <pt x="915" y="-73" on="0"/>
        <pt x="947" y="-92" on="0"/>
        <pt x="1003" y="-123" on="0"/>
        <pt x="1026" y="-127" on="1"/>
        <pt x="1052" y="-133" on="0"/>
        <pt x="1110" y="-133" on="0"/>
        <pt x="1137" y="-125" on="1"/>
      </contour>
    </TTGlyph>
    <TTGlyph name="Ncommaaccent" xMin="-231" yMin="-275" xMax="1142" yMax="841">
      <contour>
        <pt x="1141" y="-135" on="1"/>
        <pt x="1080" y="-173" on="0"/>
        <pt x="1009" y="-173" on="1"/>
        <pt x="947" y="-173" on="0"/>
        <pt x="880" y="-136" on="1"/>
        <pt x="811" y="-99" on="0"/>
        <pt x="745" y="-31" on="1"/>
        <pt x="306" y="423" on="1"/>
        <pt x="306" y="71" on="1"/>
        <pt x="306" y="45" on="0"/>
        <pt x="342" y="10" on="0"/>
        <pt x="367" y="10" on="1"/>
        <pt x="386" y="10" on="1"/>
        <pt x="386" y="0" on="1"/>
        <pt x="20" y="0" on="1"/>
        <pt x="20" y="10" on="1"/>
        <pt x="39" y="10" on="1"/>
        <pt x="64" y="10" on="0"/>
        <pt x="100" y="45" on="0"/>
        <pt x="100" y="71" on="1"/>
        <pt x="100" y="637" on="1"/>
        <pt x="-54" y="801" on="0"/>
        <pt x="-170" y="801" on="1"/>
        <pt x="-199" y="801" on="0"/>
        <pt x="-226" y="791" on="1"/>
        <pt x="-231" y="800" on="1"/>
        <pt x="-175" y="840" on="0"/>
        <pt x="-110" y="840" on="1"/>
        <pt x="-67" y="840" on="0"/>
        <pt x="22" y="807" on="0"/>
        <pt x="55" y="786" on="1"/>
        <pt x="117" y="745" on="0"/>
        <pt x="165" y="696" on="1"/>
        <pt x="576" y="271" on="1"/>
        <pt x="576" y="629" on="1"/>
        <pt x="575" y="655" on="0"/>
        <pt x="539" y="690" on="0"/>
        <pt x="514" y="690" on="1"/>
        <pt x="495" y="690" on="1"/>
        <pt x="495" y="700" on="1"/>
        <pt x="861" y="700" on="1"/>
        <pt x="861" y="690" on="1"/>
        <pt x="843" y="690" on="1"/>
        <pt x="818" y="690" on="0"/>
        <pt x="782" y="655" on="0"/>
        <pt x="781" y="630" on="1"/>
        <pt x="781" y="59" on="1"/>
        <pt x="799" y="40" on="1"/>
        <pt x="799" y="40" on="0"/>
        <pt x="846" y="-10" on="0"/>
        <pt x="863" y="-26" on="0"/>
        <pt x="915" y="-73" on="0"/>
        <pt x="947" y="-92" on="0"/>
        <pt x="1003" y="-123" on="0"/>
        <pt x="1026" y="-127" on="1"/>
        <pt x="1052" y="-133" on="0"/>
        <pt x="1110" y="-133" on="0"/>
        <pt x="1137" y="-125" on="1"/>
      </contour>
      <contour>
        <pt x="453" y="-264" on="1"/>
        <pt x="485" y="-250" on="0"/>
        <pt x="485" y="-195" on="0"/>
        <pt x="449" y="-154" on="0"/>
        <pt x="449" y="-128" on="1"/>
        <pt x="449" y="-93" on="0"/>
        <pt x="473" y="-76" on="1"/>
        <pt x="489" y="-64" on="0"/>
        <pt x="503" y="-64" on="1"/>
        <pt x="555" y="-64" on="0"/>
        <pt x="574" y="-105" on="1"/>
        <pt x="585" y="-128" on="0"/>
        <pt x="585" y="-160" on="0"/>
        <pt x="578" y="-201" on="0"/>
        <pt x="545" y="-252" on="0"/>
        <pt x="496" y="-275" on="0"/>
        <pt x="466" y="-275" on="0"/>
        <pt x="456" y="-273" on="1"/>
      </contour>
    </TTGlyph>
    <TTGlyph name="Ntilde" xMin="-231" yMin="-173" xMax="1142" yMax="929">
      <contour>
        <pt x="597" y="919" on="1"/>
        <pt x="609" y="919" on="1"/>
        <pt x="615" y="902" on="0"/>
        <pt x="615" y="863" on="0"/>
        <pt x="607" y="844" on="1"/>
        <pt x="585" y="794" on="0"/>
        <pt x="546" y="776" on="1"/>
        <pt x="522" y="764" on="0"/>
        <pt x="459" y="764" on="0"/>
        <pt x="410" y="789" on="1"/>
        <pt x="360" y="814" on="0"/>
        <pt x="325" y="819" on="0"/>
        <pt x="295" y="819" on="0"/>
        <pt x="247" y="787" on="0"/>
        <pt x="239" y="767" on="1"/>
        <pt x="227" y="767" on="1"/>
        <pt x="223" y="781" on="0"/>
        <pt x="223" y="796" on="1"/>
        <pt x="223" y="856" on="0"/>
        <pt x="268" y="899" on="1"/>
        <pt x="299" y="929" on="0"/>
        <pt x="344" y="929" on="1"/>
        <pt x="369" y="929" on="0"/>
        <pt x="418" y="907" on="0"/>
        <pt x="476" y="880" on="0"/>
        <pt x="512" y="875" on="0"/>
        <pt x="542" y="875" on="0"/>
        <pt x="591" y="904" on="0"/>
      </contour>
      <contour>
        <pt x="1141" y="-135" on="1"/>
        <pt x="1080" y="-173" on="0"/>
        <pt x="1009" y="-173" on="1"/>
        <pt x="947" y="-173" on="0"/>
        <pt x="880" y="-136" on="1"/>
        <pt x="811" y="-99" on="0"/>
        <pt x="745" y="-31" on="1"/>
        <pt x="306" y="423" on="1"/>
        <pt x="306" y="71" on="1"/>
        <pt x="306" y="36" on="0"/>
        <pt x="337" y="18" on="1"/>
        <pt x="351" y="10" on="0"/>
        <pt x="367" y="10" on="1"/>
        <pt x="386" y="10" on="1"/>
        <pt x="386" y="0" on="1"/>
        <pt x="20" y="0" on="1"/>
        <pt x="20" y="10" on="1"/>
        <pt x="39" y="10" on="1"/>
        <pt x="64" y="10" on="0"/>
        <pt x="100" y="45" on="0"/>
        <pt x="100" y="71" on="1"/>
        <pt x="100" y="637" on="1"/>
        <pt x="-54" y="801" on="0"/>
        <pt x="-170" y="801" on="1"/>
        <pt x="-199" y="801" on="0"/>
        <pt x="-226" y="791" on="1"/>
        <pt x="-231" y="800" on="1"/>
        <pt x="-175" y="840" on="0"/>
        <pt x="-105" y="840" on="1"/>
        <pt x="-44" y="840" on="0"/>
        <pt x="29" y="801" on="1"/>
        <pt x="101" y="761" on="0"/>
        <pt x="165" y="696" on="1"/>
        <pt x="576" y="271" on="1"/>
        <pt x="576" y="629" on="1"/>
        <pt x="575" y="655" on="0"/>
        <pt x="539" y="690" on="0"/>
        <pt x="514" y="690" on="1"/>
        <pt x="495" y="690" on="1"/>
        <pt x="495" y="700" on="1"/>
        <pt x="861" y="700" on="1"/>
        <pt x="861" y="690" on="1"/>
        <pt x="843" y="690" on="1"/>
        <pt x="818" y="690" on="0"/>
        <pt x="782" y="655" on="0"/>
        <pt x="781" y="630" on="1"/>
        <pt x="781" y="59" on="1"/>
        <pt x="799" y="40" on="1"/>
        <pt x="799" y="40" on="0"/>
        <pt x="846" y="-10" on="0"/>
        <pt x="863" y="-26" on="0"/>
        <pt x="915" y="-73" on="0"/>
        <pt x="947" y="-92" on="0"/>
        <pt x="1003" y="-123" on="0"/>
        <pt x="1026" y="-127" on="1"/>
        <pt x="1052" y="-133" on="0"/>
        <pt x="1110" y="-133" on="0"/>
        <pt x="1137" y="-125" on="1"/>
      </contour>
    </TTGlyph>
    <TTGlyph name="O" xMin="10" yMin="-14" xMax="921" yMax="719">
      <contour>
        <pt x="367" y="433" on="1"/>
        <pt x="336" y="485" on="0"/>
        <pt x="336" y="543" on="1"/>
        <pt x="336" y="623" on="0"/>
        <pt x="396" y="673" on="1"/>
        <pt x="432" y="704" on="0"/>
        <pt x="485" y="714" on="1"/>
        <pt x="517" y="719" on="0"/>
        <pt x="556" y="719" on="0"/>
        <pt x="600" y="718" on="0"/>
        <pt x="685" y="692" on="0"/>
        <pt x="765" y="655" on="0"/>
        <pt x="836" y="591" on="0"/>
        <pt x="863" y="553" on="1"/>
        <pt x="921" y="471" on="0"/>
        <pt x="921" y="355" on="1"/>
        <pt x="921" y="187" on="0"/>
        <pt x="672" y="-14" on="0"/>
        <pt x="262" y="-14" on="0"/>
        <pt x="10" y="188" on="0"/>
        <pt x="10" y="353" on="1"/>
        <pt x="10" y="489" on="0"/>
        <pt x="179" y="684" on="0"/>
        <pt x="315" y="707" on="1"/>
        <pt x="321" y="697" on="1"/>
        <pt x="280" y="654" on="0"/>
        <pt x="231" y="485" on="0"/>
        <pt x="231" y="387" on="1"/>
        <pt x="231" y="228" on="0"/>
        <pt x="359" y="36" on="0"/>
        <pt x="572" y="36" on="0"/>
        <pt x="700" y="210" on="0"/>
        <pt x="700" y="355" on="1"/>
        <pt x="700" y="447" on="0"/>
        <pt x="649" y="593" on="0"/>
        <pt x="559" y="665" on="0"/>
        <pt x="509" y="665" on="1"/>
        <pt x="444" y="665" on="0"/>
        <pt x="409" y="626" on="1"/>
        <pt x="368" y="581" on="0"/>
        <pt x="368" y="514" on="1"/>
        <pt x="368" y="476" on="0"/>
        <pt x="379" y="433" on="1"/>
      </contour>
    </TTGlyph>
    <TTGlyph name="OE" xMin="-5" yMin="-14" xMax="1088" yMax="719">
      <contour>
        <pt x="600" y="0" on="1"/>
        <pt x="561" y="0" on="0"/>
        <pt x="443" y="-14" on="0"/>
        <pt x="407" y="-14" on="1"/>
        <pt x="218" y="-14" on="0"/>
        <pt x="-5" y="181" on="0"/>
        <pt x="-5" y="522" on="0"/>
        <pt x="220" y="714" on="0"/>
        <pt x="419" y="714" on="1"/>
        <pt x="465" y="714" on="0"/>
        <pt x="569" y="700" on="0"/>
        <pt x="600" y="700" on="1"/>
        <pt x="908" y="700" on="1"/>
        <pt x="939" y="700" on="0"/>
        <pt x="1012" y="712" on="0"/>
        <pt x="1027" y="718" on="1"/>
        <pt x="1027" y="512" on="1"/>
        <pt x="1017" y="512" on="1"/>
        <pt x="1017" y="520" on="1"/>
        <pt x="1017" y="610" on="0"/>
        <pt x="945" y="639" on="1"/>
        <pt x="921" y="648" on="0"/>
        <pt x="892" y="649" on="1"/>
        <pt x="747" y="649" on="1"/>
        <pt x="747" y="370" on="1"/>
        <pt x="856" y="370" on="1"/>
        <pt x="904" y="371" on="0"/>
        <pt x="964" y="432" on="0"/>
        <pt x="964" y="480" on="1"/>
        <pt x="964" y="484" on="1"/>
        <pt x="974" y="484" on="1"/>
        <pt x="974" y="206" on="1"/>
        <pt x="964" y="206" on="1"/>
        <pt x="964" y="211" on="1"/>
        <pt x="964" y="275" on="0"/>
        <pt x="913" y="305" on="1"/>
        <pt x="888" y="319" on="0"/>
        <pt x="857" y="320" on="1"/>
        <pt x="747" y="320" on="1"/>
        <pt x="747" y="51" on="1"/>
        <pt x="870" y="51" on="1"/>
        <pt x="943" y="51" on="0"/>
        <pt x="1055" y="147" on="0"/>
        <pt x="1078" y="232" on="1"/>
        <pt x="1088" y="232" on="1"/>
        <pt x="1050" y="0" on="1"/>
      </contour>
      <contour>
        <pt x="422" y="664" on="1"/>
        <pt x="327" y="664" on="0"/>
        <pt x="207" y="499" on="0"/>
        <pt x="207" y="203" on="0"/>
        <pt x="324" y="36" on="0"/>
        <pt x="421" y="36" on="1"/>
        <pt x="473" y="36" on="0"/>
        <pt x="541" y="80" on="0"/>
        <pt x="541" y="104" on="1"/>
        <pt x="541" y="596" on="1"/>
        <pt x="541" y="619" on="0"/>
        <pt x="475" y="664" on="0"/>
      </contour>
    </TTGlyph>
    <TTGlyph name="Oacute" xMin="10" yMin="-14" xMax="921" yMax="968">
      <contour>
        <pt x="448" y="775" on="1"/>
        <pt x="441" y="782" on="1"/>
        <pt x="468" y="844" on="0"/>
        <pt x="557" y="931" on="1"/>
        <pt x="578" y="952" on="0"/>
        <pt x="596" y="968" on="1"/>
        <pt x="660" y="941" on="0"/>
        <pt x="681" y="868" on="1"/>
        <pt x="631" y="835" on="0"/>
        <pt x="501" y="781" on="0"/>
      </contour>
      <contour>
        <pt x="367" y="433" on="1"/>
        <pt x="336" y="485" on="0"/>
        <pt x="336" y="543" on="1"/>
        <pt x="336" y="623" on="0"/>
        <pt x="396" y="673" on="1"/>
        <pt x="432" y="704" on="0"/>
        <pt x="485" y="714" on="1"/>
        <pt x="518" y="719" on="0"/>
        <pt x="538" y="719" on="1"/>
        <pt x="599" y="719" on="0"/>
        <pt x="685" y="692" on="0"/>
        <pt x="765" y="655" on="0"/>
        <pt x="836" y="591" on="0"/>
        <pt x="863" y="553" on="1"/>
        <pt x="921" y="471" on="0"/>
        <pt x="921" y="355" on="1"/>
        <pt x="921" y="187" on="0"/>
        <pt x="672" y="-14" on="0"/>
        <pt x="262" y="-14" on="0"/>
        <pt x="10" y="188" on="0"/>
        <pt x="10" y="353" on="1"/>
        <pt x="10" y="489" on="0"/>
        <pt x="179" y="684" on="0"/>
        <pt x="315" y="707" on="1"/>
        <pt x="321" y="697" on="1"/>
        <pt x="280" y="654" on="0"/>
        <pt x="231" y="485" on="0"/>
        <pt x="231" y="387" on="1"/>
        <pt x="231" y="228" on="0"/>
        <pt x="359" y="36" on="0"/>
        <pt x="468" y="36" on="1"/>
        <pt x="572" y="36" on="0"/>
        <pt x="636" y="122" on="1"/>
        <pt x="700" y="209" on="0"/>
        <pt x="700" y="355" on="1"/>
        <pt x="700" y="447" on="0"/>
        <pt x="649" y="593" on="0"/>
        <pt x="559" y="665" on="0"/>
        <pt x="508" y="665" on="1"/>
        <pt x="444" y="665" on="0"/>
        <pt x="409" y="626" on="1"/>
        <pt x="368" y="581" on="0"/>
        <pt x="368" y="514" on="1"/>
        <pt x="368" y="476" on="0"/>
        <pt x="379" y="433" on="1"/>
      </contour>
    </TTGlyph>
    <TTGlyph name="Ocircumflex" xMin="9" yMin="-14" xMax="921" yMax="946">
      <contour>
        <pt x="458" y="946" on="1"/>
        <pt x="470" y="946" on="1"/>
        <pt x="649" y="770" on="1"/>
        <pt x="641" y="762" on="1"/>
        <pt x="464" y="827" on="1"/>
        <pt x="296" y="762" on="1"/>
        <pt x="289" y="770" on="1"/>
      </contour>
      <contour>
        <pt x="367" y="433" on="1"/>
        <pt x="336" y="485" on="0"/>
        <pt x="336" y="543" on="1"/>
        <pt x="336" y="605" on="0"/>
        <pt x="413" y="700" on="0"/>
        <pt x="485" y="714" on="1"/>
        <pt x="518" y="719" on="0"/>
        <pt x="538" y="719" on="1"/>
        <pt x="599" y="719" on="0"/>
        <pt x="685" y="692" on="0"/>
        <pt x="765" y="655" on="0"/>
        <pt x="836" y="591" on="0"/>
        <pt x="863" y="553" on="1"/>
        <pt x="921" y="471" on="0"/>
        <pt x="921" y="355" on="1"/>
        <pt x="921" y="187" on="0"/>
        <pt x="672" y="-14" on="0"/>
        <pt x="262" y="-14" on="0"/>
        <pt x="10" y="188" on="0"/>
        <pt x="10" y="353" on="1"/>
        <pt x="10" y="489" on="0"/>
        <pt x="179" y="684" on="0"/>
        <pt x="315" y="707" on="1"/>
        <pt x="321" y="697" on="1"/>
        <pt x="280" y="654" on="0"/>
        <pt x="231" y="485" on="0"/>
        <pt x="231" y="387" on="1"/>
        <pt x="231" y="228" on="0"/>
        <pt x="359" y="36" on="0"/>
        <pt x="572" y="36" on="0"/>
        <pt x="700" y="210" on="0"/>
        <pt x="700" y="355" on="1"/>
        <pt x="700" y="447" on="0"/>
        <pt x="649" y="593" on="0"/>
        <pt x="559" y="665" on="0"/>
        <pt x="508" y="665" on="1"/>
        <pt x="444" y="665" on="0"/>
        <pt x="409" y="626" on="1"/>
        <pt x="368" y="581" on="0"/>
        <pt x="368" y="514" on="1"/>
        <pt x="368" y="476" on="0"/>
        <pt x="379" y="433" on="1"/>
      </contour>
    </TTGlyph>
    <TTGlyph name="Odieresis" xMin="10" yMin="-14" xMax="921" yMax="917">
      <contour>
        <pt x="361" y="769" on="0"/>
        <pt x="300" y="769" on="0"/>
        <pt x="257" y="813" on="0"/>
        <pt x="257" y="874" on="0"/>
        <pt x="300" y="917" on="0"/>
        <pt x="361" y="917" on="0"/>
        <pt x="404" y="874" on="0"/>
        <pt x="404" y="813" on="0"/>
      </contour>
      <contour>
        <pt x="624" y="769" on="0"/>
        <pt x="563" y="769" on="0"/>
        <pt x="519" y="813" on="0"/>
        <pt x="519" y="874" on="0"/>
        <pt x="563" y="917" on="0"/>
        <pt x="624" y="917" on="0"/>
        <pt x="667" y="874" on="0"/>
        <pt x="667" y="813" on="0"/>
      </contour>
      <contour>
        <pt x="367" y="433" on="1"/>
        <pt x="336" y="485" on="0"/>
        <pt x="336" y="543" on="1"/>
        <pt x="336" y="623" on="0"/>
        <pt x="396" y="673" on="1"/>
        <pt x="432" y="704" on="0"/>
        <pt x="485" y="714" on="1"/>
        <pt x="518" y="719" on="0"/>
        <pt x="538" y="719" on="1"/>
        <pt x="599" y="719" on="0"/>
        <pt x="685" y="692" on="0"/>
        <pt x="765" y="655" on="0"/>
        <pt x="836" y="591" on="0"/>
        <pt x="863" y="553" on="1"/>
        <pt x="921" y="471" on="0"/>
        <pt x="921" y="355" on="1"/>
        <pt x="921" y="187" on="0"/>
        <pt x="672" y="-14" on="0"/>
        <pt x="262" y="-14" on="0"/>
        <pt x="10" y="188" on="0"/>
        <pt x="10" y="353" on="1"/>
        <pt x="10" y="489" on="0"/>
        <pt x="179" y="684" on="0"/>
        <pt x="315" y="707" on="1"/>
        <pt x="321" y="697" on="1"/>
        <pt x="280" y="654" on="0"/>
        <pt x="231" y="485" on="0"/>
        <pt x="231" y="387" on="1"/>
        <pt x="231" y="228" on="0"/>
        <pt x="359" y="36" on="0"/>
        <pt x="468" y="36" on="1"/>
        <pt x="572" y="36" on="0"/>
        <pt x="636" y="122" on="1"/>
        <pt x="700" y="209" on="0"/>
        <pt x="700" y="355" on="1"/>
        <pt x="700" y="447" on="0"/>
        <pt x="649" y="593" on="0"/>
        <pt x="559" y="665" on="0"/>
        <pt x="508" y="665" on="1"/>
        <pt x="444" y="665" on="0"/>
        <pt x="409" y="626" on="1"/>
        <pt x="368" y="581" on="0"/>
        <pt x="368" y="514" on="1"/>
        <pt x="368" y="476" on="0"/>
        <pt x="379" y="433" on="1"/>
      </contour>
    </TTGlyph>
    <TTGlyph name="Ograve" xMin="10" yMin="-15" xMax="922" yMax="971">
      <contour>
        <pt x="492" y="785" on="1"/>
        <pt x="485" y="778" on="1"/>
        <pt x="433" y="784" on="0"/>
        <pt x="302" y="838" on="0"/>
        <pt x="252" y="871" on="1"/>
        <pt x="274" y="944" on="0"/>
        <pt x="338" y="971" on="1"/>
        <pt x="399" y="918" on="0"/>
        <pt x="479" y="815" on="0"/>
      </contour>
      <contour>
        <pt x="367" y="433" on="1"/>
        <pt x="336" y="485" on="0"/>
        <pt x="336" y="543" on="1"/>
        <pt x="336" y="623" on="0"/>
        <pt x="396" y="673" on="1"/>
        <pt x="432" y="704" on="0"/>
        <pt x="485" y="714" on="1"/>
        <pt x="518" y="719" on="0"/>
        <pt x="538" y="719" on="1"/>
        <pt x="599" y="719" on="0"/>
        <pt x="685" y="692" on="0"/>
        <pt x="765" y="655" on="0"/>
        <pt x="836" y="591" on="0"/>
        <pt x="863" y="553" on="1"/>
        <pt x="921" y="471" on="0"/>
        <pt x="921" y="355" on="1"/>
        <pt x="921" y="187" on="0"/>
        <pt x="672" y="-14" on="0"/>
        <pt x="262" y="-14" on="0"/>
        <pt x="10" y="188" on="0"/>
        <pt x="10" y="353" on="1"/>
        <pt x="10" y="489" on="0"/>
        <pt x="179" y="684" on="0"/>
        <pt x="315" y="707" on="1"/>
        <pt x="321" y="697" on="1"/>
        <pt x="280" y="654" on="0"/>
        <pt x="231" y="485" on="0"/>
        <pt x="231" y="387" on="1"/>
        <pt x="231" y="228" on="0"/>
        <pt x="359" y="36" on="0"/>
        <pt x="572" y="36" on="0"/>
        <pt x="700" y="210" on="0"/>
        <pt x="700" y="355" on="1"/>
        <pt x="700" y="447" on="0"/>
        <pt x="649" y="593" on="0"/>
        <pt x="559" y="665" on="0"/>
        <pt x="508" y="665" on="1"/>
        <pt x="444" y="665" on="0"/>
        <pt x="409" y="626" on="1"/>
        <pt x="368" y="581" on="0"/>
        <pt x="368" y="514" on="1"/>
        <pt x="368" y="476" on="0"/>
        <pt x="379" y="433" on="1"/>
      </contour>
    </TTGlyph>
    <TTGlyph name="Ohungarumlaut" xMin="10" yMin="-14" xMax="922" yMax="971">
      <contour>
        <pt x="341" y="778" on="1"/>
        <pt x="334" y="785" on="1"/>
        <pt x="353" y="829" on="0"/>
        <pt x="445" y="934" on="0"/>
        <pt x="489" y="971" on="1"/>
        <pt x="553" y="944" on="0"/>
        <pt x="574" y="871" on="1"/>
        <pt x="524" y="838" on="0"/>
        <pt x="394" y="784" on="0"/>
      </contour>
      <contour>
        <pt x="551" y="778" on="1"/>
        <pt x="544" y="785" on="1"/>
        <pt x="557" y="815" on="0"/>
        <pt x="587" y="854" on="1"/>
        <pt x="637" y="918" on="0"/>
        <pt x="699" y="971" on="1"/>
        <pt x="763" y="944" on="0"/>
        <pt x="784" y="871" on="1"/>
        <pt x="715" y="825" on="0"/>
        <pt x="586" y="782" on="0"/>
      </contour>
      <contour>
        <pt x="367" y="433" on="1"/>
        <pt x="336" y="485" on="0"/>
        <pt x="336" y="543" on="1"/>
        <pt x="336" y="623" on="0"/>
        <pt x="396" y="673" on="1"/>
        <pt x="432" y="704" on="0"/>
        <pt x="485" y="714" on="1"/>
        <pt x="518" y="719" on="0"/>
        <pt x="538" y="719" on="1"/>
        <pt x="599" y="719" on="0"/>
        <pt x="685" y="692" on="0"/>
        <pt x="765" y="655" on="0"/>
        <pt x="836" y="591" on="0"/>
        <pt x="863" y="553" on="1"/>
        <pt x="921" y="471" on="0"/>
        <pt x="921" y="355" on="1"/>
        <pt x="921" y="187" on="0"/>
        <pt x="672" y="-14" on="0"/>
        <pt x="262" y="-14" on="0"/>
        <pt x="10" y="188" on="0"/>
        <pt x="10" y="353" on="1"/>
        <pt x="10" y="489" on="0"/>
        <pt x="179" y="684" on="0"/>
        <pt x="315" y="707" on="1"/>
        <pt x="321" y="697" on="1"/>
        <pt x="280" y="654" on="0"/>
        <pt x="231" y="485" on="0"/>
        <pt x="231" y="387" on="1"/>
        <pt x="231" y="228" on="0"/>
        <pt x="359" y="36" on="0"/>
        <pt x="572" y="36" on="0"/>
        <pt x="700" y="210" on="0"/>
        <pt x="700" y="355" on="1"/>
        <pt x="700" y="447" on="0"/>
        <pt x="649" y="593" on="0"/>
        <pt x="559" y="665" on="0"/>
        <pt x="508" y="665" on="1"/>
        <pt x="444" y="665" on="0"/>
        <pt x="409" y="626" on="1"/>
        <pt x="368" y="581" on="0"/>
        <pt x="368" y="514" on="1"/>
        <pt x="368" y="476" on="0"/>
        <pt x="379" y="433" on="1"/>
      </contour>
    </TTGlyph>
    <TTGlyph name="Omacron" xMin="9" yMin="-14" xMax="921" yMax="895">
      <contour>
        <pt x="323" y="809" on="1"/>
        <pt x="323" y="894" on="1"/>
        <pt x="613" y="894" on="1"/>
        <pt x="613" y="809" on="1"/>
      </contour>
      <contour>
        <pt x="367" y="433" on="1"/>
        <pt x="336" y="485" on="0"/>
        <pt x="336" y="543" on="1"/>
        <pt x="336" y="623" on="0"/>
        <pt x="396" y="673" on="1"/>
        <pt x="432" y="704" on="0"/>
        <pt x="485" y="714" on="1"/>
        <pt x="518" y="719" on="0"/>
        <pt x="538" y="719" on="1"/>
        <pt x="599" y="719" on="0"/>
        <pt x="685" y="692" on="0"/>
        <pt x="765" y="655" on="0"/>
        <pt x="836" y="591" on="0"/>
        <pt x="863" y="553" on="1"/>
        <pt x="921" y="471" on="0"/>
        <pt x="921" y="355" on="1"/>
        <pt x="921" y="187" on="0"/>
        <pt x="672" y="-14" on="0"/>
        <pt x="261" y="-14" on="0"/>
        <pt x="10" y="188" on="0"/>
        <pt x="10" y="353" on="1"/>
        <pt x="10" y="489" on="0"/>
        <pt x="179" y="684" on="0"/>
        <pt x="315" y="707" on="1"/>
        <pt x="321" y="697" on="1"/>
        <pt x="280" y="654" on="0"/>
        <pt x="231" y="485" on="0"/>
        <pt x="231" y="387" on="1"/>
        <pt x="231" y="228" on="0"/>
        <pt x="359" y="36" on="0"/>
        <pt x="468" y="36" on="1"/>
        <pt x="572" y="36" on="0"/>
        <pt x="636" y="122" on="1"/>
        <pt x="700" y="209" on="0"/>
        <pt x="700" y="355" on="1"/>
        <pt x="700" y="447" on="0"/>
        <pt x="649" y="593" on="0"/>
        <pt x="559" y="665" on="0"/>
        <pt x="508" y="665" on="1"/>
        <pt x="444" y="665" on="0"/>
        <pt x="409" y="626" on="1"/>
        <pt x="368" y="581" on="0"/>
        <pt x="368" y="514" on="1"/>
        <pt x="368" y="476" on="0"/>
        <pt x="379" y="433" on="1"/>
      </contour>
    </TTGlyph>
    <TTGlyph name="Omega" xMin="19" yMin="0" xMax="860" yMax="715">
      <contour>
        <pt x="643" y="530" on="0"/>
        <pt x="528" y="664" on="0"/>
        <pt x="353" y="664" on="0"/>
        <pt x="236" y="527" on="0"/>
        <pt x="236" y="325" on="0"/>
        <pt x="330" y="201" on="0"/>
        <pt x="415" y="175" on="1"/>
        <pt x="395" y="0" on="1"/>
        <pt x="68" y="0" on="1"/>
        <pt x="20" y="260" on="1"/>
        <pt x="30" y="260" on="1"/>
        <pt x="57" y="210" on="0"/>
        <pt x="104" y="175" on="0"/>
        <pt x="147" y="175" on="1"/>
        <pt x="335" y="175" on="1"/>
        <pt x="252" y="175" on="0"/>
        <pt x="112" y="235" on="0"/>
        <pt x="26" y="352" on="0"/>
        <pt x="26" y="511" on="0"/>
        <pt x="134" y="642" on="0"/>
        <pt x="323" y="714" on="0"/>
        <pt x="557" y="714" on="0"/>
        <pt x="746" y="640" on="0"/>
        <pt x="853" y="509" on="0"/>
        <pt x="853" y="351" on="0"/>
        <pt x="768" y="234" on="0"/>
        <pt x="628" y="175" on="0"/>
        <pt x="542" y="175" on="1"/>
        <pt x="732" y="175" on="1"/>
        <pt x="776" y="175" on="0"/>
        <pt x="822" y="210" on="0"/>
        <pt x="850" y="260" on="1"/>
        <pt x="860" y="260" on="1"/>
        <pt x="812" y="0" on="1"/>
        <pt x="482" y="0" on="1"/>
        <pt x="462" y="175" on="1"/>
        <pt x="643" y="235" on="0"/>
        <pt x="643" y="429" on="1"/>
      </contour>
    </TTGlyph>
    <TTGlyph name="Oslash" xMin="-5" yMin="-24" xMax="907" yMax="727">
      <contour>
        <pt x="352" y="433" on="1"/>
        <pt x="321" y="485" on="0"/>
        <pt x="321" y="543" on="1"/>
        <pt x="321" y="623" on="0"/>
        <pt x="381" y="673" on="1"/>
        <pt x="436" y="720" on="0"/>
        <pt x="606" y="720" on="0"/>
        <pt x="686" y="684" on="1"/>
        <pt x="722" y="726" on="1"/>
        <pt x="766" y="692" on="1"/>
        <pt x="737" y="658" on="1"/>
        <pt x="841" y="594" on="0"/>
        <pt x="883" y="485" on="1"/>
        <pt x="906" y="425" on="0"/>
        <pt x="906" y="355" on="1"/>
        <pt x="906" y="187" on="0"/>
        <pt x="657" y="-14" on="0"/>
        <pt x="452" y="-14" on="1"/>
        <pt x="311" y="-14" on="0"/>
        <pt x="203" y="36" on="1"/>
        <pt x="153" y="-23" on="1"/>
        <pt x="109" y="13" on="1"/>
        <pt x="153" y="64" on="1"/>
        <pt x="77" y="113" on="0"/>
        <pt x="-5" y="261" on="0"/>
        <pt x="-5" y="353" on="1"/>
        <pt x="-5" y="489" on="0"/>
        <pt x="164" y="684" on="0"/>
        <pt x="300" y="707" on="1"/>
        <pt x="306" y="697" on="1"/>
        <pt x="265" y="654" on="0"/>
        <pt x="216" y="485" on="0"/>
        <pt x="216" y="267" on="0"/>
        <pt x="253" y="181" on="1"/>
        <pt x="615" y="602" on="1"/>
        <pt x="565" y="665" on="0"/>
        <pt x="494" y="665" on="1"/>
        <pt x="429" y="665" on="0"/>
        <pt x="394" y="626" on="1"/>
        <pt x="353" y="581" on="0"/>
        <pt x="353" y="514" on="1"/>
        <pt x="353" y="476" on="0"/>
        <pt x="364" y="433" on="1"/>
      </contour>
      <contour>
        <pt x="283" y="128" on="1"/>
        <pt x="347" y="36" on="0"/>
        <pt x="557" y="36" on="0"/>
        <pt x="685" y="210" on="0"/>
        <pt x="685" y="355" on="1"/>
        <pt x="685" y="469" on="0"/>
        <pt x="646" y="552" on="1"/>
      </contour>
    </TTGlyph>
    <TTGlyph name="Otilde" xMin="9" yMin="-15" xMax="921" yMax="943">
      <contour>
        <pt x="660" y="933" on="1"/>
        <pt x="673" y="933" on="1"/>
        <pt x="679" y="916" on="0"/>
        <pt x="679" y="877" on="0"/>
        <pt x="670" y="858" on="1"/>
        <pt x="649" y="808" on="0"/>
        <pt x="609" y="790" on="1"/>
        <pt x="585" y="778" on="0"/>
        <pt x="530" y="778" on="0"/>
        <pt x="503" y="789" on="1"/>
        <pt x="477" y="800" on="0"/>
        <pt x="421" y="828" on="0"/>
        <pt x="388" y="833" on="0"/>
        <pt x="359" y="833" on="0"/>
        <pt x="311" y="801" on="0"/>
        <pt x="303" y="781" on="1"/>
        <pt x="290" y="781" on="1"/>
        <pt x="287" y="795" on="0"/>
        <pt x="287" y="810" on="1"/>
        <pt x="287" y="870" on="0"/>
        <pt x="331" y="913" on="1"/>
        <pt x="362" y="943" on="0"/>
        <pt x="437" y="943" on="0"/>
        <pt x="546" y="889" on="0"/>
        <pt x="591" y="889" on="1"/>
        <pt x="605" y="889" on="0"/>
        <pt x="654" y="918" on="0"/>
      </contour>
      <contour>
        <pt x="367" y="433" on="1"/>
        <pt x="336" y="485" on="0"/>
        <pt x="336" y="543" on="1"/>
        <pt x="336" y="605" on="0"/>
        <pt x="413" y="700" on="0"/>
        <pt x="485" y="714" on="1"/>
        <pt x="518" y="719" on="0"/>
        <pt x="538" y="719" on="1"/>
        <pt x="599" y="719" on="0"/>
        <pt x="685" y="692" on="0"/>
        <pt x="765" y="655" on="0"/>
        <pt x="836" y="591" on="0"/>
        <pt x="863" y="553" on="1"/>
        <pt x="921" y="471" on="0"/>
        <pt x="921" y="355" on="1"/>
        <pt x="921" y="187" on="0"/>
        <pt x="672" y="-14" on="0"/>
        <pt x="261" y="-14" on="0"/>
        <pt x="10" y="188" on="0"/>
        <pt x="10" y="353" on="1"/>
        <pt x="10" y="489" on="0"/>
        <pt x="179" y="684" on="0"/>
        <pt x="315" y="707" on="1"/>
        <pt x="321" y="697" on="1"/>
        <pt x="280" y="654" on="0"/>
        <pt x="231" y="485" on="0"/>
        <pt x="231" y="387" on="1"/>
        <pt x="231" y="228" on="0"/>
        <pt x="359" y="36" on="0"/>
        <pt x="468" y="36" on="1"/>
        <pt x="572" y="36" on="0"/>
        <pt x="636" y="122" on="1"/>
        <pt x="700" y="209" on="0"/>
        <pt x="700" y="355" on="1"/>
        <pt x="700" y="447" on="0"/>
        <pt x="649" y="593" on="0"/>
        <pt x="559" y="665" on="0"/>
        <pt x="508" y="665" on="1"/>
        <pt x="444" y="665" on="0"/>
        <pt x="409" y="626" on="1"/>
        <pt x="368" y="581" on="0"/>
        <pt x="368" y="514" on="1"/>
        <pt x="368" y="476" on="0"/>
        <pt x="379" y="433" on="1"/>
      </contour>
    </TTGlyph>
    <TTGlyph name="P" xMin="34" yMin="-1" xMax="731" yMax="719">
      <contour>
        <pt x="112" y="600" on="1"/>
        <pt x="111" y="658" on="0"/>
        <pt x="54" y="658" on="1"/>
        <pt x="49" y="658" on="0"/>
        <pt x="36" y="657" on="1"/>
        <pt x="34" y="666" on="1"/>
        <pt x="118" y="672" on="0"/>
        <pt x="356" y="712" on="0"/>
        <pt x="417" y="718" on="0"/>
        <pt x="443" y="718" on="1"/>
        <pt x="523" y="718" on="0"/>
        <pt x="616" y="689" on="0"/>
        <pt x="686" y="643" on="0"/>
        <pt x="707" y="603" on="1"/>
        <pt x="730" y="559" on="0"/>
        <pt x="730" y="460" on="0"/>
        <pt x="704" y="384" on="0"/>
        <pt x="680" y="357" on="1"/>
        <pt x="608" y="275" on="0"/>
        <pt x="496" y="275" on="1"/>
        <pt x="457" y="275" on="0"/>
        <pt x="425" y="287" on="1"/>
        <pt x="366" y="309" on="0"/>
        <pt x="349" y="365" on="1"/>
        <pt x="359" y="371" on="1"/>
        <pt x="373" y="351" on="0"/>
        <pt x="405" y="351" on="1"/>
        <pt x="454" y="351" on="0"/>
        <pt x="492" y="409" on="1"/>
        <pt x="515" y="446" on="0"/>
        <pt x="515" y="507" on="1"/>
        <pt x="515" y="592" on="0"/>
        <pt x="472" y="633" on="1"/>
        <pt x="440" y="664" on="0"/>
        <pt x="391" y="664" on="1"/>
        <pt x="379" y="664" on="0"/>
        <pt x="366" y="662" on="1"/>
        <pt x="317" y="655" on="1"/>
        <pt x="317" y="73" on="1"/>
        <pt x="318" y="47" on="0"/>
        <pt x="355" y="10" on="0"/>
        <pt x="381" y="10" on="1"/>
        <pt x="394" y="10" on="1"/>
        <pt x="394" y="0" on="1"/>
        <pt x="35" y="0" on="1"/>
        <pt x="35" y="10" on="1"/>
        <pt x="48" y="10" on="1"/>
        <pt x="74" y="10" on="0"/>
        <pt x="111" y="47" on="0"/>
        <pt x="112" y="73" on="1"/>
      </contour>
    </TTGlyph>
    <TTGlyph name="Q" xMin="4" yMin="-302" xMax="1580" yMax="720">
      <contour>
        <pt x="1299" y="-298" on="1"/>
        <pt x="1264" y="-301" on="0"/>
        <pt x="1154" y="-301" on="0"/>
        <pt x="950" y="-266" on="0"/>
        <pt x="743" y="-181" on="0"/>
        <pt x="389" y="-14" on="1"/>
        <pt x="389" y="-4" on="1"/>
        <pt x="499" y="-4" on="0"/>
        <pt x="589" y="70" on="1"/>
        <pt x="633" y="107" on="0"/>
        <pt x="663" y="170" on="1"/>
        <pt x="698" y="246" on="0"/>
        <pt x="698" y="343" on="1"/>
        <pt x="698" y="459" on="0"/>
        <pt x="648" y="551" on="1"/>
        <pt x="620" y="601" on="0"/>
        <pt x="573" y="633" on="1"/>
        <pt x="520" y="670" on="0"/>
        <pt x="450" y="670" on="1"/>
        <pt x="355" y="670" on="0"/>
        <pt x="220" y="511" on="0"/>
        <pt x="220" y="351" on="1"/>
        <pt x="220" y="240" on="0"/>
        <pt x="258" y="169" on="1"/>
        <pt x="300" y="90" on="0"/>
        <pt x="389" y="90" on="1"/>
        <pt x="429" y="90" on="0"/>
        <pt x="458" y="107" on="1"/>
        <pt x="513" y="138" on="0"/>
        <pt x="520" y="216" on="1"/>
        <pt x="531" y="217" on="1"/>
        <pt x="532" y="205" on="0"/>
        <pt x="532" y="157" on="0"/>
        <pt x="520" y="125" on="1"/>
        <pt x="490" y="43" on="0"/>
        <pt x="373" y="43" on="1"/>
        <pt x="342" y="43" on="0"/>
        <pt x="303" y="50" on="1"/>
        <pt x="174" y="74" on="0"/>
        <pt x="5" y="241" on="0"/>
        <pt x="5" y="366" on="1"/>
        <pt x="5" y="439" on="0"/>
        <pt x="37" y="504" on="1"/>
        <pt x="103" y="640" on="0"/>
        <pt x="272" y="693" on="1"/>
        <pt x="356" y="719" on="0"/>
        <pt x="457" y="719" on="1"/>
        <pt x="662" y="719" on="0"/>
        <pt x="912" y="517" on="0"/>
        <pt x="912" y="357" on="1"/>
        <pt x="912" y="283" on="0"/>
        <pt x="855" y="152" on="0"/>
        <pt x="806" y="105" on="1"/>
        <pt x="705" y="7" on="0"/>
        <pt x="564" y="-18" on="1"/>
        <pt x="739" y="-38" on="0"/>
        <pt x="1066" y="-101" on="0"/>
        <pt x="1134" y="-114" on="0"/>
        <pt x="1195" y="-123" on="1"/>
        <pt x="1295" y="-139" on="0"/>
        <pt x="1426" y="-139" on="0"/>
        <pt x="1456" y="-133" on="1"/>
        <pt x="1532" y="-119" on="0"/>
        <pt x="1573" y="-84" on="1"/>
        <pt x="1580" y="-87" on="1"/>
        <pt x="1554" y="-180" on="0"/>
        <pt x="1403" y="-288" on="0"/>
      </contour>
    </TTGlyph>
    <TTGlyph name="R" xMin="35" yMin="-236" xMax="1174" yMax="701">
      <contour>
        <pt x="721" y="504" on="1"/>
        <pt x="721" y="450" on="0"/>
        <pt x="662" y="359" on="0"/>
        <pt x="578" y="322" on="0"/>
        <pt x="537" y="322" on="1"/>
        <pt x="525" y="322" on="0"/>
        <pt x="514" y="323" on="1"/>
        <pt x="577" y="310" on="0"/>
        <pt x="629" y="245" on="1"/>
        <pt x="653" y="216" on="0"/>
        <pt x="713" y="125" on="0"/>
        <pt x="725" y="108" on="1"/>
        <pt x="785" y="22" on="0"/>
        <pt x="845" y="-32" on="1"/>
        <pt x="973" y="-148" on="0"/>
        <pt x="1174" y="-160" on="1"/>
        <pt x="1174" y="-170" on="1"/>
        <pt x="1119" y="-209" on="0"/>
        <pt x="1036" y="-226" on="1"/>
        <pt x="987" y="-236" on="0"/>
        <pt x="890" y="-236" on="0"/>
        <pt x="782" y="-208" on="0"/>
        <pt x="678" y="-152" on="0"/>
        <pt x="571" y="-46" on="0"/>
        <pt x="503" y="65" on="0"/>
        <pt x="453" y="166" on="0"/>
        <pt x="408" y="264" on="0"/>
        <pt x="403" y="275" on="1"/>
        <pt x="374" y="335" on="0"/>
        <pt x="351" y="342" on="1"/>
        <pt x="351" y="352" on="1"/>
        <pt x="367" y="352" on="1"/>
        <pt x="432" y="352" on="0"/>
        <pt x="474" y="403" on="1"/>
        <pt x="498" y="432" on="0"/>
        <pt x="506" y="495" on="0"/>
        <pt x="506" y="504" on="1"/>
        <pt x="506" y="579" on="0"/>
        <pt x="418" y="648" on="0"/>
        <pt x="362" y="648" on="1"/>
        <pt x="318" y="648" on="1"/>
        <pt x="318" y="73" on="1"/>
        <pt x="318" y="47" on="0"/>
        <pt x="356" y="10" on="0"/>
        <pt x="382" y="10" on="1"/>
        <pt x="394" y="10" on="1"/>
        <pt x="394" y="0" on="1"/>
        <pt x="35" y="0" on="1"/>
        <pt x="35" y="10" on="1"/>
        <pt x="48" y="10" on="1"/>
        <pt x="74" y="10" on="0"/>
        <pt x="111" y="46" on="0"/>
        <pt x="112" y="72" on="1"/>
        <pt x="112" y="627" on="1"/>
        <pt x="111" y="664" on="0"/>
        <pt x="80" y="682" on="1"/>
        <pt x="65" y="690" on="0"/>
        <pt x="48" y="690" on="1"/>
        <pt x="36" y="690" on="1"/>
        <pt x="36" y="700" on="1"/>
        <pt x="426" y="700" on="1"/>
        <pt x="575" y="700" on="0"/>
        <pt x="652" y="648" on="1"/>
        <pt x="721" y="601" on="0"/>
      </contour>
    </TTGlyph>
    <TTGlyph name="Racute" xMin="35" yMin="-236" xMax="1174" yMax="954">
      <contour>
        <pt x="374" y="761" on="1"/>
        <pt x="367" y="768" on="1"/>
        <pt x="386" y="812" on="0"/>
        <pt x="479" y="917" on="0"/>
        <pt x="522" y="954" on="1"/>
        <pt x="586" y="927" on="0"/>
        <pt x="607" y="854" on="1"/>
        <pt x="557" y="821" on="0"/>
        <pt x="427" y="767" on="0"/>
      </contour>
      <contour>
        <pt x="721" y="510" on="1"/>
        <pt x="721" y="420" on="0"/>
        <pt x="606" y="322" on="0"/>
        <pt x="537" y="322" on="1"/>
        <pt x="526" y="322" on="0"/>
        <pt x="514" y="323" on="1"/>
        <pt x="577" y="310" on="0"/>
        <pt x="629" y="245" on="1"/>
        <pt x="653" y="216" on="0"/>
        <pt x="713" y="125" on="0"/>
        <pt x="725" y="108" on="1"/>
        <pt x="785" y="22" on="0"/>
        <pt x="845" y="-32" on="1"/>
        <pt x="973" y="-148" on="0"/>
        <pt x="1174" y="-160" on="1"/>
        <pt x="1174" y="-170" on="1"/>
        <pt x="1119" y="-209" on="0"/>
        <pt x="1036" y="-226" on="1"/>
        <pt x="987" y="-236" on="0"/>
        <pt x="890" y="-236" on="0"/>
        <pt x="782" y="-208" on="0"/>
        <pt x="678" y="-152" on="0"/>
        <pt x="571" y="-46" on="0"/>
        <pt x="503" y="65" on="0"/>
        <pt x="453" y="166" on="0"/>
        <pt x="408" y="264" on="0"/>
        <pt x="403" y="275" on="1"/>
        <pt x="374" y="335" on="0"/>
        <pt x="351" y="342" on="1"/>
        <pt x="351" y="352" on="1"/>
        <pt x="367" y="352" on="1"/>
        <pt x="432" y="352" on="0"/>
        <pt x="474" y="403" on="1"/>
        <pt x="498" y="432" on="0"/>
        <pt x="506" y="495" on="0"/>
        <pt x="506" y="504" on="1"/>
        <pt x="506" y="579" on="0"/>
        <pt x="418" y="648" on="0"/>
        <pt x="362" y="648" on="1"/>
        <pt x="318" y="648" on="1"/>
        <pt x="318" y="73" on="1"/>
        <pt x="318" y="47" on="0"/>
        <pt x="355" y="10" on="0"/>
        <pt x="382" y="10" on="1"/>
        <pt x="394" y="10" on="1"/>
        <pt x="395" y="0" on="1"/>
        <pt x="35" y="0" on="1"/>
        <pt x="35" y="10" on="1"/>
        <pt x="48" y="10" on="1"/>
        <pt x="74" y="10" on="0"/>
        <pt x="111" y="46" on="0"/>
        <pt x="112" y="72" on="1"/>
        <pt x="112" y="627" on="1"/>
        <pt x="111" y="653" on="0"/>
        <pt x="74" y="690" on="0"/>
        <pt x="48" y="690" on="1"/>
        <pt x="36" y="690" on="1"/>
        <pt x="36" y="700" on="1"/>
        <pt x="426" y="700" on="1"/>
        <pt x="575" y="700" on="0"/>
        <pt x="652" y="648" on="1"/>
        <pt x="682" y="628" on="0"/>
        <pt x="721" y="557" on="0"/>
      </contour>
    </TTGlyph>
    <TTGlyph name="Rcaron" xMin="35" yMin="-236" xMax="1174" yMax="948">
      <contour>
        <pt x="398" y="764" on="1"/>
        <pt x="386" y="764" on="1"/>
        <pt x="217" y="939" on="1"/>
        <pt x="224" y="947" on="1"/>
        <pt x="392" y="883" on="1"/>
        <pt x="550" y="947" on="1"/>
        <pt x="557" y="939" on="1"/>
      </contour>
      <contour>
        <pt x="721" y="510" on="1"/>
        <pt x="721" y="420" on="0"/>
        <pt x="606" y="322" on="0"/>
        <pt x="537" y="322" on="1"/>
        <pt x="526" y="322" on="0"/>
        <pt x="514" y="323" on="1"/>
        <pt x="577" y="310" on="0"/>
        <pt x="629" y="245" on="1"/>
        <pt x="653" y="216" on="0"/>
        <pt x="713" y="125" on="0"/>
        <pt x="725" y="108" on="1"/>
        <pt x="785" y="22" on="0"/>
        <pt x="845" y="-32" on="1"/>
        <pt x="973" y="-148" on="0"/>
        <pt x="1174" y="-160" on="1"/>
        <pt x="1174" y="-170" on="1"/>
        <pt x="1119" y="-209" on="0"/>
        <pt x="1036" y="-226" on="1"/>
        <pt x="987" y="-236" on="0"/>
        <pt x="890" y="-236" on="0"/>
        <pt x="782" y="-208" on="0"/>
        <pt x="678" y="-152" on="0"/>
        <pt x="571" y="-46" on="0"/>
        <pt x="503" y="65" on="0"/>
        <pt x="453" y="166" on="0"/>
        <pt x="408" y="264" on="0"/>
        <pt x="403" y="275" on="1"/>
        <pt x="374" y="335" on="0"/>
        <pt x="351" y="342" on="1"/>
        <pt x="351" y="352" on="1"/>
        <pt x="367" y="352" on="1"/>
        <pt x="432" y="352" on="0"/>
        <pt x="474" y="403" on="1"/>
        <pt x="498" y="432" on="0"/>
        <pt x="506" y="495" on="0"/>
        <pt x="506" y="504" on="1"/>
        <pt x="506" y="579" on="0"/>
        <pt x="418" y="648" on="0"/>
        <pt x="362" y="648" on="1"/>
        <pt x="318" y="648" on="1"/>
        <pt x="318" y="73" on="1"/>
        <pt x="318" y="47" on="0"/>
        <pt x="356" y="10" on="0"/>
        <pt x="382" y="10" on="1"/>
        <pt x="394" y="10" on="1"/>
        <pt x="394" y="0" on="1"/>
        <pt x="35" y="0" on="1"/>
        <pt x="35" y="10" on="1"/>
        <pt x="48" y="10" on="1"/>
        <pt x="74" y="10" on="0"/>
        <pt x="111" y="46" on="0"/>
        <pt x="112" y="72" on="1"/>
        <pt x="112" y="627" on="1"/>
        <pt x="111" y="653" on="0"/>
        <pt x="74" y="690" on="0"/>
        <pt x="48" y="690" on="1"/>
        <pt x="36" y="690" on="1"/>
        <pt x="36" y="700" on="1"/>
        <pt x="426" y="700" on="1"/>
        <pt x="575" y="700" on="0"/>
        <pt x="652" y="648" on="1"/>
        <pt x="682" y="628" on="0"/>
        <pt x="721" y="557" on="0"/>
      </contour>
    </TTGlyph>
    <TTGlyph name="Rcommaaccent" xMin="35" yMin="-275" xMax="1174" yMax="701">
      <contour>
        <pt x="721" y="504" on="1"/>
        <pt x="721" y="450" on="0"/>
        <pt x="662" y="359" on="0"/>
        <pt x="578" y="322" on="0"/>
        <pt x="537" y="322" on="1"/>
        <pt x="525" y="322" on="0"/>
        <pt x="514" y="323" on="1"/>
        <pt x="577" y="310" on="0"/>
        <pt x="629" y="245" on="1"/>
        <pt x="653" y="216" on="0"/>
        <pt x="713" y="125" on="0"/>
        <pt x="725" y="108" on="1"/>
        <pt x="785" y="22" on="0"/>
        <pt x="845" y="-32" on="1"/>
        <pt x="973" y="-148" on="0"/>
        <pt x="1174" y="-160" on="1"/>
        <pt x="1174" y="-170" on="1"/>
        <pt x="1119" y="-209" on="0"/>
        <pt x="1036" y="-226" on="1"/>
        <pt x="987" y="-236" on="0"/>
        <pt x="890" y="-236" on="0"/>
        <pt x="782" y="-208" on="0"/>
        <pt x="678" y="-152" on="0"/>
        <pt x="571" y="-46" on="0"/>
        <pt x="503" y="65" on="0"/>
        <pt x="453" y="166" on="0"/>
        <pt x="408" y="264" on="0"/>
        <pt x="403" y="275" on="1"/>
        <pt x="374" y="335" on="0"/>
        <pt x="351" y="342" on="1"/>
        <pt x="351" y="352" on="1"/>
        <pt x="367" y="352" on="1"/>
        <pt x="432" y="352" on="0"/>
        <pt x="474" y="403" on="1"/>
        <pt x="498" y="432" on="0"/>
        <pt x="506" y="495" on="0"/>
        <pt x="506" y="504" on="1"/>
        <pt x="506" y="579" on="0"/>
        <pt x="418" y="648" on="0"/>
        <pt x="362" y="648" on="1"/>
        <pt x="318" y="648" on="1"/>
        <pt x="318" y="73" on="1"/>
        <pt x="318" y="47" on="0"/>
        <pt x="356" y="10" on="0"/>
        <pt x="382" y="10" on="1"/>
        <pt x="394" y="10" on="1"/>
        <pt x="394" y="0" on="1"/>
        <pt x="35" y="0" on="1"/>
        <pt x="35" y="10" on="1"/>
        <pt x="48" y="10" on="1"/>
        <pt x="74" y="10" on="0"/>
        <pt x="111" y="46" on="0"/>
        <pt x="112" y="72" on="1"/>
        <pt x="112" y="627" on="1"/>
        <pt x="111" y="664" on="0"/>
        <pt x="80" y="682" on="1"/>
        <pt x="65" y="690" on="0"/>
        <pt x="48" y="690" on="1"/>
        <pt x="36" y="690" on="1"/>
        <pt x="36" y="700" on="1"/>
        <pt x="426" y="700" on="1"/>
        <pt x="575" y="700" on="0"/>
        <pt x="652" y="648" on="1"/>
        <pt x="721" y="601" on="0"/>
      </contour>
      <contour>
        <pt x="419" y="-264" on="1"/>
        <pt x="450" y="-250" on="0"/>
        <pt x="450" y="-195" on="0"/>
        <pt x="414" y="-154" on="0"/>
        <pt x="414" y="-128" on="1"/>
        <pt x="414" y="-93" on="0"/>
        <pt x="438" y="-76" on="1"/>
        <pt x="454" y="-64" on="0"/>
        <pt x="468" y="-64" on="1"/>
        <pt x="520" y="-64" on="0"/>
        <pt x="539" y="-105" on="1"/>
        <pt x="550" y="-128" on="0"/>
        <pt x="550" y="-160" on="0"/>
        <pt x="543" y="-201" on="0"/>
        <pt x="510" y="-252" on="0"/>
        <pt x="461" y="-275" on="0"/>
        <pt x="431" y="-275" on="0"/>
        <pt x="421" y="-273" on="1"/>
      </contour>
    </TTGlyph>
    <TTGlyph name="S" xMin="14" yMin="-104" xMax="648" yMax="714">
      <contour>
        <pt x="647" y="170" on="1"/>
        <pt x="647" y="127" on="0"/>
        <pt x="609" y="30" on="0"/>
        <pt x="525" y="-52" on="0"/>
        <pt x="393" y="-104" on="0"/>
        <pt x="237" y="-104" on="0"/>
        <pt x="175" y="-79" on="1"/>
        <pt x="59" y="-33" on="0"/>
        <pt x="24" y="82" on="1"/>
        <pt x="15" y="113" on="0"/>
        <pt x="15" y="140" on="1"/>
        <pt x="15" y="227" on="0"/>
        <pt x="68" y="303" on="1"/>
        <pt x="77" y="296" on="1"/>
        <pt x="44" y="237" on="0"/>
        <pt x="44" y="182" on="1"/>
        <pt x="44" y="114" on="0"/>
        <pt x="112" y="10" on="0"/>
        <pt x="226" y="-48" on="0"/>
        <pt x="345" y="-48" on="0"/>
        <pt x="427" y="-10" on="0"/>
        <pt x="465" y="54" on="0"/>
        <pt x="465" y="124" on="0"/>
        <pt x="415" y="197" on="0"/>
        <pt x="366" y="224" on="1"/>
        <pt x="203" y="320" on="1"/>
        <pt x="79" y="393" on="0"/>
        <pt x="79" y="508" on="1"/>
        <pt x="79" y="611" on="0"/>
        <pt x="151" y="667" on="1"/>
        <pt x="211" y="714" on="0"/>
        <pt x="314" y="714" on="1"/>
        <pt x="380" y="714" on="0"/>
        <pt x="482" y="704" on="1"/>
        <pt x="560" y="704" on="1"/>
        <pt x="539" y="541" on="1"/>
        <pt x="529" y="541" on="1"/>
        <pt x="529" y="596" on="0"/>
        <pt x="443" y="664" on="0"/>
        <pt x="309" y="664" on="0"/>
        <pt x="237" y="618" on="0"/>
        <pt x="234" y="580" on="1"/>
        <pt x="231" y="554" on="0"/>
        <pt x="248" y="536" on="1"/>
        <pt x="263" y="520" on="0"/>
        <pt x="293" y="503" on="0"/>
        <pt x="317" y="489" on="0"/>
        <pt x="322" y="487" on="1"/>
        <pt x="509" y="380" on="1"/>
        <pt x="572" y="345" on="0"/>
        <pt x="607" y="293" on="1"/>
        <pt x="647" y="234" on="0"/>
      </contour>
    </TTGlyph>
    <TTGlyph name="Sacute" xMin="14" yMin="-104" xMax="647" yMax="954">
      <contour>
        <pt x="323" y="761" on="1"/>
        <pt x="316" y="768" on="1"/>
        <pt x="335" y="812" on="0"/>
        <pt x="427" y="917" on="0"/>
        <pt x="470" y="954" on="1"/>
        <pt x="534" y="927" on="0"/>
        <pt x="556" y="854" on="1"/>
        <pt x="506" y="821" on="0"/>
        <pt x="375" y="767" on="0"/>
      </contour>
      <contour>
        <pt x="647" y="168" on="1"/>
        <pt x="647" y="81" on="0"/>
        <pt x="586" y="10" on="1"/>
        <pt x="525" y="-61" on="0"/>
        <pt x="426" y="-89" on="1"/>
        <pt x="374" y="-104" on="0"/>
        <pt x="237" y="-104" on="0"/>
        <pt x="175" y="-79" on="1"/>
        <pt x="59" y="-33" on="0"/>
        <pt x="24" y="82" on="1"/>
        <pt x="15" y="113" on="0"/>
        <pt x="15" y="140" on="1"/>
        <pt x="15" y="227" on="0"/>
        <pt x="68" y="303" on="1"/>
        <pt x="77" y="296" on="1"/>
        <pt x="44" y="237" on="0"/>
        <pt x="44" y="182" on="1"/>
        <pt x="44" y="114" on="0"/>
        <pt x="112" y="10" on="0"/>
        <pt x="226" y="-48" on="0"/>
        <pt x="345" y="-48" on="0"/>
        <pt x="427" y="-10" on="0"/>
        <pt x="465" y="54" on="0"/>
        <pt x="465" y="124" on="0"/>
        <pt x="415" y="197" on="0"/>
        <pt x="366" y="224" on="1"/>
        <pt x="203" y="320" on="1"/>
        <pt x="79" y="393" on="0"/>
        <pt x="79" y="508" on="1"/>
        <pt x="79" y="611" on="0"/>
        <pt x="151" y="667" on="1"/>
        <pt x="211" y="714" on="0"/>
        <pt x="314" y="714" on="1"/>
        <pt x="380" y="714" on="0"/>
        <pt x="482" y="704" on="1"/>
        <pt x="560" y="704" on="1"/>
        <pt x="539" y="541" on="1"/>
        <pt x="529" y="541" on="1"/>
        <pt x="529" y="596" on="0"/>
        <pt x="443" y="664" on="0"/>
        <pt x="370" y="664" on="1"/>
        <pt x="288" y="664" on="0"/>
        <pt x="252" y="623" on="1"/>
        <pt x="222" y="589" on="0"/>
        <pt x="239" y="549" on="1"/>
        <pt x="248" y="528" on="0"/>
        <pt x="305" y="496" on="1"/>
        <pt x="317" y="489" on="0"/>
        <pt x="322" y="487" on="1"/>
        <pt x="509" y="380" on="1"/>
        <pt x="647" y="302" on="0"/>
      </contour>
    </TTGlyph>
    <TTGlyph name="Scaron" xMin="14" yMin="-105" xMax="647" yMax="948">
      <contour>
        <pt x="346" y="764" on="1"/>
        <pt x="334" y="764" on="1"/>
        <pt x="165" y="939" on="1"/>
        <pt x="173" y="947" on="1"/>
        <pt x="341" y="883" on="1"/>
        <pt x="499" y="947" on="1"/>
        <pt x="506" y="939" on="1"/>
      </contour>
      <contour>
        <pt x="647" y="168" on="1"/>
        <pt x="647" y="81" on="0"/>
        <pt x="586" y="10" on="1"/>
        <pt x="525" y="-61" on="0"/>
        <pt x="426" y="-89" on="1"/>
        <pt x="374" y="-104" on="0"/>
        <pt x="237" y="-104" on="0"/>
        <pt x="175" y="-79" on="1"/>
        <pt x="59" y="-33" on="0"/>
        <pt x="24" y="82" on="1"/>
        <pt x="15" y="113" on="0"/>
        <pt x="15" y="140" on="1"/>
        <pt x="15" y="227" on="0"/>
        <pt x="68" y="303" on="1"/>
        <pt x="77" y="296" on="1"/>
        <pt x="44" y="237" on="0"/>
        <pt x="44" y="182" on="1"/>
        <pt x="44" y="114" on="0"/>
        <pt x="112" y="10" on="0"/>
        <pt x="226" y="-48" on="0"/>
        <pt x="345" y="-48" on="0"/>
        <pt x="427" y="-10" on="0"/>
        <pt x="465" y="54" on="0"/>
        <pt x="465" y="124" on="0"/>
        <pt x="415" y="197" on="0"/>
        <pt x="366" y="224" on="1"/>
        <pt x="203" y="320" on="1"/>
        <pt x="79" y="393" on="0"/>
        <pt x="79" y="508" on="1"/>
        <pt x="79" y="611" on="0"/>
        <pt x="151" y="667" on="1"/>
        <pt x="211" y="714" on="0"/>
        <pt x="314" y="714" on="1"/>
        <pt x="380" y="714" on="0"/>
        <pt x="482" y="704" on="1"/>
        <pt x="560" y="704" on="1"/>
        <pt x="539" y="541" on="1"/>
        <pt x="529" y="541" on="1"/>
        <pt x="529" y="596" on="0"/>
        <pt x="443" y="664" on="0"/>
        <pt x="309" y="664" on="0"/>
        <pt x="237" y="618" on="0"/>
        <pt x="234" y="580" on="1"/>
        <pt x="231" y="554" on="0"/>
        <pt x="248" y="536" on="1"/>
        <pt x="263" y="520" on="0"/>
        <pt x="293" y="503" on="0"/>
        <pt x="317" y="489" on="0"/>
        <pt x="322" y="487" on="1"/>
        <pt x="509" y="380" on="1"/>
        <pt x="647" y="302" on="0"/>
      </contour>
    </TTGlyph>
    <TTGlyph name="Scedilla" xMin="15" yMin="-307" xMax="648" yMax="714">
      <contour>
        <pt x="645" y="198" on="1"/>
        <pt x="647" y="184" on="0"/>
        <pt x="647" y="133" on="0"/>
        <pt x="617" y="43" on="0"/>
        <pt x="543" y="-39" on="0"/>
        <pt x="424" y="-96" on="0"/>
        <pt x="352" y="-102" on="1"/>
        <pt x="311" y="-150" on="1"/>
        <pt x="325" y="-145" on="0"/>
        <pt x="345" y="-145" on="0"/>
        <pt x="366" y="-145" on="0"/>
        <pt x="406" y="-156" on="0"/>
        <pt x="430" y="-186" on="0"/>
        <pt x="430" y="-198" on="1"/>
        <pt x="430" y="-244" on="0"/>
        <pt x="398" y="-271" on="1"/>
        <pt x="356" y="-307" on="0"/>
        <pt x="298" y="-307" on="1"/>
        <pt x="270" y="-307" on="0"/>
        <pt x="241" y="-298" on="1"/>
        <pt x="242" y="-288" on="1"/>
        <pt x="278" y="-288" on="0"/>
        <pt x="346" y="-247" on="0"/>
        <pt x="346" y="-207" on="1"/>
        <pt x="346" y="-191" on="0"/>
        <pt x="330" y="-179" on="1"/>
        <pt x="313" y="-168" on="0"/>
        <pt x="268" y="-168" on="0"/>
        <pt x="248" y="-174" on="1"/>
        <pt x="243" y="-164" on="1"/>
        <pt x="290" y="-103" on="1"/>
        <pt x="200" y="-98" on="0"/>
        <pt x="134" y="-58" on="1"/>
        <pt x="16" y="14" on="0"/>
        <pt x="16" y="144" on="1"/>
        <pt x="16" y="229" on="0"/>
        <pt x="68" y="303" on="1"/>
        <pt x="77" y="296" on="1"/>
        <pt x="44" y="237" on="0"/>
        <pt x="44" y="182" on="1"/>
        <pt x="44" y="114" on="0"/>
        <pt x="112" y="10" on="0"/>
        <pt x="226" y="-48" on="0"/>
        <pt x="345" y="-48" on="0"/>
        <pt x="427" y="-10" on="0"/>
        <pt x="465" y="54" on="0"/>
        <pt x="465" y="124" on="0"/>
        <pt x="415" y="197" on="0"/>
        <pt x="366" y="224" on="1"/>
        <pt x="203" y="320" on="1"/>
        <pt x="79" y="393" on="0"/>
        <pt x="79" y="508" on="1"/>
        <pt x="79" y="611" on="0"/>
        <pt x="151" y="667" on="1"/>
        <pt x="211" y="714" on="0"/>
        <pt x="314" y="714" on="1"/>
        <pt x="380" y="714" on="0"/>
        <pt x="482" y="704" on="1"/>
        <pt x="560" y="704" on="1"/>
        <pt x="539" y="541" on="1"/>
        <pt x="529" y="541" on="1"/>
        <pt x="529" y="596" on="0"/>
        <pt x="443" y="664" on="0"/>
        <pt x="309" y="664" on="0"/>
        <pt x="237" y="618" on="0"/>
        <pt x="234" y="580" on="1"/>
        <pt x="231" y="554" on="0"/>
        <pt x="248" y="536" on="1"/>
        <pt x="263" y="520" on="0"/>
        <pt x="293" y="503" on="0"/>
        <pt x="317" y="489" on="0"/>
        <pt x="322" y="487" on="1"/>
        <pt x="509" y="380" on="1"/>
        <pt x="570" y="346" on="0"/>
        <pt x="639" y="248" on="0"/>
      </contour>
    </TTGlyph>
    <TTGlyph name="Scommaaccent" xMin="14" yMin="-373" xMax="648" yMax="714">
      <contour>
        <pt x="647" y="170" on="1"/>
        <pt x="647" y="127" on="0"/>
        <pt x="609" y="30" on="0"/>
        <pt x="525" y="-52" on="0"/>
        <pt x="393" y="-104" on="0"/>
        <pt x="237" y="-104" on="0"/>
        <pt x="175" y="-79" on="1"/>
        <pt x="59" y="-33" on="0"/>
        <pt x="24" y="82" on="1"/>
        <pt x="15" y="113" on="0"/>
        <pt x="15" y="140" on="1"/>
        <pt x="15" y="227" on="0"/>
        <pt x="68" y="303" on="1"/>
        <pt x="77" y="296" on="1"/>
        <pt x="44" y="237" on="0"/>
        <pt x="44" y="182" on="1"/>
        <pt x="44" y="114" on="0"/>
        <pt x="112" y="10" on="0"/>
        <pt x="226" y="-48" on="0"/>
        <pt x="345" y="-48" on="0"/>
        <pt x="427" y="-10" on="0"/>
        <pt x="465" y="54" on="0"/>
        <pt x="465" y="124" on="0"/>
        <pt x="415" y="197" on="0"/>
        <pt x="366" y="224" on="1"/>
        <pt x="203" y="320" on="1"/>
        <pt x="79" y="393" on="0"/>
        <pt x="79" y="508" on="1"/>
        <pt x="79" y="611" on="0"/>
        <pt x="151" y="667" on="1"/>
        <pt x="211" y="714" on="0"/>
        <pt x="314" y="714" on="1"/>
        <pt x="380" y="714" on="0"/>
        <pt x="482" y="704" on="1"/>
        <pt x="560" y="704" on="1"/>
        <pt x="539" y="541" on="1"/>
        <pt x="529" y="541" on="1"/>
        <pt x="529" y="596" on="0"/>
        <pt x="443" y="664" on="0"/>
        <pt x="309" y="664" on="0"/>
        <pt x="237" y="618" on="0"/>
        <pt x="234" y="580" on="1"/>
        <pt x="231" y="554" on="0"/>
        <pt x="248" y="536" on="1"/>
        <pt x="263" y="520" on="0"/>
        <pt x="293" y="503" on="0"/>
        <pt x="317" y="489" on="0"/>
        <pt x="322" y="487" on="1"/>
        <pt x="509" y="380" on="1"/>
        <pt x="572" y="345" on="0"/>
        <pt x="607" y="293" on="1"/>
        <pt x="647" y="234" on="0"/>
      </contour>
      <contour>
        <pt x="251" y="-362" on="1"/>
        <pt x="283" y="-348" on="0"/>
        <pt x="283" y="-314" on="1"/>
        <pt x="283" y="-293" on="0"/>
        <pt x="249" y="-253" on="0"/>
        <pt x="249" y="-227" on="1"/>
        <pt x="249" y="-191" on="0"/>
        <pt x="273" y="-174" on="1"/>
        <pt x="290" y="-162" on="0"/>
        <pt x="304" y="-162" on="1"/>
        <pt x="356" y="-162" on="0"/>
        <pt x="374" y="-203" on="1"/>
        <pt x="384" y="-225" on="0"/>
        <pt x="384" y="-258" on="0"/>
        <pt x="376" y="-299" on="0"/>
        <pt x="342" y="-350" on="0"/>
        <pt x="293" y="-373" on="0"/>
        <pt x="263" y="-373" on="0"/>
        <pt x="253" y="-371" on="1"/>
      </contour>
    </TTGlyph>
    <TTGlyph name="T" xMin="-66" yMin="-1" xMax="741" yMax="720">
      <contour>
        <pt x="-4" y="444" on="1"/>
        <pt x="-65" y="498" on="0"/>
        <pt x="-65" y="560" on="1"/>
        <pt x="-65" y="618" on="0"/>
        <pt x="-18" y="658" on="1"/>
        <pt x="32" y="701" on="0"/>
        <pt x="112" y="701" on="1"/>
        <pt x="623" y="701" on="1"/>
        <pt x="654" y="701" on="0"/>
        <pt x="726" y="713" on="0"/>
        <pt x="741" y="719" on="1"/>
        <pt x="741" y="513" on="1"/>
        <pt x="731" y="514" on="1"/>
        <pt x="731" y="521" on="1"/>
        <pt x="731" y="602" on="0"/>
        <pt x="671" y="635" on="1"/>
        <pt x="642" y="650" on="0"/>
        <pt x="602" y="651" on="1"/>
        <pt x="504" y="651" on="1"/>
        <pt x="504" y="72" on="1"/>
        <pt x="505" y="46" on="0"/>
        <pt x="542" y="10" on="0"/>
        <pt x="568" y="10" on="1"/>
        <pt x="581" y="10" on="1"/>
        <pt x="581" y="0" on="1"/>
        <pt x="222" y="0" on="1"/>
        <pt x="222" y="10" on="1"/>
        <pt x="235" y="10" on="1"/>
        <pt x="261" y="10" on="0"/>
        <pt x="298" y="46" on="0"/>
        <pt x="299" y="71" on="1"/>
        <pt x="299" y="651" on="1"/>
        <pt x="112" y="651" on="1"/>
        <pt x="56" y="651" on="0"/>
        <pt x="19" y="624" on="1"/>
        <pt x="-24" y="593" on="0"/>
        <pt x="-24" y="500" on="0"/>
        <pt x="7" y="449" on="1"/>
      </contour>
    </TTGlyph>
    <TTGlyph name="Tbar" xMin="-66" yMin="-1" xMax="741" yMax="720">
      <contour>
        <pt x="-4" y="444" on="1"/>
        <pt x="-66" y="498" on="0"/>
        <pt x="-66" y="561" on="1"/>
        <pt x="-66" y="603" on="0"/>
        <pt x="-40" y="636" on="1"/>
        <pt x="12" y="701" on="0"/>
        <pt x="112" y="701" on="1"/>
        <pt x="623" y="701" on="1"/>
        <pt x="666" y="702" on="0"/>
        <pt x="732" y="715" on="0"/>
        <pt x="741" y="719" on="1"/>
        <pt x="741" y="513" on="1"/>
        <pt x="731" y="514" on="1"/>
        <pt x="731" y="521" on="1"/>
        <pt x="731" y="602" on="0"/>
        <pt x="671" y="635" on="1"/>
        <pt x="642" y="650" on="0"/>
        <pt x="602" y="651" on="1"/>
        <pt x="504" y="651" on="1"/>
        <pt x="504" y="403" on="1"/>
        <pt x="654" y="403" on="1"/>
        <pt x="654" y="353" on="1"/>
        <pt x="504" y="353" on="1"/>
        <pt x="504" y="72" on="1"/>
        <pt x="505" y="46" on="0"/>
        <pt x="542" y="10" on="0"/>
        <pt x="568" y="10" on="1"/>
        <pt x="581" y="10" on="1"/>
        <pt x="581" y="0" on="1"/>
        <pt x="222" y="0" on="1"/>
        <pt x="222" y="10" on="1"/>
        <pt x="235" y="10" on="1"/>
        <pt x="261" y="10" on="0"/>
        <pt x="298" y="46" on="0"/>
        <pt x="299" y="71" on="1"/>
        <pt x="299" y="353" on="1"/>
        <pt x="148" y="353" on="1"/>
        <pt x="148" y="403" on="1"/>
        <pt x="299" y="403" on="1"/>
        <pt x="299" y="651" on="1"/>
        <pt x="112" y="651" on="1"/>
        <pt x="57" y="651" on="0"/>
        <pt x="20" y="624" on="1"/>
        <pt x="-24" y="593" on="0"/>
        <pt x="-24" y="500" on="0"/>
        <pt x="7" y="449" on="1"/>
      </contour>
    </TTGlyph>
    <TTGlyph name="Tcaron" xMin="-66" yMin="-1" xMax="741" yMax="948">
      <contour>
        <pt x="409" y="764" on="1"/>
        <pt x="397" y="764" on="1"/>
        <pt x="228" y="939" on="1"/>
        <pt x="235" y="947" on="1"/>
        <pt x="403" y="883" on="1"/>
        <pt x="561" y="947" on="1"/>
        <pt x="568" y="939" on="1"/>
      </contour>
      <contour>
        <pt x="-4" y="444" on="1"/>
        <pt x="-65" y="498" on="0"/>
        <pt x="-65" y="560" on="1"/>
        <pt x="-65" y="618" on="0"/>
        <pt x="-18" y="658" on="1"/>
        <pt x="32" y="701" on="0"/>
        <pt x="112" y="701" on="1"/>
        <pt x="623" y="701" on="1"/>
        <pt x="666" y="702" on="0"/>
        <pt x="731" y="715" on="0"/>
        <pt x="741" y="719" on="1"/>
        <pt x="741" y="513" on="1"/>
        <pt x="731" y="514" on="1"/>
        <pt x="731" y="521" on="1"/>
        <pt x="731" y="602" on="0"/>
        <pt x="671" y="635" on="1"/>
        <pt x="642" y="650" on="0"/>
        <pt x="602" y="651" on="1"/>
        <pt x="504" y="651" on="1"/>
        <pt x="504" y="72" on="1"/>
        <pt x="505" y="46" on="0"/>
        <pt x="542" y="10" on="0"/>
        <pt x="568" y="10" on="1"/>
        <pt x="581" y="10" on="1"/>
        <pt x="581" y="0" on="1"/>
        <pt x="222" y="0" on="1"/>
        <pt x="222" y="10" on="1"/>
        <pt x="235" y="10" on="1"/>
        <pt x="261" y="10" on="0"/>
        <pt x="298" y="46" on="0"/>
        <pt x="299" y="71" on="1"/>
        <pt x="299" y="651" on="1"/>
        <pt x="112" y="651" on="1"/>
        <pt x="56" y="651" on="0"/>
        <pt x="19" y="624" on="1"/>
        <pt x="-24" y="593" on="0"/>
        <pt x="-24" y="500" on="0"/>
        <pt x="7" y="449" on="1"/>
      </contour>
    </TTGlyph>
    <TTGlyph name="Tcedilla" xMin="-66" yMin="-205" xMax="741" yMax="720">
      <contour>
        <pt x="-4" y="444" on="1"/>
        <pt x="-65" y="498" on="0"/>
        <pt x="-65" y="560" on="1"/>
        <pt x="-65" y="618" on="0"/>
        <pt x="-18" y="658" on="1"/>
        <pt x="32" y="701" on="0"/>
        <pt x="112" y="701" on="1"/>
        <pt x="623" y="701" on="1"/>
        <pt x="666" y="702" on="0"/>
        <pt x="731" y="715" on="0"/>
        <pt x="741" y="719" on="1"/>
        <pt x="741" y="513" on="1"/>
        <pt x="731" y="514" on="1"/>
        <pt x="731" y="521" on="1"/>
        <pt x="731" y="581" on="0"/>
        <pt x="663" y="650" on="0"/>
        <pt x="602" y="651" on="1"/>
        <pt x="504" y="651" on="1"/>
        <pt x="504" y="72" on="1"/>
        <pt x="505" y="46" on="0"/>
        <pt x="542" y="10" on="0"/>
        <pt x="568" y="10" on="1"/>
        <pt x="581" y="10" on="1"/>
        <pt x="581" y="0" on="1"/>
        <pt x="421" y="0" on="1"/>
        <pt x="379" y="-48" on="1"/>
        <pt x="393" y="-43" on="0"/>
        <pt x="413" y="-43" on="0"/>
        <pt x="434" y="-43" on="0"/>
        <pt x="474" y="-54" on="0"/>
        <pt x="499" y="-84" on="0"/>
        <pt x="499" y="-96" on="1"/>
        <pt x="499" y="-142" on="0"/>
        <pt x="467" y="-169" on="1"/>
        <pt x="425" y="-205" on="0"/>
        <pt x="367" y="-205" on="1"/>
        <pt x="339" y="-205" on="0"/>
        <pt x="310" y="-196" on="1"/>
        <pt x="310" y="-186" on="1"/>
        <pt x="347" y="-186" on="0"/>
        <pt x="414" y="-145" on="0"/>
        <pt x="414" y="-105" on="1"/>
        <pt x="414" y="-89" on="0"/>
        <pt x="398" y="-77" on="1"/>
        <pt x="382" y="-66" on="0"/>
        <pt x="336" y="-66" on="0"/>
        <pt x="317" y="-72" on="1"/>
        <pt x="312" y="-62" on="1"/>
        <pt x="360" y="0" on="1"/>
        <pt x="222" y="0" on="1"/>
        <pt x="222" y="10" on="1"/>
        <pt x="235" y="10" on="1"/>
        <pt x="261" y="10" on="0"/>
        <pt x="298" y="46" on="0"/>
        <pt x="299" y="71" on="1"/>
        <pt x="299" y="651" on="1"/>
        <pt x="112" y="651" on="1"/>
        <pt x="56" y="651" on="0"/>
        <pt x="19" y="624" on="1"/>
        <pt x="-24" y="593" on="0"/>
        <pt x="-24" y="500" on="0"/>
        <pt x="7" y="449" on="1"/>
      </contour>
    </TTGlyph>
    <TTGlyph name="Thorn" xMin="42" yMin="-1" xMax="693" yMax="701">
      <contour>
        <pt x="693" y="353" on="1"/>
        <pt x="693" y="307" on="0"/>
        <pt x="656" y="221" on="0"/>
        <pt x="621" y="192" on="1"/>
        <pt x="558" y="141" on="0"/>
        <pt x="487" y="141" on="1"/>
        <pt x="415" y="141" on="0"/>
        <pt x="351" y="187" on="1"/>
        <pt x="351" y="197" on="1"/>
        <pt x="387" y="203" on="0"/>
        <pt x="424" y="230" on="0"/>
        <pt x="435" y="241" on="1"/>
        <pt x="460" y="268" on="0"/>
        <pt x="477" y="340" on="0"/>
        <pt x="477" y="355" on="1"/>
        <pt x="477" y="434" on="0"/>
        <pt x="409" y="508" on="0"/>
        <pt x="352" y="508" on="1"/>
        <pt x="325" y="508" on="1"/>
        <pt x="325" y="73" on="1"/>
        <pt x="325" y="36" on="0"/>
        <pt x="357" y="18" on="1"/>
        <pt x="371" y="10" on="0"/>
        <pt x="389" y="10" on="1"/>
        <pt x="401" y="10" on="1"/>
        <pt x="401" y="0" on="1"/>
        <pt x="43" y="0" on="1"/>
        <pt x="43" y="10" on="1"/>
        <pt x="55" y="10" on="1"/>
        <pt x="82" y="10" on="0"/>
        <pt x="119" y="47" on="0"/>
        <pt x="120" y="73" on="1"/>
        <pt x="120" y="628" on="1"/>
        <pt x="119" y="654" on="0"/>
        <pt x="82" y="690" on="0"/>
        <pt x="56" y="690" on="1"/>
        <pt x="43" y="690" on="1"/>
        <pt x="43" y="700" on="1"/>
        <pt x="401" y="700" on="1"/>
        <pt x="401" y="690" on="1"/>
        <pt x="389" y="690" on="1"/>
        <pt x="363" y="690" on="0"/>
        <pt x="325" y="654" on="0"/>
        <pt x="325" y="628" on="1"/>
        <pt x="325" y="558" on="1"/>
        <pt x="416" y="558" on="1"/>
        <pt x="582" y="558" on="0"/>
        <pt x="650" y="479" on="1"/>
        <pt x="693" y="429" on="0"/>
      </contour>
    </TTGlyph>
</ttFont>
